solid tft
facet normal 2.968385771103048e-16 -1.62690373993148e-15 -1.0
  outer loop
    vertex 1.8329782136561334e-14 61.19999999999999 -3.3839597790574766e-14
    vertex 73.99999999999997 55.59999999999998 -5.639932965095795e-15
    vertex 1.5862311464331924e-14 55.59999999999999 -1.6919798895287383e-14
  endloop
endfacet
facet normal 2.968385771103048e-16 -1.62690373993148e-15 -1.0
  outer loop
    vertex 73.99999999999997 55.59999999999998 -5.639932965095795e-15
    vertex 1.8329782136561334e-14 61.19999999999999 -3.3839597790574766e-14
    vertex 73.99999999999997 61.19999999999998 -5.639932965095795e-15
  endloop
endfacet
facet normal -5.711384818539369e-15 1.016069173243039e-13 1.0
  outer loop
    vertex 73.99999999999997 55.59999999999998 30.199999999999978
    vertex 3.3839597790574766e-14 59.59999999999904 30.19999999999915
    vertex 0.0 55.59999999999999 30.19999999999996
  endloop
endfacet
facet normal -5.711384818539369e-15 1.016069173243039e-13 1.0
  outer loop
    vertex 3.3839597790574766e-14 59.59999999999904 30.19999999999915
    vertex 73.99999999999997 55.59999999999998 30.199999999999978
    vertex 73.99999999999997 59.59999999999998 30.199999999999978
  endloop
endfacet
facet normal -1.0 2.4748676351521917e-15 -1.80279373658169e-16
  outer loop
    vertex 3.3839597790574766e-14 59.59999999999904 30.19999999999915
    vertex 0.0 55.59999999999999 28.19999999999996
    vertex 0.0 55.59999999999999 30.19999999999996
  endloop
endfacet
facet normal -1.0 2.4748676351521917e-15 -1.80279373658169e-16
  outer loop
    vertex 0.0 55.59999999999999 28.19999999999996
    vertex 3.3839597790574766e-14 59.59999999999904 30.19999999999915
    vertex 0.0 59.599999999999994 28.19999999999996
  endloop
endfacet
facet normal -1.0 2.4748676351521917e-15 -1.80279373658169e-16
  outer loop
    vertex 0.0 59.599999999999994 28.19999999999996
    vertex 3.3839597790574766e-14 59.59999999999904 30.19999999999915
    vertex 2.255973186038318e-14 59.91769672843123 30.078145758231287
  endloop
endfacet
facet normal -1.0 2.4748676351521917e-15 -1.80279373658169e-16
  outer loop
    vertex 0.0 59.599999999999994 28.19999999999996
    vertex 2.255973186038318e-14 59.91769672843123 30.078145758231287
    vertex 1.5862311464331924e-14 59.599999999999994 1.9999999999999793
  endloop
endfacet
facet normal -1.0 2.4748676351521917e-15 -1.80279373658169e-16
  outer loop
    vertex 1.5862311464331924e-14 59.599999999999994 1.9999999999999793
    vertex 1.5862311464331924e-14 55.59999999999999 -1.6919798895287383e-14
    vertex 1.5862311464331924e-14 55.59999999999999 1.9999999999999793
  endloop
endfacet
facet normal -1.0 2.4748676351521917e-15 -1.80279373658169e-16
  outer loop
    vertex 1.5862311464331924e-14 55.59999999999999 -1.6919798895287383e-14
    vertex 1.5862311464331924e-14 59.599999999999994 1.9999999999999793
    vertex 1.8329782136561334e-14 61.19999999999999 -3.3839597790574766e-14
  endloop
endfacet
facet normal -1.0 2.4748676351521917e-15 -1.80279373658169e-16
  outer loop
    vertex 1.8329782136561334e-14 61.19999999999999 -3.3839597790574766e-14
    vertex 1.5862311464331924e-14 59.599999999999994 1.9999999999999793
    vertex 2.255973186038318e-14 59.91769672843123 30.078145758231287
  endloop
endfacet
facet normal -1.0 2.4748676351521917e-15 -1.80279373658169e-16
  outer loop
    vertex 1.8329782136561334e-14 61.19999999999999 -3.3839597790574766e-14
    vertex 2.255973186038318e-14 59.91769672843123 30.078145758231287
    vertex 1.127986593019159e-14 60.21338550819252 29.909777670350557
  endloop
endfacet
facet normal -1.0 2.4748676351521917e-15 -1.80279373658169e-16
  outer loop
    vertex 1.8329782136561334e-14 61.19999999999999 -3.3839597790574766e-14
    vertex 1.127986593019159e-14 60.21338550819252 29.909777670350557
    vertex 1.127986593019159e-14 60.48030391980593 29.6987463242545
  endloop
endfacet
facet normal -1.0 2.4748676351521917e-15 -1.80279373658169e-16
  outer loop
    vertex 1.8329782136561334e-14 61.19999999999999 -3.3839597790574766e-14
    vertex 1.127986593019159e-14 60.48030391980593 29.6987463242545
    vertex 1.127986593019159e-14 60.71234752377625 29.449878019020986
  endloop
endfacet
facet normal -1.0 2.4748676351521917e-15 -1.80279373658169e-16
  outer loop
    vertex 1.8329782136561334e-14 61.19999999999999 -3.3839597790574766e-14
    vertex 1.127986593019159e-14 60.71234752377625 29.449878019020986
    vertex 1.127986593019159e-14 60.90420946947402 29.168864387169425
  endloop
endfacet
facet normal -1.0 2.4748676351521917e-15 -1.80279373658169e-16
  outer loop
    vertex 1.8329782136561334e-14 61.19999999999999 -3.3839597790574766e-14
    vertex 1.127986593019159e-14 60.90420946947402 29.168864387169425
    vertex 2.255973186038318e-14 61.05150186311602 28.862132226696247
  endloop
endfacet
facet normal -1.0 2.4748676351521917e-15 -1.80279373658169e-16
  outer loop
    vertex 1.8329782136561334e-14 61.19999999999999 -3.3839597790574766e-14
    vertex 2.255973186038318e-14 61.05150186311602 28.862132226696247
    vertex 2.255973186038318e-14 61.15085611914963 28.536696519833367
  endloop
endfacet
facet normal -1.0 2.4748676351521917e-15 -1.80279373658169e-16
  outer loop
    vertex 1.8329782136561334e-14 61.19999999999999 -3.3839597790574766e-14
    vertex 2.255973186038318e-14 61.15085611914963 28.536696519833367
    vertex 3.3839597790574766e-14 61.199999999999044 28.199999999999267
  endloop
endfacet
facet normal -1.8552411069394073e-16 -2.61585886930753e-32 1.0
  outer loop
    vertex 73.99999999999997 55.59999999999998 1.9999999999999936
    vertex 1.5862311464331924e-14 59.599999999999994 1.9999999999999793
    vertex 1.5862311464331924e-14 55.59999999999999 1.9999999999999793
  endloop
endfacet
facet normal -1.8552411069394073e-16 -2.61585886930753e-32 1.0
  outer loop
    vertex 1.5862311464331924e-14 59.599999999999994 1.9999999999999793
    vertex 73.99999999999997 55.59999999999998 1.9999999999999936
    vertex 73.99999999999997 59.59999999999998 1.9999999999999936
  endloop
endfacet
facet normal -6.249655447808956e-15 1.0 1.6799800321561888e-14
  outer loop
    vertex 3.3839597790574766e-14 61.199999999999044 28.199999999999267
    vertex 73.99999999999997 61.19999999999998 -5.639932965095795e-15
    vertex 1.8329782136561334e-14 61.19999999999999 -3.3839597790574766e-14
  endloop
endfacet
facet normal -6.249655447808956e-15 1.0 1.6799800321561888e-14
  outer loop
    vertex 73.99999999999997 61.19999999999998 -5.639932965095795e-15
    vertex 3.3839597790574766e-14 61.199999999999044 28.199999999999267
    vertex 73.99999999999997 61.19999999999998 28.200000000000095
  endloop
endfacet
facet normal -1.7142243134785855e-16 -1.0 1.286497541342649e-31
  outer loop
    vertex 73.99999999999997 55.59999999999998 28.199999999999978
    vertex 0.0 55.59999999999999 30.19999999999996
    vertex 0.0 55.59999999999999 28.19999999999996
  endloop
endfacet
facet normal -1.7142243134785855e-16 -1.0 1.286497541342649e-31
  outer loop
    vertex 0.0 55.59999999999999 30.19999999999996
    vertex 73.99999999999997 55.59999999999998 28.199999999999978
    vertex 73.99999999999997 55.59999999999998 30.199999999999978
  endloop
endfacet
facet normal 1.9016221346128917e-16 8.812395257962205e-17 -1.0
  outer loop
    vertex 73.99999999999996 59.59999999999998 28.199999999999978
    vertex 0.0 55.59999999999999 28.19999999999996
    vertex 0.0 59.599999999999994 28.19999999999996
  endloop
endfacet
facet normal 1.9016221346128917e-16 8.812395257962205e-17 -1.0
  outer loop
    vertex 0.0 55.59999999999999 28.19999999999996
    vertex 73.99999999999996 59.59999999999998 28.199999999999978
    vertex 73.99999999999997 55.59999999999998 28.199999999999978
  endloop
endfacet
facet normal 1.0 3.515462043446774e-16 8.089262427348131e-17
  outer loop
    vertex 73.99999999999997 61.19999999999998 -5.639932965095795e-15
    vertex 73.99999999999997 55.59999999999998 1.9999999999999936
    vertex 73.99999999999997 55.59999999999998 -5.639932965095795e-15
  endloop
endfacet
facet normal 1.0 3.515462043446774e-16 8.089262427348131e-17
  outer loop
    vertex 73.99999999999997 55.59999999999998 1.9999999999999936
    vertex 73.99999999999997 61.19999999999998 -5.639932965095795e-15
    vertex 73.99999999999997 59.59999999999998 1.9999999999999936
  endloop
endfacet
facet normal 1.0 3.515462043446774e-16 8.089262427348131e-17
  outer loop
    vertex 73.99999999999997 59.59999999999998 1.9999999999999936
    vertex 73.99999999999997 61.19999999999998 -5.639932965095795e-15
    vertex 73.99999999999996 59.59999999999998 28.199999999999978
  endloop
endfacet
facet normal 1.0 3.515462043446774e-16 8.089262427348131e-17
  outer loop
    vertex 73.99999999999996 59.59999999999998 28.199999999999978
    vertex 73.99999999999997 61.19999999999998 -5.639932965095795e-15
    vertex 73.99999999999997 59.59999999999998 30.199999999999978
  endloop
endfacet
facet normal 1.0 3.515462043446774e-16 8.089262427348131e-17
  outer loop
    vertex 73.99999999999997 59.59999999999998 30.199999999999978
    vertex 73.99999999999997 61.19999999999998 -5.639932965095795e-15
    vertex 73.99999999999997 59.91769672843217 30.078145758232115
  endloop
endfacet
facet normal 1.0 3.515462043446774e-16 8.089262427348131e-17
  outer loop
    vertex 73.99999999999997 59.91769672843217 30.078145758232115
    vertex 73.99999999999997 61.19999999999998 -5.639932965095795e-15
    vertex 73.99999999999996 60.213385508193454 29.909777670351385
  endloop
endfacet
facet normal 1.0 3.515462043446774e-16 8.089262427348131e-17
  outer loop
    vertex 73.99999999999996 60.213385508193454 29.909777670351385
    vertex 73.99999999999997 61.19999999999998 -5.639932965095795e-15
    vertex 73.99999999999996 60.480303919806865 29.69874632425533
  endloop
endfacet
facet normal 1.0 3.515462043446774e-16 8.089262427348131e-17
  outer loop
    vertex 73.99999999999996 60.480303919806865 29.69874632425533
    vertex 73.99999999999997 61.19999999999998 -5.639932965095795e-15
    vertex 73.99999999999996 60.71234752377718 29.44987801902181
  endloop
endfacet
facet normal 1.0 3.515462043446774e-16 8.089262427348131e-17
  outer loop
    vertex 73.99999999999996 60.71234752377718 29.44987801902181
    vertex 73.99999999999997 61.19999999999998 -5.639932965095795e-15
    vertex 73.99999999999996 60.90420946947495 29.168864387170256
  endloop
endfacet
facet normal 1.0 3.515462043446774e-16 8.089262427348131e-17
  outer loop
    vertex 73.99999999999996 60.90420946947495 29.168864387170256
    vertex 73.99999999999997 61.19999999999998 -5.639932965095795e-15
    vertex 73.99999999999997 61.05150186311696 28.862132226697074
  endloop
endfacet
facet normal 1.0 3.515462043446774e-16 8.089262427348131e-17
  outer loop
    vertex 73.99999999999997 61.05150186311696 28.862132226697074
    vertex 73.99999999999997 61.19999999999998 -5.639932965095795e-15
    vertex 73.99999999999997 61.15085611915057 28.536696519834194
  endloop
endfacet
facet normal 1.0 3.515462043446774e-16 8.089262427348131e-17
  outer loop
    vertex 73.99999999999997 61.15085611915057 28.536696519834194
    vertex 73.99999999999997 61.19999999999998 -5.639932965095795e-15
    vertex 73.99999999999997 61.19999999999998 28.200000000000095
  endloop
endfacet
facet normal 1.0 3.515462043446774e-16 8.089262427348131e-17
  outer loop
    vertex 73.99999999999996 59.59999999999998 28.199999999999978
    vertex 73.99999999999997 55.59999999999998 30.199999999999978
    vertex 73.99999999999997 55.59999999999998 28.199999999999978
  endloop
endfacet
facet normal 1.0 3.515462043446774e-16 8.089262427348131e-17
  outer loop
    vertex 73.99999999999997 55.59999999999998 30.199999999999978
    vertex 73.99999999999996 59.59999999999998 28.199999999999978
    vertex 73.99999999999997 59.59999999999998 30.199999999999978
  endloop
endfacet
facet normal -1.4841928855515257e-16 -1.0 -6.914244992236457e-32
  outer loop
    vertex 73.99999999999997 59.59999999999998 1.9999999999999936
    vertex 0.0 59.599999999999994 28.19999999999996
    vertex 1.5862311464331924e-14 59.599999999999994 1.9999999999999793
  endloop
endfacet
facet normal -1.4841928855515257e-16 -1.0 -6.914244992236457e-32
  outer loop
    vertex 0.0 59.599999999999994 28.19999999999996
    vertex 73.99999999999997 59.59999999999998 1.9999999999999936
    vertex 73.99999999999996 59.59999999999998 28.199999999999978
  endloop
endfacet
facet normal -1.7142243134785855e-16 -1.0 1.286497541342649e-31
  outer loop
    vertex 73.99999999999997 55.59999999999998 -5.639932965095795e-15
    vertex 1.5862311464331924e-14 55.59999999999999 1.9999999999999793
    vertex 1.5862311464331924e-14 55.59999999999999 -1.6919798895287383e-14
  endloop
endfacet
facet normal -1.7142243134785855e-16 -1.0 1.286497541342649e-31
  outer loop
    vertex 1.5862311464331924e-14 55.59999999999999 1.9999999999999793
    vertex 73.99999999999997 55.59999999999998 -5.639932965095795e-15
    vertex 73.99999999999997 55.59999999999998 1.9999999999999936
  endloop
endfacet
facet normal -1.5937127686679622e-14 0.4948158821204838 0.8689978382029081
  outer loop
    vertex 2.255973186038318e-14 59.91769672843123 30.078145758231287
    vertex 73.99999999999996 60.213385508193454 29.909777670351385
    vertex 1.127986593019159e-14 60.21338550819252 29.909777670350557
  endloop
endfacet
facet normal -1.5937127686679622e-14 0.4948158821204838 0.8689978382029081
  outer loop
    vertex 73.99999999999996 60.213385508193454 29.909777670351385
    vertex 2.255973186038318e-14 59.91769672843123 30.078145758231287
    vertex 73.99999999999997 59.91769672843217 30.078145758232115
  endloop
endfacet
facet normal -1.4982485237618912e-14 0.3581166412794322 0.9336768558975522
  outer loop
    vertex 3.3839597790574766e-14 59.59999999999904 30.19999999999915
    vertex 73.99999999999997 59.91769672843217 30.078145758232115
    vertex 2.255973186038318e-14 59.91769672843123 30.078145758231287
  endloop
endfacet
facet normal -1.4982485237618912e-14 0.3581166412794322 0.9336768558975522
  outer loop
    vertex 73.99999999999997 59.91769672843217 30.078145758232115
    vertex 3.3839597790574766e-14 59.59999999999904 30.19999999999915
    vertex 73.99999999999997 59.59999999999998 30.199999999999978
  endloop
endfacet
facet normal -1.6572640840855725e-14 0.6201986551487214 0.7844447897409462
  outer loop
    vertex 73.99999999999996 60.213385508193454 29.909777670351385
    vertex 1.127986593019159e-14 60.48030391980593 29.6987463242545
    vertex 1.127986593019159e-14 60.21338550819252 29.909777670350557
  endloop
endfacet
facet normal -1.6572640840855725e-14 0.6201986551487214 0.7844447897409462
  outer loop
    vertex 1.127986593019159e-14 60.48030391980593 29.6987463242545
    vertex 73.99999999999996 60.213385508193454 29.909777670351385
    vertex 73.99999999999996 60.480303919806865 29.69874632425533
  endloop
endfacet
facet normal -1.670074931252413e-14 0.8258691411344501 0.5638618285731404
  outer loop
    vertex 1.127986593019159e-14 60.71234752377625 29.449878019020986
    vertex 73.99999999999996 60.90420946947495 29.168864387170256
    vertex 1.127986593019159e-14 60.90420946947402 29.168864387169425
  endloop
endfacet
facet normal -1.670074931252413e-14 0.8258691411344501 0.5638618285731404
  outer loop
    vertex 73.99999999999996 60.90420946947495 29.168864387170256
    vertex 1.127986593019159e-14 60.71234752377625 29.449878019020986
    vertex 73.99999999999996 60.71234752377718 29.44987801902181
  endloop
endfacet
facet normal -1.682913674149292e-14 0.7313974491008269 0.681951443615162
  outer loop
    vertex 1.127986593019159e-14 60.48030391980593 29.6987463242545
    vertex 73.99999999999996 60.71234752377718 29.44987801902181
    vertex 1.127986593019159e-14 60.71234752377625 29.449878019020986
  endloop
endfacet
facet normal -1.682913674149292e-14 0.7313974491008269 0.681951443615162
  outer loop
    vertex 73.99999999999996 60.71234752377718 29.44987801902181
    vertex 1.127986593019159e-14 60.48030391980593 29.6987463242545
    vertex 73.99999999999996 60.480303919806865 29.69874632425533
  endloop
endfacet
facet normal -1.4135861917859097e-14 0.9895152196930871 0.14442863288054042
  outer loop
    vertex 2.255973186038318e-14 61.15085611914963 28.536696519833367
    vertex 73.99999999999997 61.19999999999998 28.200000000000095
    vertex 3.3839597790574766e-14 61.199999999999044 28.199999999999267
  endloop
endfacet
facet normal -1.4135861917859097e-14 0.9895152196930871 0.14442863288054042
  outer loop
    vertex 73.99999999999997 61.19999999999998 28.200000000000095
    vertex 2.255973186038318e-14 61.15085611914963 28.536696519833367
    vertex 73.99999999999997 61.15085611915057 28.536696519834194
  endloop
endfacet
facet normal -1.5309804529724828e-14 0.9564208894439108 0.2919915790486408
  outer loop
    vertex 2.255973186038318e-14 61.05150186311602 28.862132226696247
    vertex 73.99999999999997 61.15085611915057 28.536696519834194
    vertex 2.255973186038318e-14 61.15085611914963 28.536696519833367
  endloop
endfacet
facet normal -1.5309804529724828e-14 0.9564208894439108 0.2919915790486408
  outer loop
    vertex 73.99999999999997 61.15085611915057 28.536696519834194
    vertex 2.255973186038318e-14 61.05150186311602 28.862132226696247
    vertex 73.99999999999997 61.05150186311696 28.862132226697074
  endloop
endfacet
facet normal -1.619041478186769e-14 0.9014531581945181 0.4328766609337229
  outer loop
    vertex 1.127986593019159e-14 60.90420946947402 29.168864387169425
    vertex 73.99999999999997 61.05150186311696 28.862132226697074
    vertex 2.255973186038318e-14 61.05150186311602 28.862132226696247
  endloop
endfacet
facet normal -1.619041478186769e-14 0.9014531581945181 0.4328766609337229
  outer loop
    vertex 73.99999999999997 61.05150186311696 28.862132226697074
    vertex 1.127986593019159e-14 60.90420946947402 29.168864387169425
    vertex 73.99999999999996 60.90420946947495 29.168864387170256
  endloop
endfacet
endsolid tft
