solid tft
facet normal 0.0 1.0 0.0
  outer loop
    vertex 7.049916206369744e-16 16.699999999999985 6.099999999999983
    vertex 1.5999999999999963 16.699999999999985 3.5999999999999877
    vertex 7.049916206369744e-16 16.699999999999985 3.5999999999999877
  endloop
endfacet
facet normal 0.0 1.0 0.0
  outer loop
    vertex 1.5999999999999963 16.699999999999985 3.5999999999999877
    vertex 7.049916206369744e-16 16.699999999999985 6.099999999999983
    vertex 1.5999999999999963 16.699999999999985 6.099999999999983
  endloop
endfacet
facet normal 1.0 -1.155723968257335e-16 -2.7261802654114752e-33
  outer loop
    vertex 1.5999999999999979 47.69999999999998 3.5999999999999823
    vertex 1.5999999999999963 35.49999999999998 6.09999999999998
    vertex 1.5999999999999963 35.49999999999998 3.599999999999985
  endloop
endfacet
facet normal 1.0 -1.155723968257335e-16 -2.7261802654114752e-33
  outer loop
    vertex 1.5999999999999963 35.49999999999998 6.09999999999998
    vertex 1.5999999999999979 47.69999999999998 3.5999999999999823
    vertex 1.5999999999999979 47.69999999999998 6.099999999999977
  endloop
endfacet
facet normal 0.0 -1.0 0.0
  outer loop
    vertex 1.5999999999999963 7.499999999999987 6.099999999999986
    vertex 0.0 7.499999999999987 3.5999999999999908
    vertex 1.5999999999999963 7.499999999999987 3.5999999999999908
  endloop
endfacet
facet normal 0.0 -1.0 0.0
  outer loop
    vertex 0.0 7.499999999999987 3.5999999999999908
    vertex 1.5999999999999963 7.499999999999987 6.099999999999986
    vertex 0.0 7.499999999999987 6.099999999999986
  endloop
endfacet
facet normal 2.944013808150111e-32 2.31144793651467e-16 1.0
  outer loop
    vertex 1.5999999999999963 35.49999999999998 6.09999999999998
    vertex 3.1724622928663847e-15 47.69999999999998 6.099999999999977
    vertex 1.4099832412739487e-15 35.49999999999998 6.09999999999998
  endloop
endfacet
facet normal 2.944013808150111e-32 2.31144793651467e-16 1.0
  outer loop
    vertex 3.1724622928663847e-15 47.69999999999998 6.099999999999977
    vertex 1.5999999999999963 35.49999999999998 6.09999999999998
    vertex 1.5999999999999979 47.69999999999998 6.099999999999977
  endloop
endfacet
facet normal -1.0 1.444654960321669e-16 6.721899635473551e-33
  outer loop
    vertex 3.1724622928663847e-15 47.69999999999998 6.099999999999977
    vertex 1.4099832412739487e-15 35.49999999999998 3.599999999999985
    vertex 1.4099832412739487e-15 35.49999999999998 6.09999999999998
  endloop
endfacet
facet normal -1.0 1.444654960321669e-16 6.721899635473551e-33
  outer loop
    vertex 1.4099832412739487e-15 35.49999999999998 3.599999999999985
    vertex 3.1724622928663847e-15 47.69999999999998 6.099999999999977
    vertex 3.1724622928663847e-15 47.69999999999998 3.5999999999999823
  endloop
endfacet
facet normal 2.944013808150111e-32 2.31144793651467e-16 1.0
  outer loop
    vertex 1.5999999999999963 35.49999999999998 3.599999999999985
    vertex 3.1724622928663847e-15 47.69999999999998 3.5999999999999823
    vertex 1.4099832412739487e-15 35.49999999999998 3.599999999999985
  endloop
endfacet
facet normal 2.944013808150111e-32 2.31144793651467e-16 1.0
  outer loop
    vertex 3.1724622928663847e-15 47.69999999999998 3.5999999999999823
    vertex 1.5999999999999963 35.49999999999998 3.599999999999985
    vertex 1.5999999999999979 47.69999999999998 3.5999999999999823
  endloop
endfacet
facet normal 1.0 4.204453883328597e-48 1.3716821092027323e-32
  outer loop
    vertex 1.5999999999999963 16.699999999999985 3.5999999999999877
    vertex 1.5999999999999963 7.499999999999987 6.099999999999986
    vertex 1.5999999999999963 7.499999999999987 3.5999999999999908
  endloop
endfacet
facet normal 1.0 4.204453883328597e-48 1.3716821092027323e-32
  outer loop
    vertex 1.5999999999999963 7.499999999999987 6.099999999999986
    vertex 1.5999999999999963 16.699999999999985 3.5999999999999877
    vertex 1.5999999999999963 16.699999999999985 6.099999999999983
  endloop
endfacet
facet normal -1.3716821092027323e-32 3.0651809592911934e-16 1.0
  outer loop
    vertex 1.5999999999999963 7.499999999999987 6.099999999999986
    vertex 7.049916206369744e-16 16.699999999999985 6.099999999999983
    vertex 0.0 7.499999999999987 6.099999999999986
  endloop
endfacet
facet normal -1.3716821092027323e-32 3.0651809592911934e-16 1.0
  outer loop
    vertex 7.049916206369744e-16 16.699999999999985 6.099999999999983
    vertex 1.5999999999999963 7.499999999999987 6.099999999999986
    vertex 1.5999999999999963 16.699999999999985 6.099999999999983
  endloop
endfacet
facet normal -1.0 7.662952398227982e-17 -2.485065925841788e-33
  outer loop
    vertex 7.049916206369744e-16 16.699999999999985 6.099999999999983
    vertex 0.0 7.499999999999987 3.5999999999999908
    vertex 0.0 7.499999999999987 6.099999999999986
  endloop
endfacet
facet normal -1.0 7.662952398227982e-17 -2.485065925841788e-33
  outer loop
    vertex 0.0 7.499999999999987 3.5999999999999908
    vertex 7.049916206369744e-16 16.699999999999985 6.099999999999983
    vertex 7.049916206369744e-16 16.699999999999985 3.5999999999999877
  endloop
endfacet
facet normal -1.3716821092027323e-32 3.0651809592911934e-16 1.0
  outer loop
    vertex 1.5999999999999963 7.499999999999987 3.5999999999999908
    vertex 7.049916206369744e-16 16.699999999999985 3.5999999999999877
    vertex 0.0 7.499999999999987 3.5999999999999908
  endloop
endfacet
facet normal -1.3716821092027323e-32 3.0651809592911934e-16 1.0
  outer loop
    vertex 7.049916206369744e-16 16.699999999999985 3.5999999999999877
    vertex 1.5999999999999963 7.499999999999987 3.5999999999999908
    vertex 1.5999999999999963 16.699999999999985 3.5999999999999877
  endloop
endfacet
facet normal -6.480224910968971e-17 2.1452061907717662e-17 1.0
  outer loop
    vertex 73.99999999999999 1.5999999999999859 3.5999999999999908
    vertex 0.0 3.5999999999999854 3.5999999999999908
    vertex 0.0 1.5999999999999892 3.599999999999985
  endloop
endfacet
facet normal -6.480224910968971e-17 2.1452061907717662e-17 1.0
  outer loop
    vertex 0.0 3.5999999999999854 3.5999999999999908
    vertex 73.99999999999999 1.5999999999999859 3.5999999999999908
    vertex 0.0 7.499999999999987 3.5999999999999908
  endloop
endfacet
facet normal -6.480224910968971e-17 2.1452061907717662e-17 1.0
  outer loop
    vertex 0.0 7.499999999999987 3.5999999999999908
    vertex 73.99999999999999 1.5999999999999859 3.5999999999999908
    vertex 1.5999999999999963 7.499999999999987 3.5999999999999908
  endloop
endfacet
facet normal -6.480224910968971e-17 2.1452061907717662e-17 1.0
  outer loop
    vertex 1.5999999999999963 7.499999999999987 3.5999999999999908
    vertex 73.99999999999999 1.5999999999999859 3.5999999999999908
    vertex 1.5999999999999963 16.699999999999985 3.5999999999999877
  endloop
endfacet
facet normal -6.480224910968971e-17 2.1452061907717662e-17 1.0
  outer loop
    vertex 1.5999999999999963 16.699999999999985 3.5999999999999877
    vertex 73.99999999999999 1.5999999999999859 3.5999999999999908
    vertex 1.5999999999999963 35.49999999999998 3.599999999999985
  endloop
endfacet
facet normal -6.480224910968971e-17 2.1452061907717662e-17 1.0
  outer loop
    vertex 1.5999999999999963 35.49999999999998 3.599999999999985
    vertex 73.99999999999999 1.5999999999999859 3.5999999999999908
    vertex 1.5999999999999979 47.69999999999998 3.5999999999999823
  endloop
endfacet
facet normal -6.480224910968971e-17 2.1452061907717662e-17 1.0
  outer loop
    vertex 1.5999999999999979 47.69999999999998 3.5999999999999823
    vertex 4.5824455341403335e-15 59.59999999999998 3.599999999999985
    vertex 3.1724622928663847e-15 47.69999999999998 3.5999999999999823
  endloop
endfacet
facet normal -6.480224910968971e-17 2.1452061907717662e-17 1.0
  outer loop
    vertex 4.5824455341403335e-15 59.59999999999998 3.599999999999985
    vertex 1.5999999999999979 47.69999999999998 3.5999999999999823
    vertex 73.99999999999999 59.59999999999998 3.5999999999999908
  endloop
endfacet
facet normal -6.480224910968971e-17 2.1452061907717662e-17 1.0
  outer loop
    vertex 73.99999999999999 59.59999999999998 3.5999999999999908
    vertex 1.5999999999999979 47.69999999999998 3.5999999999999823
    vertex 73.99999999999999 1.5999999999999859 3.5999999999999908
  endloop
endfacet
facet normal -6.480224910968971e-17 2.1452061907717662e-17 1.0
  outer loop
    vertex 73.99999999999999 59.59999999999998 3.5999999999999908
    vertex 73.99999999999999 1.5999999999999859 3.5999999999999908
    vertex 74.51763809020504 1.66814834742186 3.5999999999999908
  endloop
endfacet
facet normal -6.480224910968971e-17 2.1452061907717662e-17 1.0
  outer loop
    vertex 73.99999999999999 59.59999999999998 3.5999999999999908
    vertex 74.51763809020504 1.66814834742186 3.5999999999999908
    vertex 74.51763809020503 59.531851652578105 3.5999999999999908
  endloop
endfacet
facet normal -6.480224910968971e-17 2.1452061907717662e-17 1.0
  outer loop
    vertex 74.51763809020503 59.531851652578105 3.5999999999999908
    vertex 74.51763809020504 1.66814834742186 3.5999999999999908
    vertex 74.99999999999997 59.332050807568855 3.5999999999999908
  endloop
endfacet
facet normal -6.480224910968971e-17 2.1452061907717662e-17 1.0
  outer loop
    vertex 74.99999999999997 59.332050807568855 3.5999999999999908
    vertex 74.51763809020504 1.66814834742186 3.5999999999999908
    vertex 74.99999999999999 1.8679491924311264 3.5999999999999908
  endloop
endfacet
facet normal -6.480224910968971e-17 2.1452061907717662e-17 1.0
  outer loop
    vertex 74.99999999999997 59.332050807568855 3.5999999999999908
    vertex 74.99999999999999 1.8679491924311264 3.5999999999999908
    vertex 75.41421356237308 59.01421356237307 3.5999999999999908
  endloop
endfacet
facet normal -6.480224910968971e-17 2.1452061907717662e-17 1.0
  outer loop
    vertex 75.41421356237308 59.01421356237307 3.5999999999999908
    vertex 74.99999999999999 1.8679491924311264 3.5999999999999908
    vertex 75.41421356237308 2.1857864376269123 3.5999999999999908
  endloop
endfacet
facet normal -6.480224910968971e-17 2.1452061907717662e-17 1.0
  outer loop
    vertex 75.41421356237308 59.01421356237307 3.5999999999999908
    vertex 75.41421356237308 2.1857864376269123 3.5999999999999908
    vertex 75.73205080756885 2.600000000000009 3.5999999999999908
  endloop
endfacet
facet normal -6.480224910968971e-17 2.1452061907717662e-17 1.0
  outer loop
    vertex 75.41421356237308 59.01421356237307 3.5999999999999908
    vertex 75.73205080756885 2.600000000000009 3.5999999999999908
    vertex 75.73205080756885 58.59999999999997 3.5999999999999908
  endloop
endfacet
facet normal -6.480224910968971e-17 2.1452061907717662e-17 1.0
  outer loop
    vertex 75.73205080756885 58.59999999999997 3.5999999999999908
    vertex 75.73205080756885 2.600000000000009 3.5999999999999908
    vertex 75.93185165257812 3.082361909794967 3.5999999999999908
  endloop
endfacet
facet normal -6.480224910968971e-17 2.1452061907717662e-17 1.0
  outer loop
    vertex 75.73205080756885 58.59999999999997 3.5999999999999908
    vertex 75.93185165257812 3.082361909794967 3.5999999999999908
    vertex 75.9318516525781 58.11763809020502 3.5999999999999908
  endloop
endfacet
facet normal -6.480224910968971e-17 2.1452061907717662e-17 1.0
  outer loop
    vertex 75.9318516525781 58.11763809020502 3.5999999999999908
    vertex 75.93185165257812 3.082361909794967 3.5999999999999908
    vertex 75.99999999999997 57.59999999999999 3.5999999999999908
  endloop
endfacet
facet normal -6.480224910968971e-17 2.1452061907717662e-17 1.0
  outer loop
    vertex 75.99999999999997 57.59999999999999 3.5999999999999908
    vertex 75.93185165257812 3.082361909794967 3.5999999999999908
    vertex 75.99999999999999 3.600000000000008 3.5999999999999908
  endloop
endfacet
facet normal -6.480224910968971e-17 2.1452061907717662e-17 1.0
  outer loop
    vertex 1.5999999999999963 16.699999999999985 3.5999999999999877
    vertex 1.4099832412739487e-15 35.49999999999998 3.599999999999985
    vertex 7.049916206369744e-16 16.699999999999985 3.5999999999999877
  endloop
endfacet
facet normal -6.480224910968971e-17 2.1452061907717662e-17 1.0
  outer loop
    vertex 1.4099832412739487e-15 35.49999999999998 3.599999999999985
    vertex 1.5999999999999963 16.699999999999985 3.5999999999999877
    vertex 1.5999999999999963 35.49999999999998 3.599999999999985
  endloop
endfacet
facet normal -1.0 7.526794811632426e-17 -1.881698702908112e-16
  outer loop
    vertex 0.0 3.5999999999999854 3.5999999999999908
    vertex 0.0 1.5999999999999892 2.399999999999987
    vertex 0.0 1.5999999999999892 3.599999999999985
  endloop
endfacet
facet normal -1.0 7.526794811632426e-17 -1.881698702908112e-16
  outer loop
    vertex 0.0 1.5999999999999892 2.399999999999987
    vertex 0.0 3.5999999999999854 3.5999999999999908
    vertex 0.0 3.5999999999999854 2.399999999999993
  endloop
endfacet
facet normal -1.0 7.526794811632426e-17 -1.881698702908112e-16
  outer loop
    vertex 0.0 3.5999999999999854 2.399999999999993
    vertex 0.0 3.5999999999999854 3.5999999999999908
    vertex 0.0 7.499999999999987 3.5999999999999908
  endloop
endfacet
facet normal -1.0 7.526794811632426e-17 -1.881698702908112e-16
  outer loop
    vertex 0.0 3.5999999999999854 2.399999999999993
    vertex 0.0 7.499999999999987 3.5999999999999908
    vertex 4.229949723821846e-15 59.59999999999998 2.399999999999987
  endloop
endfacet
facet normal -1.0 7.526794811632426e-17 -1.881698702908112e-16
  outer loop
    vertex 4.229949723821846e-15 59.59999999999998 2.399999999999987
    vertex 0.0 7.499999999999987 3.5999999999999908
    vertex 7.049916206369744e-16 16.699999999999985 3.5999999999999877
  endloop
endfacet
facet normal -1.0 7.526794811632426e-17 -1.881698702908112e-16
  outer loop
    vertex 4.229949723821846e-15 59.59999999999998 2.399999999999987
    vertex 7.049916206369744e-16 16.699999999999985 3.5999999999999877
    vertex 1.4099832412739487e-15 35.49999999999998 3.599999999999985
  endloop
endfacet
facet normal -1.0 7.526794811632426e-17 -1.881698702908112e-16
  outer loop
    vertex 4.229949723821846e-15 59.59999999999998 2.399999999999987
    vertex 1.4099832412739487e-15 35.49999999999998 3.599999999999985
    vertex 3.1724622928663847e-15 47.69999999999998 3.5999999999999823
  endloop
endfacet
facet normal -1.0 7.526794811632426e-17 -1.881698702908112e-16
  outer loop
    vertex 4.229949723821846e-15 59.59999999999998 2.399999999999987
    vertex 3.1724622928663847e-15 47.69999999999998 3.5999999999999823
    vertex 4.5824455341403335e-15 59.59999999999998 3.599999999999985
  endloop
endfacet
facet normal 7.456650040152921e-17 1.1563726865157757e-18 -1.0
  outer loop
    vertex 4.229949723821846e-15 59.59999999999998 2.399999999999987
    vertex 0.0 1.5999999999999892 2.399999999999987
    vertex 0.0 3.5999999999999854 2.399999999999993
  endloop
endfacet
facet normal 7.456650040152921e-17 1.1563726865157757e-18 -1.0
  outer loop
    vertex 0.0 1.5999999999999892 2.399999999999987
    vertex 4.229949723821846e-15 59.59999999999998 2.399999999999987
    vertex 73.99999999999999 1.5999999999999859 2.399999999999993
  endloop
endfacet
facet normal 7.456650040152921e-17 1.1563726865157757e-18 -1.0
  outer loop
    vertex 73.99999999999999 1.5999999999999859 2.399999999999993
    vertex 4.229949723821846e-15 59.59999999999998 2.399999999999987
    vertex 73.99999999999999 59.59999999999998 2.399999999999993
  endloop
endfacet
facet normal 7.456650040152921e-17 1.1563726865157757e-18 -1.0
  outer loop
    vertex 73.99999999999999 1.5999999999999859 2.399999999999993
    vertex 73.99999999999999 59.59999999999998 2.399999999999993
    vertex 74.51763809020503 59.531851652578105 2.399999999999993
  endloop
endfacet
facet normal 7.456650040152921e-17 1.1563726865157757e-18 -1.0
  outer loop
    vertex 73.99999999999999 1.5999999999999859 2.399999999999993
    vertex 74.51763809020503 59.531851652578105 2.399999999999993
    vertex 74.51763809020504 1.66814834742186 2.399999999999993
  endloop
endfacet
facet normal 7.456650040152921e-17 1.1563726865157757e-18 -1.0
  outer loop
    vertex 74.51763809020504 1.66814834742186 2.399999999999993
    vertex 74.51763809020503 59.531851652578105 2.399999999999993
    vertex 74.99999999999997 59.332050807568855 2.399999999999993
  endloop
endfacet
facet normal 7.456650040152921e-17 1.1563726865157757e-18 -1.0
  outer loop
    vertex 74.51763809020504 1.66814834742186 2.399999999999993
    vertex 74.99999999999997 59.332050807568855 2.399999999999993
    vertex 74.99999999999999 1.8679491924311264 2.399999999999993
  endloop
endfacet
facet normal 7.456650040152921e-17 1.1563726865157757e-18 -1.0
  outer loop
    vertex 74.99999999999999 1.8679491924311264 2.399999999999993
    vertex 74.99999999999997 59.332050807568855 2.399999999999993
    vertex 75.41421356237308 59.01421356237307 2.399999999999993
  endloop
endfacet
facet normal 7.456650040152921e-17 1.1563726865157757e-18 -1.0
  outer loop
    vertex 74.99999999999999 1.8679491924311264 2.399999999999993
    vertex 75.41421356237308 59.01421356237307 2.399999999999993
    vertex 75.41421356237308 2.1857864376269123 2.399999999999993
  endloop
endfacet
facet normal 7.456650040152921e-17 1.1563726865157757e-18 -1.0
  outer loop
    vertex 75.41421356237308 2.1857864376269123 2.399999999999993
    vertex 75.41421356237308 59.01421356237307 2.399999999999993
    vertex 75.73205080756885 58.59999999999997 2.399999999999993
  endloop
endfacet
facet normal 7.456650040152921e-17 1.1563726865157757e-18 -1.0
  outer loop
    vertex 75.41421356237308 2.1857864376269123 2.399999999999993
    vertex 75.73205080756885 58.59999999999997 2.399999999999993
    vertex 75.73205080756885 2.600000000000009 2.399999999999993
  endloop
endfacet
facet normal 7.456650040152921e-17 1.1563726865157757e-18 -1.0
  outer loop
    vertex 75.73205080756885 2.600000000000009 2.399999999999993
    vertex 75.73205080756885 58.59999999999997 2.399999999999993
    vertex 75.9318516525781 58.11763809020502 2.399999999999993
  endloop
endfacet
facet normal 7.456650040152921e-17 1.1563726865157757e-18 -1.0
  outer loop
    vertex 75.73205080756885 2.600000000000009 2.399999999999993
    vertex 75.9318516525781 58.11763809020502 2.399999999999993
    vertex 75.93185165257812 3.082361909794967 2.399999999999993
  endloop
endfacet
facet normal 7.456650040152921e-17 1.1563726865157757e-18 -1.0
  outer loop
    vertex 75.93185165257812 3.082361909794967 2.399999999999993
    vertex 75.9318516525781 58.11763809020502 2.399999999999993
    vertex 75.99999999999997 57.59999999999999 2.399999999999993
  endloop
endfacet
facet normal 7.456650040152921e-17 1.1563726865157757e-18 -1.0
  outer loop
    vertex 75.93185165257812 3.082361909794967 2.399999999999993
    vertex 75.99999999999997 57.59999999999999 2.399999999999993
    vertex 75.99999999999999 3.600000000000008 2.399999999999993
  endloop
endfacet
facet normal 0.13052619222007064 -0.9914448613738079 3.479256339744991e-18
  outer loop
    vertex 74.51763809020504 1.66814834742186 3.5999999999999908
    vertex 73.99999999999999 1.5999999999999859 2.399999999999993
    vertex 74.51763809020504 1.66814834742186 2.399999999999993
  endloop
endfacet
facet normal 0.13052619222007064 -0.9914448613738079 3.479256339744991e-18
  outer loop
    vertex 73.99999999999999 1.5999999999999859 2.399999999999993
    vertex 74.51763809020504 1.66814834742186 3.5999999999999908
    vertex 73.99999999999999 1.5999999999999859 3.5999999999999908
  endloop
endfacet
facet normal 1.0 2.0888640611465914e-16 3.774750254891713e-17
  outer loop
    vertex 75.99999999999997 57.59999999999999 2.399999999999993
    vertex 75.99999999999999 3.600000000000008 3.5999999999999908
    vertex 75.99999999999999 3.600000000000008 2.399999999999993
  endloop
endfacet
facet normal 1.0 2.0888640611465914e-16 3.774750254891713e-17
  outer loop
    vertex 75.99999999999999 3.600000000000008 3.5999999999999908
    vertex 75.99999999999997 57.59999999999999 2.399999999999993
    vertex 75.99999999999997 57.59999999999999 3.5999999999999908
  endloop
endfacet
facet normal 0.3826834323651056 -0.9238795325112804 1.3096226316987949e-17
  outer loop
    vertex 74.99999999999999 1.8679491924311264 3.5999999999999908
    vertex 74.51763809020504 1.66814834742186 2.399999999999993
    vertex 74.99999999999999 1.8679491924311264 2.399999999999993
  endloop
endfacet
facet normal 0.3826834323651056 -0.9238795325112804 1.3096226316987949e-17
  outer loop
    vertex 74.51763809020504 1.66814834742186 2.399999999999993
    vertex 74.99999999999999 1.8679491924311264 3.5999999999999908
    vertex 74.51763809020504 1.66814834742186 3.5999999999999908
  endloop
endfacet
facet normal 0.7933533402912413 0.6087614290087128 3.083606589391873e-17
  outer loop
    vertex 75.41421356237308 59.01421356237307 2.399999999999993
    vertex 75.73205080756885 58.59999999999997 3.5999999999999908
    vertex 75.73205080756885 58.59999999999997 2.399999999999993
  endloop
endfacet
facet normal 0.7933533402912413 0.6087614290087128 3.083606589391873e-17
  outer loop
    vertex 75.73205080756885 58.59999999999997 3.5999999999999908
    vertex 75.41421356237308 59.01421356237307 2.399999999999993
    vertex 75.41421356237308 59.01421356237307 3.5999999999999908
  endloop
endfacet
facet normal 0.38268343236508595 0.9238795325112884 1.579446136027168e-17
  outer loop
    vertex 74.51763809020503 59.531851652578105 3.5999999999999908
    vertex 74.99999999999997 59.332050807568855 2.399999999999993
    vertex 74.51763809020503 59.531851652578105 2.399999999999993
  endloop
endfacet
facet normal 0.38268343236508595 0.9238795325112884 1.579446136027168e-17
  outer loop
    vertex 74.99999999999997 59.332050807568855 2.399999999999993
    vertex 74.51763809020503 59.531851652578105 3.5999999999999908
    vertex 74.99999999999997 59.332050807568855 3.5999999999999908
  endloop
endfacet
facet normal 0.0 1.0 0.0
  outer loop
    vertex 4.5824455341403335e-15 59.59999999999998 3.599999999999985
    vertex 73.99999999999999 59.59999999999998 2.399999999999993
    vertex 4.229949723821846e-15 59.59999999999998 2.399999999999987
  endloop
endfacet
facet normal 0.0 1.0 0.0
  outer loop
    vertex 73.99999999999999 59.59999999999998 2.399999999999993
    vertex 4.5824455341403335e-15 59.59999999999998 3.599999999999985
    vertex 73.99999999999999 59.59999999999998 3.5999999999999908
  endloop
endfacet
facet normal -4.825992901959785e-17 -1.0 -2.040982345632992e-31
  outer loop
    vertex 73.99999999999999 1.5999999999999859 2.399999999999993
    vertex 0.0 1.5999999999999892 3.599999999999985
    vertex 0.0 1.5999999999999892 2.399999999999987
  endloop
endfacet
facet normal -4.825992901959785e-17 -1.0 -2.040982345632992e-31
  outer loop
    vertex 0.0 1.5999999999999892 3.599999999999985
    vertex 73.99999999999999 1.5999999999999859 2.399999999999993
    vertex 73.99999999999999 1.5999999999999859 3.5999999999999908
  endloop
endfacet
facet normal 0.9914448613738104 -0.1305261922200518 3.723396339010056e-17
  outer loop
    vertex 75.99999999999999 3.600000000000008 2.399999999999993
    vertex 75.93185165257812 3.082361909794967 3.5999999999999908
    vertex 75.93185165257812 3.082361909794967 2.399999999999993
  endloop
endfacet
facet normal 0.9914448613738104 -0.1305261922200518 3.723396339010056e-17
  outer loop
    vertex 75.93185165257812 3.082361909794967 3.5999999999999908
    vertex 75.99999999999999 3.600000000000008 2.399999999999993
    vertex 75.99999999999999 3.600000000000008 3.5999999999999908
  endloop
endfacet
facet normal 0.7933533402912388 -0.6087614290087162 2.905814857575228e-17
  outer loop
    vertex 75.73205080756885 2.600000000000009 2.399999999999993
    vertex 75.41421356237308 2.1857864376269123 3.5999999999999908
    vertex 75.41421356237308 2.1857864376269123 2.399999999999993
  endloop
endfacet
facet normal 0.7933533402912388 -0.6087614290087162 2.905814857575228e-17
  outer loop
    vertex 75.41421356237308 2.1857864376269123 3.5999999999999908
    vertex 75.73205080756885 2.600000000000009 2.399999999999993
    vertex 75.73205080756885 2.600000000000009 3.5999999999999908
  endloop
endfacet
facet normal 0.13052619222007478 0.9914448613738074 6.374819207310293e-18
  outer loop
    vertex 73.99999999999999 59.59999999999998 3.5999999999999908
    vertex 74.51763809020503 59.531851652578105 2.399999999999993
    vertex 73.99999999999999 59.59999999999998 2.399999999999993
  endloop
endfacet
facet normal 0.13052619222007478 0.9914448613738074 6.374819207310293e-18
  outer loop
    vertex 74.51763809020503 59.531851652578105 2.399999999999993
    vertex 73.99999999999999 59.59999999999998 3.5999999999999908
    vertex 74.51763809020503 59.531851652578105 3.5999999999999908
  endloop
endfacet
facet normal 0.6087614290087305 -0.7933533402912275 2.1820710113265405e-17
  outer loop
    vertex 75.41421356237308 2.1857864376269123 3.5999999999999908
    vertex 74.99999999999999 1.8679491924311264 2.399999999999993
    vertex 75.41421356237308 2.1857864376269123 2.399999999999993
  endloop
endfacet
facet normal 0.6087614290087305 -0.7933533402912275 2.1820710113265405e-17
  outer loop
    vertex 74.99999999999999 1.8679491924311264 2.399999999999993
    vertex 75.41421356237308 2.1857864376269123 3.5999999999999908
    vertex 74.99999999999999 1.8679491924311264 3.5999999999999908
  endloop
endfacet
facet normal 0.6087614290087128 0.7933533402912413 2.413773707311293e-17
  outer loop
    vertex 74.99999999999997 59.332050807568855 3.5999999999999908
    vertex 75.41421356237308 59.01421356237307 2.399999999999993
    vertex 74.99999999999997 59.332050807568855 2.399999999999993
  endloop
endfacet
facet normal 0.6087614290087128 0.7933533402912413 2.413773707311293e-17
  outer loop
    vertex 75.41421356237308 59.01421356237307 2.399999999999993
    vertex 74.99999999999997 59.332050807568855 3.5999999999999908
    vertex 75.41421356237308 59.01421356237307 3.5999999999999908
  endloop
endfacet
facet normal 0.9238795325112884 0.38268343236508595 3.5432967783061614e-17
  outer loop
    vertex 75.73205080756885 58.59999999999997 2.399999999999993
    vertex 75.9318516525781 58.11763809020502 3.5999999999999908
    vertex 75.9318516525781 58.11763809020502 2.399999999999993
  endloop
endfacet
facet normal 0.9238795325112884 0.38268343236508595 3.5432967783061614e-17
  outer loop
    vertex 75.9318516525781 58.11763809020502 3.5999999999999908
    vertex 75.73205080756885 58.59999999999997 2.399999999999993
    vertex 75.73205080756885 58.59999999999997 3.5999999999999908
  endloop
endfacet
facet normal 0.9914448613738103 0.13052619222005354 3.7615171473536836e-17
  outer loop
    vertex 75.9318516525781 58.11763809020502 2.399999999999993
    vertex 75.99999999999997 57.59999999999999 3.5999999999999908
    vertex 75.99999999999997 57.59999999999999 2.399999999999993
  endloop
endfacet
facet normal 0.9914448613738103 0.13052619222005354 3.7615171473536836e-17
  outer loop
    vertex 75.99999999999997 57.59999999999999 3.5999999999999908
    vertex 75.9318516525781 58.11763809020502 2.399999999999993
    vertex 75.9318516525781 58.11763809020502 3.5999999999999908
  endloop
endfacet
facet normal 0.9238795325112824 -0.38268343236510066 3.4315322233662593e-17
  outer loop
    vertex 75.93185165257812 3.082361909794967 2.399999999999993
    vertex 75.73205080756885 2.600000000000009 3.5999999999999908
    vertex 75.73205080756885 2.600000000000009 2.399999999999993
  endloop
endfacet
facet normal 0.9238795325112824 -0.38268343236510066 3.4315322233662593e-17
  outer loop
    vertex 75.73205080756885 2.600000000000009 3.5999999999999908
    vertex 75.93185165257812 3.082361909794967 2.399999999999993
    vertex 75.93185165257812 3.082361909794967 3.5999999999999908
  endloop
endfacet
facet normal 0.0 1.0 0.0
  outer loop
    vertex 3.1724622928663847e-15 47.69999999999998 6.099999999999977
    vertex 1.5999999999999979 47.69999999999998 3.5999999999999823
    vertex 3.1724622928663847e-15 47.69999999999998 3.5999999999999823
  endloop
endfacet
facet normal 0.0 1.0 0.0
  outer loop
    vertex 1.5999999999999979 47.69999999999998 3.5999999999999823
    vertex 3.1724622928663847e-15 47.69999999999998 6.099999999999977
    vertex 1.5999999999999979 47.69999999999998 6.099999999999977
  endloop
endfacet
facet normal 0.0 -1.0 0.0
  outer loop
    vertex 1.5999999999999963 35.49999999999998 6.09999999999998
    vertex 1.4099832412739487e-15 35.49999999999998 3.599999999999985
    vertex 1.5999999999999963 35.49999999999998 3.599999999999985
  endloop
endfacet
facet normal 0.0 -1.0 0.0
  outer loop
    vertex 1.4099832412739487e-15 35.49999999999998 3.599999999999985
    vertex 1.5999999999999963 35.49999999999998 6.09999999999998
    vertex 1.4099832412739487e-15 35.49999999999998 6.09999999999998
  endloop
endfacet
endsolid tft
