solid tft
facet normal -8.16027731464836e-17 1.652946170043156e-15 -1.0
  outer loop
    vertex 73.99999999999991 0.0 -1.142570353881698e-14
    vertex -2.255973186038318e-14 5.600000000000003 9.92349401964608e-16
    vertex 73.99999999999993 5.600000000000001 5.6399329650957925e-15
  endloop
endfacet
facet normal -8.16027731464836e-17 1.652946170043156e-15 -1.0
  outer loop
    vertex -2.255973186038318e-14 5.600000000000003 9.92349401964608e-16
    vertex 73.99999999999991 0.0 -1.142570353881698e-14
    vertex -2.255973186038318e-14 2.114974861910923e-15 8.46511793339223e-16
  endloop
endfacet
facet normal 5.49614901457556e-15 -1.0163295975441557e-13 1.0
  outer loop
    vertex -3.3839597790574766e-14 5.600000000000002 30.199999999999985
    vertex 73.9999999999999 1.6000000000009438 30.19999999999917
    vertex 73.99999999999993 5.6000000000000005 30.199999999999985
  endloop
endfacet
facet normal 5.49614901457556e-15 -1.0163295975441557e-13 1.0
  outer loop
    vertex 73.9999999999999 1.6000000000009438 30.19999999999917
    vertex -3.3839597790574766e-14 5.600000000000002 30.199999999999985
    vertex -4.511946372076636e-14 1.5999999999999985 30.199999999999985
  endloop
endfacet
facet normal 1.0 -2.3524029552374566e-15 3.4956430305652324e-17
  outer loop
    vertex 73.9999999999999 1.6000000000009438 30.19999999999917
    vertex 73.99999999999993 5.6000000000000005 28.19999999999998
    vertex 73.99999999999993 5.6000000000000005 30.199999999999985
  endloop
endfacet
facet normal 1.0 -2.3524029552374566e-15 3.4956430305652324e-17
  outer loop
    vertex 73.99999999999993 5.6000000000000005 28.19999999999998
    vertex 73.9999999999999 1.6000000000009438 30.19999999999917
    vertex 73.99999999999994 1.5999999999999963 28.19999999999998
  endloop
endfacet
facet normal 1.0 -2.3524029552374566e-15 3.4956430305652324e-17
  outer loop
    vertex 73.99999999999994 1.5999999999999963 28.19999999999998
    vertex 73.9999999999999 1.6000000000009438 30.19999999999917
    vertex 73.99999999999991 1.282303271568759 30.078145758231308
  endloop
endfacet
facet normal 1.0 -2.3524029552374566e-15 3.4956430305652324e-17
  outer loop
    vertex 73.99999999999994 1.5999999999999963 28.19999999999998
    vertex 73.99999999999991 1.282303271568759 30.078145758231308
    vertex 73.99999999999993 1.599999999999997 2.0000000000000018
  endloop
endfacet
facet normal 1.0 -2.3524029552374566e-15 3.4956430305652324e-17
  outer loop
    vertex 73.99999999999993 1.599999999999997 2.0000000000000018
    vertex 73.99999999999993 5.600000000000001 5.6399329650957925e-15
    vertex 73.99999999999993 5.600000000000001 2.0000000000000018
  endloop
endfacet
facet normal 1.0 -2.3524029552374566e-15 3.4956430305652324e-17
  outer loop
    vertex 73.99999999999993 5.600000000000001 5.6399329650957925e-15
    vertex 73.99999999999993 1.599999999999997 2.0000000000000018
    vertex 73.99999999999991 0.0 -1.142570353881698e-14
  endloop
endfacet
facet normal 1.0 -2.3524029552374566e-15 3.4956430305652324e-17
  outer loop
    vertex 73.99999999999991 0.0 -1.142570353881698e-14
    vertex 73.99999999999993 1.599999999999997 2.0000000000000018
    vertex 73.99999999999991 1.282303271568759 30.078145758231308
  endloop
endfacet
facet normal 1.0 -2.3524029552374566e-15 3.4956430305652324e-17
  outer loop
    vertex 73.99999999999991 0.0 -1.142570353881698e-14
    vertex 73.99999999999991 1.282303271568759 30.078145758231308
    vertex 73.99999999999991 0.9866144918074684 29.90977767035058
  endloop
endfacet
facet normal 1.0 -2.3524029552374566e-15 3.4956430305652324e-17
  outer loop
    vertex 73.99999999999991 0.0 -1.142570353881698e-14
    vertex 73.99999999999991 0.9866144918074684 29.90977767035058
    vertex 73.99999999999991 0.719696080194061 29.69874632425452
  endloop
endfacet
facet normal 1.0 -2.3524029552374566e-15 3.4956430305652324e-17
  outer loop
    vertex 73.99999999999991 0.0 -1.142570353881698e-14
    vertex 73.99999999999991 0.719696080194061 29.69874632425452
    vertex 73.99999999999991 0.4876524762237391 29.44987801902101
  endloop
endfacet
facet normal 1.0 -2.3524029552374566e-15 3.4956430305652324e-17
  outer loop
    vertex 73.99999999999991 0.0 -1.142570353881698e-14
    vertex 73.99999999999991 0.4876524762237391 29.44987801902101
    vertex 73.99999999999993 0.2957905305259729 29.16886438716945
  endloop
endfacet
facet normal 1.0 -2.3524029552374566e-15 3.4956430305652324e-17
  outer loop
    vertex 73.99999999999991 0.0 -1.142570353881698e-14
    vertex 73.99999999999993 0.2957905305259729 29.16886438716945
    vertex 73.99999999999991 0.1484981368839665 28.862132226696268
  endloop
endfacet
facet normal 1.0 -2.3524029552374566e-15 3.4956430305652324e-17
  outer loop
    vertex 73.99999999999991 0.0 -1.142570353881698e-14
    vertex 73.99999999999991 0.1484981368839665 28.862132226696268
    vertex 73.99999999999991 0.049143880850357036 28.536696519833388
  endloop
endfacet
facet normal 1.0 -2.3524029552374566e-15 3.4956430305652324e-17
  outer loop
    vertex 73.99999999999991 0.0 -1.142570353881698e-14
    vertex 73.99999999999991 0.049143880850357036 28.536696519833388
    vertex 73.99999999999991 9.468037465154565e-13 28.19999999999929
  endloop
endfacet
facet normal -2.9711693269880675e-17 -2.6042430111676043e-17 1.0
  outer loop
    vertex -2.255973186038318e-14 5.600000000000003 2.0
    vertex 73.99999999999993 1.599999999999997 2.0000000000000018
    vertex 73.99999999999993 5.600000000000001 2.0000000000000018
  endloop
endfacet
facet normal -2.9711693269880675e-17 -2.6042430111676043e-17 1.0
  outer loop
    vertex 73.99999999999993 1.599999999999997 2.0000000000000018
    vertex -2.255973186038318e-14 5.600000000000003 2.0
    vertex -2.255973186038318e-14 1.5999999999999992 2.0
  endloop
endfacet
facet normal 6.372120127723687e-15 -1.0 1.677375789145021e-14
  outer loop
    vertex 73.99999999999991 9.468037465154565e-13 28.19999999999929
    vertex -2.255973186038318e-14 2.114974861910923e-15 8.46511793339223e-16
    vertex 73.99999999999991 0.0 -1.142570353881698e-14
  endloop
endfacet
facet normal 6.372120127723687e-15 -1.0 1.677375789145021e-14
  outer loop
    vertex -2.255973186038318e-14 2.114974861910923e-15 8.46511793339223e-16
    vertex 73.99999999999991 9.468037465154565e-13 28.19999999999929
    vertex -4.511946372076636e-14 1.4099832412739487e-15 28.200000000000102
  endloop
endfacet
facet normal 4.8957751433123233e-17 1.0 2.604243011167623e-17
  outer loop
    vertex -3.3839597790574766e-14 5.600000000000002 28.19999999999998
    vertex 73.99999999999993 5.6000000000000005 30.199999999999985
    vertex 73.99999999999993 5.6000000000000005 28.19999999999998
  endloop
endfacet
facet normal 4.8957751433123233e-17 1.0 2.604243011167623e-17
  outer loop
    vertex 73.99999999999993 5.6000000000000005 30.199999999999985
    vertex -3.3839597790574766e-14 5.600000000000002 28.19999999999998
    vertex -3.3839597790574766e-14 5.600000000000002 30.199999999999985
  endloop
endfacet
facet normal 2.507359050253223e-17 -6.208152246794598e-17 -1.0
  outer loop
    vertex -2.255973186038318e-14 1.5999999999999985 28.19999999999998
    vertex 73.99999999999993 5.6000000000000005 28.19999999999998
    vertex 73.99999999999994 1.5999999999999963 28.19999999999998
  endloop
endfacet
facet normal 2.507359050253223e-17 -6.208152246794598e-17 -1.0
  outer loop
    vertex 73.99999999999993 5.6000000000000005 28.19999999999998
    vertex -2.255973186038318e-14 1.5999999999999985 28.19999999999998
    vertex -3.3839597790574766e-14 5.600000000000002 28.19999999999998
  endloop
endfacet
facet normal -1.0 -4.740108842594127e-16 -1.343431796903401e-16
  outer loop
    vertex -2.255973186038318e-14 2.114974861910923e-15 8.46511793339223e-16
    vertex -2.255973186038318e-14 5.600000000000003 2.0
    vertex -2.255973186038318e-14 5.600000000000003 9.92349401964608e-16
  endloop
endfacet
facet normal -1.0 -4.740108842594127e-16 -1.343431796903401e-16
  outer loop
    vertex -2.255973186038318e-14 5.600000000000003 2.0
    vertex -2.255973186038318e-14 2.114974861910923e-15 8.46511793339223e-16
    vertex -2.255973186038318e-14 1.5999999999999992 2.0
  endloop
endfacet
facet normal -1.0 -4.740108842594127e-16 -1.343431796903401e-16
  outer loop
    vertex -2.255973186038318e-14 1.5999999999999992 2.0
    vertex -2.255973186038318e-14 2.114974861910923e-15 8.46511793339223e-16
    vertex -2.255973186038318e-14 1.5999999999999985 28.19999999999998
  endloop
endfacet
facet normal -1.0 -4.740108842594127e-16 -1.343431796903401e-16
  outer loop
    vertex -2.255973186038318e-14 1.5999999999999985 28.19999999999998
    vertex -2.255973186038318e-14 2.114974861910923e-15 8.46511793339223e-16
    vertex -4.511946372076636e-14 1.5999999999999985 30.199999999999985
  endloop
endfacet
facet normal -1.0 -4.740108842594127e-16 -1.343431796903401e-16
  outer loop
    vertex -4.511946372076636e-14 1.5999999999999985 30.199999999999985
    vertex -2.255973186038318e-14 2.114974861910923e-15 8.46511793339223e-16
    vertex -3.3839597790574766e-14 1.2823032715678135 30.07814575823212
  endloop
endfacet
facet normal -1.0 -4.740108842594127e-16 -1.343431796903401e-16
  outer loop
    vertex -3.3839597790574766e-14 1.2823032715678135 30.07814575823212
    vertex -2.255973186038318e-14 2.114974861910923e-15 8.46511793339223e-16
    vertex -2.255973186038318e-14 0.986614491806523 29.909777670351392
  endloop
endfacet
facet normal -1.0 -4.740108842594127e-16 -1.343431796903401e-16
  outer loop
    vertex -2.255973186038318e-14 0.986614491806523 29.909777670351392
    vertex -2.255973186038318e-14 2.114974861910923e-15 8.46511793339223e-16
    vertex -2.255973186038318e-14 0.7196960801931156 29.698746324255335
  endloop
endfacet
facet normal -1.0 -4.740108842594127e-16 -1.343431796903401e-16
  outer loop
    vertex -2.255973186038318e-14 0.7196960801931156 29.698746324255335
    vertex -2.255973186038318e-14 2.114974861910923e-15 8.46511793339223e-16
    vertex -2.255973186038318e-14 0.48765247622279373 29.449878019021817
  endloop
endfacet
facet normal -1.0 -4.740108842594127e-16 -1.343431796903401e-16
  outer loop
    vertex -2.255973186038318e-14 0.48765247622279373 29.449878019021817
    vertex -2.255973186038318e-14 2.114974861910923e-15 8.46511793339223e-16
    vertex -2.255973186038318e-14 0.29579053052502746 29.16886438717026
  endloop
endfacet
facet normal -1.0 -4.740108842594127e-16 -1.343431796903401e-16
  outer loop
    vertex -2.255973186038318e-14 0.29579053052502746 29.16886438717026
    vertex -2.255973186038318e-14 2.114974861910923e-15 8.46511793339223e-16
    vertex -3.3839597790574766e-14 0.1484981368830211 28.862132226697078
  endloop
endfacet
facet normal -1.0 -4.740108842594127e-16 -1.343431796903401e-16
  outer loop
    vertex -3.3839597790574766e-14 0.1484981368830211 28.862132226697078
    vertex -2.255973186038318e-14 2.114974861910923e-15 8.46511793339223e-16
    vertex -3.3839597790574766e-14 0.049143880849411646 28.5366965198342
  endloop
endfacet
facet normal -1.0 -4.740108842594127e-16 -1.343431796903401e-16
  outer loop
    vertex -3.3839597790574766e-14 0.049143880849411646 28.5366965198342
    vertex -2.255973186038318e-14 2.114974861910923e-15 8.46511793339223e-16
    vertex -4.511946372076636e-14 1.4099832412739487e-15 28.200000000000102
  endloop
endfacet
facet normal -1.0 -4.740108842594127e-16 -1.343431796903401e-16
  outer loop
    vertex -2.255973186038318e-14 1.5999999999999985 28.19999999999998
    vertex -3.3839597790574766e-14 5.600000000000002 30.199999999999985
    vertex -3.3839597790574766e-14 5.600000000000002 28.19999999999998
  endloop
endfacet
facet normal -1.0 -4.740108842594127e-16 -1.343431796903401e-16
  outer loop
    vertex -3.3839597790574766e-14 5.600000000000002 30.199999999999985
    vertex -2.255973186038318e-14 1.5999999999999985 28.19999999999998
    vertex -4.511946372076636e-14 1.5999999999999985 30.199999999999985
  endloop
endfacet
facet normal 2.5954608640417252e-17 1.0 2.6042430111676028e-17
  outer loop
    vertex -2.255973186038318e-14 1.5999999999999992 2.0
    vertex 73.99999999999994 1.5999999999999963 28.19999999999998
    vertex 73.99999999999993 1.599999999999997 2.0000000000000018
  endloop
endfacet
facet normal 2.5954608640417252e-17 1.0 2.6042430111676028e-17
  outer loop
    vertex 73.99999999999994 1.5999999999999963 28.19999999999998
    vertex -2.255973186038318e-14 1.5999999999999992 2.0
    vertex -2.255973186038318e-14 1.5999999999999985 28.19999999999998
  endloop
endfacet
facet normal 4.8957751433123233e-17 1.0 2.604243011167623e-17
  outer loop
    vertex -2.255973186038318e-14 5.600000000000003 9.92349401964608e-16
    vertex 73.99999999999993 5.600000000000001 2.0000000000000018
    vertex 73.99999999999993 5.600000000000001 5.6399329650957925e-15
  endloop
endfacet
facet normal 4.8957751433123233e-17 1.0 2.604243011167623e-17
  outer loop
    vertex 73.99999999999993 5.600000000000001 2.0000000000000018
    vertex -2.255973186038318e-14 5.600000000000003 9.92349401964608e-16
    vertex -2.255973186038318e-14 5.600000000000003 2.0
  endloop
endfacet
facet normal 1.581068570695181e-14 -0.4948158821204838 0.8689978382029081
  outer loop
    vertex 73.99999999999991 1.282303271568759 30.078145758231308
    vertex -2.255973186038318e-14 0.986614491806523 29.909777670351392
    vertex 73.99999999999991 0.9866144918074684 29.90977767035058
  endloop
endfacet
facet normal 1.581068570695181e-14 -0.4948158821204838 0.8689978382029081
  outer loop
    vertex -2.255973186038318e-14 0.986614491806523 29.909777670351392
    vertex 73.99999999999991 1.282303271568759 30.078145758231308
    vertex -3.3839597790574766e-14 1.2823032715678135 30.07814575823212
  endloop
endfacet
facet normal 1.4825381188743816e-14 -0.3581166412794322 0.9336768558975522
  outer loop
    vertex 73.9999999999999 1.6000000000009438 30.19999999999917
    vertex -3.3839597790574766e-14 1.2823032715678135 30.07814575823212
    vertex 73.99999999999991 1.282303271568759 30.078145758231308
  endloop
endfacet
facet normal 1.4825381188743816e-14 -0.3581166412794322 0.9336768558975522
  outer loop
    vertex -3.3839597790574766e-14 1.2823032715678135 30.07814575823212
    vertex 73.9999999999999 1.6000000000009438 30.19999999999917
    vertex -4.511946372076636e-14 1.5999999999999985 30.199999999999985
  endloop
endfacet
facet normal 1.647975266565694e-14 -0.6201986551487214 0.7844447897409462
  outer loop
    vertex -2.255973186038318e-14 0.986614491806523 29.909777670351392
    vertex 73.99999999999991 0.719696080194061 29.69874632425452
    vertex 73.99999999999991 0.9866144918074684 29.90977767035058
  endloop
endfacet
facet normal 1.647975266565694e-14 -0.6201986551487214 0.7844447897409462
  outer loop
    vertex 73.99999999999991 0.719696080194061 29.69874632425452
    vertex -2.255973186038318e-14 0.986614491806523 29.909777670351392
    vertex -2.255973186038318e-14 0.7196960801931156 29.698746324255335
  endloop
endfacet
facet normal 1.668052585854717e-14 -0.8258691411344501 0.5638618285731404
  outer loop
    vertex 73.99999999999991 0.4876524762237391 29.44987801902101
    vertex -2.255973186038318e-14 0.29579053052502746 29.16886438717026
    vertex 73.99999999999993 0.2957905305259729 29.16886438716945
  endloop
endfacet
facet normal 1.668052585854717e-14 -0.8258691411344501 0.5638618285731404
  outer loop
    vertex -2.255973186038318e-14 0.29579053052502746 29.16886438717026
    vertex 73.99999999999991 0.4876524762237391 29.44987801902101
    vertex -2.255973186038318e-14 0.48765247622279373 29.449878019021817
  endloop
endfacet
facet normal 1.677192672875671e-14 -0.7313974491008269 0.681951443615162
  outer loop
    vertex 73.99999999999991 0.719696080194061 29.69874632425452
    vertex -2.255973186038318e-14 0.48765247622279373 29.449878019021817
    vertex 73.99999999999991 0.4876524762237391 29.44987801902101
  endloop
endfacet
facet normal 1.677192672875671e-14 -0.7313974491008269 0.681951443615162
  outer loop
    vertex -2.255973186038318e-14 0.48765247622279373 29.449878019021817
    vertex 73.99999999999991 0.719696080194061 29.69874632425452
    vertex -2.255973186038318e-14 0.7196960801931156 29.698746324255335
  endloop
endfacet
facet normal 1.422595636959613e-14 -0.9895152196930871 0.1444286328805404
  outer loop
    vertex 73.99999999999991 0.049143880850357036 28.536696519833388
    vertex -4.511946372076636e-14 1.4099832412739487e-15 28.200000000000102
    vertex 73.99999999999991 9.468037465154565e-13 28.19999999999929
  endloop
endfacet
facet normal 1.422595636959613e-14 -0.9895152196930871 0.1444286328805404
  outer loop
    vertex -4.511946372076636e-14 1.4099832412739487e-15 28.200000000000102
    vertex 73.99999999999991 0.049143880850357036 28.536696519833388
    vertex -3.3839597790574766e-14 0.049143880849411646 28.5366965198342
  endloop
endfacet
facet normal 1.5364085265547144e-14 -0.9564208894439108 0.2919915790486408
  outer loop
    vertex 73.99999999999991 0.1484981368839665 28.862132226696268
    vertex -3.3839597790574766e-14 0.049143880849411646 28.5366965198342
    vertex 73.99999999999991 0.049143880850357036 28.536696519833388
  endloop
endfacet
facet normal 1.5364085265547144e-14 -0.9564208894439108 0.2919915790486408
  outer loop
    vertex -3.3839597790574766e-14 0.049143880849411646 28.5366965198342
    vertex 73.99999999999991 0.1484981368839665 28.862132226696268
    vertex -3.3839597790574766e-14 0.1484981368830211 28.862132226697078
  endloop
endfacet
facet normal 1.6207640398210867e-14 -0.9014531581945181 0.4328766609337229
  outer loop
    vertex 73.99999999999993 0.2957905305259729 29.16886438716945
    vertex -3.3839597790574766e-14 0.1484981368830211 28.862132226697078
    vertex 73.99999999999991 0.1484981368839665 28.862132226696268
  endloop
endfacet
facet normal 1.6207640398210867e-14 -0.9014531581945181 0.4328766609337229
  outer loop
    vertex -3.3839597790574766e-14 0.1484981368830211 28.862132226697078
    vertex 73.99999999999993 0.2957905305259729 29.16886438716945
    vertex -2.255973186038318e-14 0.29579053052502746 29.16886438717026
  endloop
endfacet
endsolid tft
