solid tft
facet normal -1.076179019819107e-16 -1.302121505583804e-17 1.0
  outer loop
    vertex 0.0 1.599999999999989 27.799999999999972
    vertex 7.4 12.599999999999985 27.799999999999983
    vertex 4.229949723821846e-15 57.59999999999999 27.79999999999996
  endloop
endfacet
facet normal -1.076179019819107e-16 -1.302121505583804e-17 1.0
  outer loop
    vertex 7.4 12.599999999999985 27.799999999999983
    vertex 0.0 1.599999999999989 27.799999999999972
    vertex 73.99999999999999 1.5999999999999859 27.799999999999983
  endloop
endfacet
facet normal -1.076179019819107e-16 -1.302121505583804e-17 1.0
  outer loop
    vertex 4.229949723821846e-15 57.59999999999999 27.79999999999996
    vertex 7.4 12.599999999999985 27.799999999999983
    vertex 4.229949723821846e-15 59.59999999999998 27.799999999999972
  endloop
endfacet
facet normal -1.076179019819107e-16 -1.302121505583804e-17 1.0
  outer loop
    vertex 4.229949723821846e-15 59.59999999999998 27.799999999999972
    vertex 7.4 12.599999999999985 27.799999999999983
    vertex 2.0000000000000004 59.59999999999998 27.799999999999983
  endloop
endfacet
facet normal -1.076179019819107e-16 -1.302121505583804e-17 1.0
  outer loop
    vertex 7.4 12.599999999999985 27.799999999999983
    vertex 73.99999999999999 1.5999999999999859 27.799999999999983
    vertex 35.99999999999999 12.599999999999985 27.799999999999983
  endloop
endfacet
facet normal -1.076179019819107e-16 -1.302121505583804e-17 1.0
  outer loop
    vertex 35.99999999999999 12.599999999999985 27.799999999999983
    vertex 73.99999999999999 1.5999999999999859 27.799999999999983
    vertex 35.99999999999999 41.59999999999999 27.799999999999983
  endloop
endfacet
facet normal -1.076179019819107e-16 -1.302121505583804e-17 1.0
  outer loop
    vertex 35.99999999999999 41.59999999999999 27.799999999999983
    vertex 73.99999999999999 1.5999999999999859 27.799999999999983
    vertex 55.535898384862236 39.59999999999999 27.799999999999983
  endloop
endfacet
facet normal -1.076179019819107e-16 -1.302121505583804e-17 1.0
  outer loop
    vertex 35.99999999999999 41.59999999999999 27.799999999999983
    vertex 55.535898384862236 39.59999999999999 27.799999999999983
    vertex 55.136296694843715 40.564723819589915 27.799999999999983
  endloop
endfacet
facet normal -1.076179019819107e-16 -1.302121505583804e-17 1.0
  outer loop
    vertex 35.99999999999999 41.59999999999999 27.799999999999983
    vertex 55.136296694843715 40.564723819589915 27.799999999999983
    vertex 54.99999999999999 41.599999999999994 27.799999999999983
  endloop
endfacet
facet normal -1.076179019819107e-16 -1.302121505583804e-17 1.0
  outer loop
    vertex 55.535898384862236 39.59999999999999 27.799999999999983
    vertex 73.99999999999999 1.5999999999999859 27.799999999999983
    vertex 56.171572875253794 38.7715728752538 27.799999999999983
  endloop
endfacet
facet normal -1.076179019819107e-16 -1.302121505583804e-17 1.0
  outer loop
    vertex 56.171572875253794 38.7715728752538 27.799999999999983
    vertex 73.99999999999999 1.5999999999999859 27.799999999999983
    vertex 56.999999999999986 38.13589838486224 27.799999999999983
  endloop
endfacet
facet normal -1.076179019819107e-16 -1.302121505583804e-17 1.0
  outer loop
    vertex 56.999999999999986 38.13589838486224 27.799999999999983
    vertex 73.99999999999999 1.5999999999999859 27.799999999999983
    vertex 57.9647238195899 37.736296694843716 27.799999999999983
  endloop
endfacet
facet normal -1.076179019819107e-16 -1.302121505583804e-17 1.0
  outer loop
    vertex 57.9647238195899 37.736296694843716 27.799999999999983
    vertex 73.99999999999999 1.5999999999999859 27.799999999999983
    vertex 58.99999999999999 37.59999999999999 27.799999999999983
  endloop
endfacet
facet normal -1.076179019819107e-16 -1.302121505583804e-17 1.0
  outer loop
    vertex 58.99999999999999 37.59999999999999 27.799999999999983
    vertex 73.99999999999999 1.5999999999999859 27.799999999999983
    vertex 60.03527618041007 37.736296694843716 27.799999999999983
  endloop
endfacet
facet normal -1.076179019819107e-16 -1.302121505583804e-17 1.0
  outer loop
    vertex 60.03527618041007 37.736296694843716 27.799999999999983
    vertex 73.99999999999999 1.5999999999999859 27.799999999999983
    vertex 60.99999999999999 38.13589838486223 27.799999999999983
  endloop
endfacet
facet normal -1.076179019819107e-16 -1.302121505583804e-17 1.0
  outer loop
    vertex 60.99999999999999 38.13589838486223 27.799999999999983
    vertex 73.99999999999999 1.5999999999999859 27.799999999999983
    vertex 61.82842712474619 38.7715728752538 27.799999999999983
  endloop
endfacet
facet normal -1.076179019819107e-16 -1.302121505583804e-17 1.0
  outer loop
    vertex 61.82842712474619 38.7715728752538 27.799999999999983
    vertex 73.99999999999999 1.5999999999999859 27.799999999999983
    vertex 62.46410161513775 39.59999999999999 27.799999999999983
  endloop
endfacet
facet normal -1.076179019819107e-16 -1.302121505583804e-17 1.0
  outer loop
    vertex 62.46410161513775 39.59999999999999 27.799999999999983
    vertex 73.99999999999999 1.5999999999999859 27.799999999999983
    vertex 62.86370330515627 40.56472381958991 27.799999999999983
  endloop
endfacet
facet normal -1.076179019819107e-16 -1.302121505583804e-17 1.0
  outer loop
    vertex 62.86370330515627 40.56472381958991 27.799999999999983
    vertex 73.99999999999999 1.5999999999999859 27.799999999999983
    vertex 63.0 41.599999999999994 27.799999999999983
  endloop
endfacet
facet normal -1.076179019819107e-16 -1.302121505583804e-17 1.0
  outer loop
    vertex 2.0000000000000004 59.59999999999998 27.799999999999983
    vertex 7.4 41.59999999999999 27.799999999999983
    vertex 73.99999999999999 59.59999999999998 27.799999999999983
  endloop
endfacet
facet normal -1.076179019819107e-16 -1.302121505583804e-17 1.0
  outer loop
    vertex 7.4 41.59999999999999 27.799999999999983
    vertex 2.0000000000000004 59.59999999999998 27.799999999999983
    vertex 7.4 12.599999999999985 27.799999999999983
  endloop
endfacet
facet normal -1.076179019819107e-16 -1.302121505583804e-17 1.0
  outer loop
    vertex 73.99999999999999 59.59999999999998 27.799999999999983
    vertex 7.4 41.59999999999999 27.799999999999983
    vertex 35.99999999999999 41.59999999999999 27.799999999999983
  endloop
endfacet
facet normal -1.076179019819107e-16 -1.302121505583804e-17 1.0
  outer loop
    vertex 73.99999999999999 59.59999999999998 27.799999999999983
    vertex 35.99999999999999 41.59999999999999 27.799999999999983
    vertex 56.171572875253794 44.428427124746186 27.799999999999983
  endloop
endfacet
facet normal -1.076179019819107e-16 -1.302121505583804e-17 1.0
  outer loop
    vertex 56.171572875253794 44.428427124746186 27.799999999999983
    vertex 35.99999999999999 41.59999999999999 27.799999999999983
    vertex 55.535898384862236 43.599999999999994 27.799999999999983
  endloop
endfacet
facet normal -1.076179019819107e-16 -1.302121505583804e-17 1.0
  outer loop
    vertex 55.535898384862236 43.599999999999994 27.799999999999983
    vertex 35.99999999999999 41.59999999999999 27.799999999999983
    vertex 55.136296694843715 42.635276180410074 27.799999999999983
  endloop
endfacet
facet normal -1.076179019819107e-16 -1.302121505583804e-17 1.0
  outer loop
    vertex 55.136296694843715 42.635276180410074 27.799999999999983
    vertex 35.99999999999999 41.59999999999999 27.799999999999983
    vertex 54.99999999999999 41.599999999999994 27.799999999999983
  endloop
endfacet
facet normal -1.076179019819107e-16 -1.302121505583804e-17 1.0
  outer loop
    vertex 73.99999999999999 59.59999999999998 27.799999999999983
    vertex 56.171572875253794 44.428427124746186 27.799999999999983
    vertex 57.0 45.06410161513775 27.799999999999983
  endloop
endfacet
facet normal -1.076179019819107e-16 -1.302121505583804e-17 1.0
  outer loop
    vertex 73.99999999999999 59.59999999999998 27.799999999999983
    vertex 57.0 45.06410161513775 27.799999999999983
    vertex 57.96472381958991 45.463703305156265 27.799999999999983
  endloop
endfacet
facet normal -1.076179019819107e-16 -1.302121505583804e-17 1.0
  outer loop
    vertex 73.99999999999999 59.59999999999998 27.799999999999983
    vertex 57.96472381958991 45.463703305156265 27.799999999999983
    vertex 58.99999999999999 45.599999999999994 27.799999999999983
  endloop
endfacet
facet normal -1.076179019819107e-16 -1.302121505583804e-17 1.0
  outer loop
    vertex 73.99999999999999 59.59999999999998 27.799999999999983
    vertex 58.99999999999999 45.599999999999994 27.799999999999983
    vertex 60.03527618041007 45.463703305156265 27.799999999999983
  endloop
endfacet
facet normal -1.076179019819107e-16 -1.302121505583804e-17 1.0
  outer loop
    vertex 73.99999999999999 59.59999999999998 27.799999999999983
    vertex 60.03527618041007 45.463703305156265 27.799999999999983
    vertex 61.0 45.06410161513775 27.799999999999983
  endloop
endfacet
facet normal -1.076179019819107e-16 -1.302121505583804e-17 1.0
  outer loop
    vertex 73.99999999999999 59.59999999999998 27.799999999999983
    vertex 61.0 45.06410161513775 27.799999999999983
    vertex 61.82842712474619 44.428427124746186 27.799999999999983
  endloop
endfacet
facet normal -1.076179019819107e-16 -1.302121505583804e-17 1.0
  outer loop
    vertex 73.99999999999999 59.59999999999998 27.799999999999983
    vertex 61.82842712474619 44.428427124746186 27.799999999999983
    vertex 62.46410161513775 43.599999999999994 27.799999999999983
  endloop
endfacet
facet normal -1.076179019819107e-16 -1.302121505583804e-17 1.0
  outer loop
    vertex 73.99999999999999 59.59999999999998 27.799999999999983
    vertex 62.46410161513775 43.599999999999994 27.799999999999983
    vertex 62.86370330515627 42.635276180410074 27.799999999999983
  endloop
endfacet
facet normal -1.076179019819107e-16 -1.302121505583804e-17 1.0
  outer loop
    vertex 73.99999999999999 59.59999999999998 27.799999999999983
    vertex 62.86370330515627 42.635276180410074 27.799999999999983
    vertex 63.0 41.599999999999994 27.799999999999983
  endloop
endfacet
facet normal -1.076179019819107e-16 -1.302121505583804e-17 1.0
  outer loop
    vertex 73.99999999999999 59.59999999999998 27.799999999999983
    vertex 63.0 41.599999999999994 27.799999999999983
    vertex 73.99999999999999 1.5999999999999859 27.799999999999983
  endloop
endfacet
facet normal -1.076179019819107e-16 -1.302121505583804e-17 1.0
  outer loop
    vertex 73.99999999999999 59.59999999999998 27.799999999999983
    vertex 73.99999999999999 1.5999999999999859 27.799999999999983
    vertex 74.51763809020504 1.6681483474218575 27.799999999999983
  endloop
endfacet
facet normal -1.076179019819107e-16 -1.302121505583804e-17 1.0
  outer loop
    vertex 73.99999999999999 59.59999999999998 27.799999999999983
    vertex 74.51763809020504 1.6681483474218575 27.799999999999983
    vertex 74.51763809020504 59.53185165257812 27.799999999999983
  endloop
endfacet
facet normal -1.076179019819107e-16 -1.302121505583804e-17 1.0
  outer loop
    vertex 74.51763809020504 59.53185165257812 27.799999999999983
    vertex 74.51763809020504 1.6681483474218575 27.799999999999983
    vertex 74.99999999999999 1.8679491924311225 27.799999999999983
  endloop
endfacet
facet normal -1.076179019819107e-16 -1.302121505583804e-17 1.0
  outer loop
    vertex 74.51763809020504 59.53185165257812 27.799999999999983
    vertex 74.99999999999999 1.8679491924311225 27.799999999999983
    vertex 74.99999999999999 59.33205080756886 27.799999999999983
  endloop
endfacet
facet normal -1.076179019819107e-16 -1.302121505583804e-17 1.0
  outer loop
    vertex 74.99999999999999 59.33205080756886 27.799999999999983
    vertex 74.99999999999999 1.8679491924311225 27.799999999999983
    vertex 75.41421356237308 2.1857864376269087 27.799999999999983
  endloop
endfacet
facet normal -1.076179019819107e-16 -1.302121505583804e-17 1.0
  outer loop
    vertex 74.99999999999999 59.33205080756886 27.799999999999983
    vertex 75.41421356237308 2.1857864376269087 27.799999999999983
    vertex 75.41421356237308 59.01421356237307 27.799999999999983
  endloop
endfacet
facet normal -1.076179019819107e-16 -1.302121505583804e-17 1.0
  outer loop
    vertex 75.41421356237308 59.01421356237307 27.799999999999983
    vertex 75.41421356237308 2.1857864376269087 27.799999999999983
    vertex 75.73205080756885 2.6000000000000063 27.799999999999983
  endloop
endfacet
facet normal -1.076179019819107e-16 -1.302121505583804e-17 1.0
  outer loop
    vertex 75.41421356237308 59.01421356237307 27.799999999999983
    vertex 75.73205080756885 2.6000000000000063 27.799999999999983
    vertex 75.73205080756887 58.59999999999998 27.799999999999983
  endloop
endfacet
facet normal -1.076179019819107e-16 -1.302121505583804e-17 1.0
  outer loop
    vertex 75.73205080756887 58.59999999999998 27.799999999999983
    vertex 75.73205080756885 2.6000000000000063 27.799999999999983
    vertex 75.93185165257812 3.082361909794966 27.799999999999983
  endloop
endfacet
facet normal -1.076179019819107e-16 -1.302121505583804e-17 1.0
  outer loop
    vertex 75.73205080756887 58.59999999999998 27.799999999999983
    vertex 75.93185165257812 3.082361909794966 27.799999999999983
    vertex 75.93185165257812 58.11763809020503 27.799999999999983
  endloop
endfacet
facet normal -1.076179019819107e-16 -1.302121505583804e-17 1.0
  outer loop
    vertex 75.93185165257812 58.11763809020503 27.799999999999983
    vertex 75.93185165257812 3.082361909794966 27.799999999999983
    vertex 75.99999999999999 3.600000000000009 27.799999999999983
  endloop
endfacet
facet normal -1.076179019819107e-16 -1.302121505583804e-17 1.0
  outer loop
    vertex 75.93185165257812 58.11763809020503 27.799999999999983
    vertex 75.99999999999999 3.600000000000009 27.799999999999983
    vertex 75.99999999999999 57.59999999999999 27.799999999999983
  endloop
endfacet
facet normal -1.0 5.677407468188769e-17 -7.622961857783667e-17
  outer loop
    vertex 0.0 1.599999999999989 27.799999999999972
    vertex 3.1724622928663847e-15 7.099999999999985 18.59999999999999
    vertex 2.8199664825478975e-15 1.5999999999999892 3.599999999999985
  endloop
endfacet
facet normal -1.0 5.677407468188769e-17 -7.622961857783667e-17
  outer loop
    vertex 3.1724622928663847e-15 7.099999999999985 18.59999999999999
    vertex 0.0 1.599999999999989 27.799999999999972
    vertex 4.229949723821846e-15 57.59999999999999 27.79999999999996
  endloop
endfacet
facet normal -1.0 5.677407468188769e-17 -7.622961857783667e-17
  outer loop
    vertex 2.8199664825478975e-15 1.5999999999999892 3.599999999999985
    vertex 3.1724622928663847e-15 7.099999999999985 18.59999999999999
    vertex 2.8199664825478975e-15 3.5999999999999854 3.5999999999999908
  endloop
endfacet
facet normal -1.0 5.677407468188769e-17 -7.622961857783667e-17
  outer loop
    vertex 3.1724622928663847e-15 7.099999999999985 18.59999999999999
    vertex 4.229949723821846e-15 57.59999999999999 27.79999999999996
    vertex 3.1724622928663847e-15 17.099999999999987 18.599999999999987
  endloop
endfacet
facet normal -1.0 5.677407468188769e-17 -7.622961857783667e-17
  outer loop
    vertex 3.1724622928663847e-15 17.099999999999987 18.599999999999987
    vertex 4.229949723821846e-15 57.59999999999999 27.79999999999996
    vertex 3.1724622928663847e-15 35.09999999999998 18.09999999999999
  endloop
endfacet
facet normal -1.0 5.677407468188769e-17 -7.622961857783667e-17
  outer loop
    vertex 3.1724622928663847e-15 17.099999999999987 18.599999999999987
    vertex 3.1724622928663847e-15 35.09999999999998 18.09999999999999
    vertex 3.1724622928663847e-15 17.099999999999987 7.09999999999999
  endloop
endfacet
facet normal -1.0 5.677407468188769e-17 -7.622961857783667e-17
  outer loop
    vertex 3.1724622928663847e-15 17.099999999999987 7.09999999999999
    vertex 3.1724622928663847e-15 35.09999999999998 18.09999999999999
    vertex 3.1724622928663847e-15 17.099999999999987 3.5999999999999877
  endloop
endfacet
facet normal -1.0 5.677407468188769e-17 -7.622961857783667e-17
  outer loop
    vertex 3.1724622928663847e-15 35.09999999999998 18.09999999999999
    vertex 4.229949723821846e-15 57.59999999999999 27.79999999999996
    vertex 3.1724622928663847e-15 48.09999999999998 18.099999999999987
  endloop
endfacet
facet normal -1.0 5.677407468188769e-17 -7.622961857783667e-17
  outer loop
    vertex 3.1724622928663847e-15 48.09999999999998 18.099999999999987
    vertex 4.229949723821846e-15 57.59999999999999 27.79999999999996
    vertex 3.1724622928663847e-15 48.09999999999998 7.09999999999999
  endloop
endfacet
facet normal -1.0 5.677407468188769e-17 -7.622961857783667e-17
  outer loop
    vertex 3.1724622928663847e-15 48.09999999999998 7.09999999999999
    vertex 4.229949723821846e-15 57.59999999999999 27.79999999999996
    vertex 4.93494134445882e-15 48.09999999999998 3.5999999999999823
  endloop
endfacet
facet normal -1.0 5.677407468188769e-17 -7.622961857783667e-17
  outer loop
    vertex 4.93494134445882e-15 48.09999999999998 3.5999999999999823
    vertex 4.229949723821846e-15 57.59999999999999 27.79999999999996
    vertex 7.402412016688231e-15 57.59999999999999 3.599999999999979
  endloop
endfacet
facet normal -1.0 5.677407468188769e-17 -7.622961857783667e-17
  outer loop
    vertex 7.402412016688231e-15 57.59999999999999 3.599999999999979
    vertex 4.229949723821846e-15 57.59999999999999 27.79999999999996
    vertex 4.229949723821846e-15 59.59999999999998 27.799999999999972
  endloop
endfacet
facet normal -1.0 5.677407468188769e-17 -7.622961857783667e-17
  outer loop
    vertex 7.402412016688231e-15 57.59999999999999 3.599999999999979
    vertex 4.229949723821846e-15 59.59999999999998 27.799999999999972
    vertex 7.402412016688231e-15 59.59999999999998 3.599999999999985
  endloop
endfacet
facet normal -1.0 5.677407468188769e-17 -7.622961857783667e-17
  outer loop
    vertex 3.1724622928663847e-15 35.09999999999998 18.09999999999999
    vertex 3.524958103184872e-15 35.09999999999998 3.599999999999985
    vertex 3.1724622928663847e-15 17.099999999999987 3.5999999999999877
  endloop
endfacet
facet normal -1.0 5.677407468188769e-17 -7.622961857783667e-17
  outer loop
    vertex 3.524958103184872e-15 35.09999999999998 3.599999999999985
    vertex 3.1724622928663847e-15 35.09999999999998 18.09999999999999
    vertex 3.1724622928663847e-15 35.09999999999998 7.09999999999999
  endloop
endfacet
facet normal -1.0 5.677407468188769e-17 -7.622961857783667e-17
  outer loop
    vertex 3.1724622928663847e-15 7.099999999999985 18.59999999999999
    vertex 2.8199664825478975e-15 7.099999999999985 3.5999999999999908
    vertex 2.8199664825478975e-15 3.5999999999999854 3.5999999999999908
  endloop
endfacet
facet normal -1.0 5.677407468188769e-17 -7.622961857783667e-17
  outer loop
    vertex 2.8199664825478975e-15 7.099999999999985 3.5999999999999908
    vertex 3.1724622928663847e-15 7.099999999999985 18.59999999999999
    vertex 3.1724622928663847e-15 7.099999999999985 7.09999999999999
  endloop
endfacet
facet normal 0.0 1.0 0.0
  outer loop
    vertex 4.229949723821846e-15 59.59999999999998 27.799999999999972
    vertex 2.0000000000000018 59.59999999999998 3.5999999999999908
    vertex 7.402412016688231e-15 59.59999999999998 3.599999999999985
  endloop
endfacet
facet normal 0.0 1.0 0.0
  outer loop
    vertex 2.0000000000000018 59.59999999999998 3.5999999999999908
    vertex 4.229949723821846e-15 59.59999999999998 27.799999999999972
    vertex 73.99999999999999 59.59999999999998 3.5999999999999908
  endloop
endfacet
facet normal 0.0 1.0 0.0
  outer loop
    vertex 73.99999999999999 59.59999999999998 3.5999999999999908
    vertex 4.229949723821846e-15 59.59999999999998 27.799999999999972
    vertex 73.99999999999999 59.59999999999998 27.799999999999983
  endloop
endfacet
facet normal 0.0 1.0 0.0
  outer loop
    vertex 73.99999999999999 59.59999999999998 27.799999999999983
    vertex 4.229949723821846e-15 59.59999999999998 27.799999999999972
    vertex 2.0000000000000004 59.59999999999998 27.799999999999983
  endloop
endfacet
facet normal -0.7933533402912372 -0.6087614290087179 -0.0
  outer loop
    vertex 61.82842712474619 44.428427124746186 27.799999999999983
    vertex 62.46410161513775 43.599999999999994 26.59999999999998
    vertex 62.46410161513775 43.599999999999994 27.799999999999983
  endloop
endfacet
facet normal -0.7933533402912372 -0.6087614290087179 -0.0
  outer loop
    vertex 62.46410161513775 43.599999999999994 26.59999999999998
    vertex 61.82842712474619 44.428427124746186 27.799999999999983
    vertex 61.82842712474619 44.428427124746186 26.59999999999998
  endloop
endfacet
facet normal 0.9238795325112827 -0.38268343236509966 7.359623970764419e-17
  outer loop
    vertex 75.73205080756885 2.6000000000000068 3.5999999999999908
    vertex 75.93185165257812 3.082361909794966 27.799999999999983
    vertex 75.73205080756885 2.6000000000000063 27.799999999999983
  endloop
endfacet
facet normal 0.9238795325112827 -0.38268343236509966 7.359623970764419e-17
  outer loop
    vertex 75.93185165257812 3.082361909794966 27.799999999999983
    vertex 75.73205080756885 2.6000000000000068 3.5999999999999908
    vertex 75.93185165257812 3.082361909794966 3.5999999999999908
  endloop
endfacet
facet normal 0.13052619222005216 -0.9914448613738104 0.0
  outer loop
    vertex 58.99999999999999 45.599999999999994 27.799999999999983
    vertex 57.96472381958991 45.463703305156265 26.59999999999998
    vertex 58.99999999999999 45.599999999999994 26.59999999999998
  endloop
endfacet
facet normal 0.13052619222005216 -0.9914448613738104 0.0
  outer loop
    vertex 57.96472381958991 45.463703305156265 26.59999999999998
    vertex 58.99999999999999 45.599999999999994 27.799999999999983
    vertex 57.96472381958991 45.463703305156265 27.799999999999983
  endloop
endfacet
facet normal -0.9238795325112863 -0.3826834323650914 -0.0
  outer loop
    vertex 62.46410161513775 43.599999999999994 27.799999999999983
    vertex 62.86370330515627 42.635276180410074 26.59999999999998
    vertex 62.86370330515627 42.635276180410074 27.799999999999983
  endloop
endfacet
facet normal -0.9238795325112863 -0.3826834323650914 -0.0
  outer loop
    vertex 62.86370330515627 42.635276180410074 26.59999999999998
    vertex 62.46410161513775 43.599999999999994 27.799999999999983
    vertex 62.46410161513775 43.599999999999994 26.59999999999998
  endloop
endfacet
facet normal -0.9238795325112863 0.3826834323650914 0.0
  outer loop
    vertex 62.86370330515627 40.56472381958991 27.799999999999983
    vertex 62.46410161513775 39.59999999999999 26.59999999999998
    vertex 62.46410161513775 39.59999999999999 27.799999999999983
  endloop
endfacet
facet normal -0.9238795325112863 0.3826834323650914 0.0
  outer loop
    vertex 62.46410161513775 39.59999999999999 26.59999999999998
    vertex 62.86370330515627 40.56472381958991 27.799999999999983
    vertex 62.86370330515627 40.56472381958991 26.59999999999998
  endloop
endfacet
facet normal -0.9914448613738105 0.13052619222005143 0.0
  outer loop
    vertex 63.0 41.599999999999994 27.799999999999983
    vertex 62.86370330515627 40.56472381958991 26.59999999999998
    vertex 62.86370330515627 40.56472381958991 27.799999999999983
  endloop
endfacet
facet normal -0.9914448613738105 0.13052619222005143 0.0
  outer loop
    vertex 62.86370330515627 40.56472381958991 26.59999999999998
    vertex 63.0 41.599999999999994 27.799999999999983
    vertex 63.0 41.599999999999994 26.59999999999998
  endloop
endfacet
facet normal -0.6087614290087195 0.793353340291236 0.0
  outer loop
    vertex 60.99999999999999 38.13589838486223 27.799999999999983
    vertex 61.82842712474619 38.7715728752538 26.59999999999998
    vertex 60.99999999999999 38.13589838486223 26.59999999999998
  endloop
endfacet
facet normal -0.6087614290087195 0.793353340291236 0.0
  outer loop
    vertex 61.82842712474619 38.7715728752538 26.59999999999998
    vertex 60.99999999999999 38.13589838486223 27.799999999999983
    vertex 61.82842712474619 38.7715728752538 27.799999999999983
  endloop
endfacet
facet normal -0.38268343236508756 -0.9238795325112878 -0.0
  outer loop
    vertex 61.0 45.06410161513775 27.799999999999983
    vertex 60.03527618041007 45.463703305156265 26.59999999999998
    vertex 61.0 45.06410161513775 26.59999999999998
  endloop
endfacet
facet normal -0.38268343236508756 -0.9238795325112878 -0.0
  outer loop
    vertex 60.03527618041007 45.463703305156265 26.59999999999998
    vertex 61.0 45.06410161513775 27.799999999999983
    vertex 60.03527618041007 45.463703305156265 27.799999999999983
  endloop
endfacet
facet normal -0.7933533402912372 0.6087614290087179 0.0
  outer loop
    vertex 62.46410161513775 39.59999999999999 27.799999999999983
    vertex 61.82842712474619 38.7715728752538 26.59999999999998
    vertex 61.82842712474619 38.7715728752538 27.799999999999983
  endloop
endfacet
facet normal -0.7933533402912372 0.6087614290087179 0.0
  outer loop
    vertex 61.82842712474619 38.7715728752538 26.59999999999998
    vertex 62.46410161513775 39.59999999999999 27.799999999999983
    vertex 62.46410161513775 39.59999999999999 26.59999999999998
  endloop
endfacet
facet normal -0.0 -1.0 -0.0
  outer loop
    vertex 35.99999999999999 41.59999999999999 27.799999999999983
    vertex 7.4 41.59999999999999 26.59999999999998
    vertex 35.99999999999999 41.59999999999999 26.59999999999998
  endloop
endfacet
facet normal -0.0 -1.0 -0.0
  outer loop
    vertex 7.4 41.59999999999999 26.59999999999998
    vertex 35.99999999999999 41.59999999999999 27.799999999999983
    vertex 7.4 41.59999999999999 27.799999999999983
  endloop
endfacet
facet normal -0.3826834323650867 0.9238795325112881 0.0
  outer loop
    vertex 60.03527618041007 37.736296694843716 27.799999999999983
    vertex 60.99999999999999 38.13589838486223 26.59999999999998
    vertex 60.03527618041007 37.736296694843716 26.59999999999998
  endloop
endfacet
facet normal -0.3826834323650867 0.9238795325112881 0.0
  outer loop
    vertex 60.99999999999999 38.13589838486223 26.59999999999998
    vertex 60.03527618041007 37.736296694843716 27.799999999999983
    vertex 60.99999999999999 38.13589838486223 27.799999999999983
  endloop
endfacet
facet normal -0.13052619222005216 -0.9914448613738104 -0.0
  outer loop
    vertex 60.03527618041007 45.463703305156265 27.799999999999983
    vertex 58.99999999999999 45.599999999999994 26.59999999999998
    vertex 60.03527618041007 45.463703305156265 26.59999999999998
  endloop
endfacet
facet normal -0.13052619222005216 -0.9914448613738104 -0.0
  outer loop
    vertex 58.99999999999999 45.599999999999994 26.59999999999998
    vertex 60.03527618041007 45.463703305156265 27.799999999999983
    vertex 58.99999999999999 45.599999999999994 27.799999999999983
  endloop
endfacet
facet normal 1.0 -2.6409295160039737e-33 8.09145468908486e-17
  outer loop
    vertex 75.99999999999999 57.59999999999999 3.5999999999999908
    vertex 75.99999999999999 3.600000000000009 27.799999999999983
    vertex 75.99999999999999 3.600000000000009 3.5999999999999908
  endloop
endfacet
facet normal 1.0 -2.6409295160039737e-33 8.09145468908486e-17
  outer loop
    vertex 75.99999999999999 3.600000000000009 27.799999999999983
    vertex 75.99999999999999 57.59999999999999 3.5999999999999908
    vertex 75.99999999999999 57.59999999999999 27.799999999999983
  endloop
endfacet
facet normal 1.0 0.0 0.0
  outer loop
    vertex 7.4 41.59999999999999 26.59999999999998
    vertex 7.4 12.599999999999985 27.799999999999983
    vertex 7.4 12.599999999999985 26.59999999999998
  endloop
endfacet
facet normal 1.0 0.0 0.0
  outer loop
    vertex 7.4 12.599999999999985 27.799999999999983
    vertex 7.4 41.59999999999999 26.59999999999998
    vertex 7.4 41.59999999999999 27.799999999999983
  endloop
endfacet
facet normal 0.3826834323650914 -0.9238795325112863 0.0
  outer loop
    vertex 57.96472381958991 45.463703305156265 27.799999999999983
    vertex 57.0 45.06410161513775 26.59999999999998
    vertex 57.96472381958991 45.463703305156265 26.59999999999998
  endloop
endfacet
facet normal 0.3826834323650914 -0.9238795325112863 0.0
  outer loop
    vertex 57.0 45.06410161513775 26.59999999999998
    vertex 57.96472381958991 45.463703305156265 27.799999999999983
    vertex 57.0 45.06410161513775 27.799999999999983
  endloop
endfacet
facet normal -0.6087614290087213 -0.7933533402912347 -0.0
  outer loop
    vertex 61.82842712474619 44.428427124746186 27.799999999999983
    vertex 61.0 45.06410161513775 26.59999999999998
    vertex 61.82842712474619 44.428427124746186 26.59999999999998
  endloop
endfacet
facet normal -0.6087614290087213 -0.7933533402912347 -0.0
  outer loop
    vertex 61.0 45.06410161513775 26.59999999999998
    vertex 61.82842712474619 44.428427124746186 27.799999999999983
    vertex 61.0 45.06410161513775 27.799999999999983
  endloop
endfacet
facet normal -1.0 0.0 -4.313520298655026e-17
  outer loop
    vertex 74.39999999999999 57.999999999999986 26.59999999999998
    vertex 74.39999999999999 3.1999999999999855 3.599999999999979
    vertex 74.39999999999999 3.1999999999999855 26.59999999999998
  endloop
endfacet
facet normal -1.0 0.0 -4.313520298655026e-17
  outer loop
    vertex 74.39999999999999 3.1999999999999855 3.599999999999979
    vertex 74.39999999999999 57.999999999999986 26.59999999999998
    vertex 74.39999999999999 57.999999999999986 3.599999999999979
  endloop
endfacet
facet normal 0.3826834323650914 0.9238795325112863 0.0
  outer loop
    vertex 56.999999999999986 38.13589838486224 27.799999999999983
    vertex 57.9647238195899 37.736296694843716 26.59999999999998
    vertex 56.999999999999986 38.13589838486224 26.59999999999998
  endloop
endfacet
facet normal 0.3826834323650914 0.9238795325112863 0.0
  outer loop
    vertex 57.9647238195899 37.736296694843716 26.59999999999998
    vertex 56.999999999999986 38.13589838486224 27.799999999999983
    vertex 57.9647238195899 37.736296694843716 27.799999999999983
  endloop
endfacet
facet normal 7.248108950371793e-33 -1.5666480458599435e-16 -1.0
  outer loop
    vertex 3.524958103184872e-15 35.09999999999998 3.599999999999985
    vertex 1.5999999999999992 17.099999999999987 3.5999999999999877
    vertex 3.1724622928663847e-15 17.099999999999987 3.5999999999999877
  endloop
endfacet
facet normal 7.248108950371793e-33 -1.5666480458599435e-16 -1.0
  outer loop
    vertex 1.5999999999999992 17.099999999999987 3.5999999999999877
    vertex 3.524958103184872e-15 35.09999999999998 3.599999999999985
    vertex 1.5999999999999992 35.09999999999998 3.599999999999985
  endloop
endfacet
facet normal 0.0 -1.0 0.0
  outer loop
    vertex 1.6000000000000012 17.099999999999987 18.599999999999987
    vertex 3.1724622928663847e-15 17.099999999999987 7.09999999999999
    vertex 1.6000000000000012 17.099999999999987 7.09999999999999
  endloop
endfacet
facet normal 0.0 -1.0 0.0
  outer loop
    vertex 3.1724622928663847e-15 17.099999999999987 7.09999999999999
    vertex 1.6000000000000012 17.099999999999987 18.599999999999987
    vertex 3.1724622928663847e-15 17.099999999999987 18.599999999999987
  endloop
endfacet
facet normal 0.0 -1.0 0.0
  outer loop
    vertex 1.6000000000000012 17.099999999999987 7.09999999999999
    vertex 3.1724622928663847e-15 17.099999999999987 3.5999999999999877
    vertex 1.5999999999999992 17.099999999999987 3.5999999999999877
  endloop
endfacet
facet normal 0.0 -1.0 0.0
  outer loop
    vertex 3.1724622928663847e-15 17.099999999999987 3.5999999999999877
    vertex 1.6000000000000012 17.099999999999987 7.09999999999999
    vertex 3.1724622928663847e-15 17.099999999999987 7.09999999999999
  endloop
endfacet
facet normal 0.0 1.0 0.0
  outer loop
    vertex 3.1724622928663847e-15 7.099999999999985 7.09999999999999
    vertex 1.5999999999999992 7.099999999999985 3.5999999999999908
    vertex 2.8199664825478975e-15 7.099999999999985 3.5999999999999908
  endloop
endfacet
facet normal 0.0 1.0 0.0
  outer loop
    vertex 1.5999999999999992 7.099999999999985 3.5999999999999908
    vertex 3.1724622928663847e-15 7.099999999999985 7.09999999999999
    vertex 1.6000000000000012 7.099999999999985 7.09999999999999
  endloop
endfacet
facet normal 0.0 1.0 0.0
  outer loop
    vertex 3.1724622928663847e-15 7.099999999999985 18.59999999999999
    vertex 1.6000000000000012 7.099999999999985 7.09999999999999
    vertex 3.1724622928663847e-15 7.099999999999985 7.09999999999999
  endloop
endfacet
facet normal 0.0 1.0 0.0
  outer loop
    vertex 1.6000000000000012 7.099999999999985 7.09999999999999
    vertex 3.1724622928663847e-15 7.099999999999985 18.59999999999999
    vertex 1.6000000000000012 7.099999999999985 18.59999999999999
  endloop
endfacet
facet normal 0.0 -1.0 0.0
  outer loop
    vertex 1.5999999999999992 48.09999999999998 18.099999999999987
    vertex 3.1724622928663847e-15 48.09999999999998 7.09999999999999
    vertex 1.5999999999999992 48.09999999999998 7.09999999999999
  endloop
endfacet
facet normal 0.0 -1.0 0.0
  outer loop
    vertex 3.1724622928663847e-15 48.09999999999998 7.09999999999999
    vertex 1.5999999999999992 48.09999999999998 18.099999999999987
    vertex 3.1724622928663847e-15 48.09999999999998 18.099999999999987
  endloop
endfacet
facet normal -0.0 -1.084602493287653e-16 -1.0
  outer loop
    vertex 1.5999999999999992 48.09999999999998 18.099999999999987
    vertex 3.1724622928663847e-15 35.09999999999998 18.09999999999999
    vertex 3.1724622928663847e-15 48.09999999999998 18.099999999999987
  endloop
endfacet
facet normal -0.0 -1.084602493287653e-16 -1.0
  outer loop
    vertex 3.1724622928663847e-15 35.09999999999998 18.09999999999999
    vertex 1.5999999999999992 48.09999999999998 18.099999999999987
    vertex 1.5999999999999992 35.09999999999998 18.09999999999999
  endloop
endfacet
facet normal 0.0 1.0 0.0
  outer loop
    vertex 3.1724622928663847e-15 35.09999999999998 18.09999999999999
    vertex 1.5999999999999992 35.09999999999998 7.09999999999999
    vertex 3.1724622928663847e-15 35.09999999999998 7.09999999999999
  endloop
endfacet
facet normal 0.0 1.0 0.0
  outer loop
    vertex 1.5999999999999992 35.09999999999998 7.09999999999999
    vertex 3.1724622928663847e-15 35.09999999999998 18.09999999999999
    vertex 1.5999999999999992 35.09999999999998 18.09999999999999
  endloop
endfacet
facet normal -0.0 -1.4099832412739486e-16 -1.0
  outer loop
    vertex 1.6000000000000012 17.099999999999987 18.599999999999987
    vertex 3.1724622928663847e-15 7.099999999999985 18.59999999999999
    vertex 3.1724622928663847e-15 17.099999999999987 18.599999999999987
  endloop
endfacet
facet normal -0.0 -1.4099832412739486e-16 -1.0
  outer loop
    vertex 3.1724622928663847e-15 7.099999999999985 18.59999999999999
    vertex 1.6000000000000012 17.099999999999987 18.599999999999987
    vertex 1.6000000000000012 7.099999999999985 18.59999999999999
  endloop
endfacet
facet normal 0.9914448613738105 -0.13052619222005143 0.0
  outer loop
    vertex 55.136296694843715 42.635276180410074 26.59999999999998
    vertex 54.99999999999999 41.599999999999994 27.799999999999983
    vertex 54.99999999999999 41.599999999999994 26.59999999999998
  endloop
endfacet
facet normal 0.9914448613738105 -0.13052619222005143 0.0
  outer loop
    vertex 54.99999999999999 41.599999999999994 27.799999999999983
    vertex 55.136296694843715 42.635276180410074 26.59999999999998
    vertex 55.136296694843715 42.635276180410074 27.799999999999983
  endloop
endfacet
facet normal 0.923879532511287 0.3826834323650894 0.0
  outer loop
    vertex 55.136296694843715 40.564723819589915 26.59999999999998
    vertex 55.535898384862236 39.59999999999999 27.799999999999983
    vertex 55.535898384862236 39.59999999999999 26.59999999999998
  endloop
endfacet
facet normal 0.923879532511287 0.3826834323650894 0.0
  outer loop
    vertex 55.535898384862236 39.59999999999999 27.799999999999983
    vertex 55.136296694843715 40.564723819589915 26.59999999999998
    vertex 55.136296694843715 40.564723819589915 27.799999999999983
  endloop
endfacet
facet normal -1.0 0.0 0.0
  outer loop
    vertex 35.99999999999999 41.59999999999999 27.799999999999983
    vertex 35.99999999999999 12.599999999999985 26.59999999999998
    vertex 35.99999999999999 12.599999999999985 27.799999999999983
  endloop
endfacet
facet normal -1.0 0.0 0.0
  outer loop
    vertex 35.99999999999999 12.599999999999985 26.59999999999998
    vertex 35.99999999999999 41.59999999999999 27.799999999999983
    vertex 35.99999999999999 41.59999999999999 26.59999999999998
  endloop
endfacet
facet normal 0.0 1.0 0.0
  outer loop
    vertex 3.1724622928663847e-15 35.09999999999998 7.09999999999999
    vertex 1.5999999999999992 35.09999999999998 3.599999999999985
    vertex 3.524958103184872e-15 35.09999999999998 3.599999999999985
  endloop
endfacet
facet normal 0.0 1.0 0.0
  outer loop
    vertex 1.5999999999999992 35.09999999999998 3.599999999999985
    vertex 3.1724622928663847e-15 35.09999999999998 7.09999999999999
    vertex 1.5999999999999992 35.09999999999998 7.09999999999999
  endloop
endfacet
facet normal 0.9914448613738104 0.13052619222005216 0.0
  outer loop
    vertex 54.99999999999999 41.599999999999994 26.59999999999998
    vertex 55.136296694843715 40.564723819589915 27.799999999999983
    vertex 55.136296694843715 40.564723819589915 26.59999999999998
  endloop
endfacet
facet normal 0.9914448613738104 0.13052619222005216 0.0
  outer loop
    vertex 55.136296694843715 40.564723819589915 27.799999999999983
    vertex 54.99999999999999 41.599999999999994 26.59999999999998
    vertex 54.99999999999999 41.599999999999994 27.799999999999983
  endloop
endfacet
facet normal 0.13052619222005077 0.9914448613738106 0.0
  outer loop
    vertex 57.9647238195899 37.736296694843716 27.799999999999983
    vertex 58.99999999999999 37.59999999999999 26.59999999999998
    vertex 57.9647238195899 37.736296694843716 26.59999999999998
  endloop
endfacet
facet normal 0.13052619222005077 0.9914448613738106 0.0
  outer loop
    vertex 58.99999999999999 37.59999999999999 26.59999999999998
    vertex 57.9647238195899 37.736296694843716 27.799999999999983
    vertex 58.99999999999999 37.59999999999999 27.799999999999983
  endloop
endfacet
facet normal 0.0 -1.0 0.0
  outer loop
    vertex 1.5999999999999992 48.09999999999998 7.09999999999999
    vertex 4.93494134445882e-15 48.09999999999998 3.5999999999999823
    vertex 1.6000000000000005 48.09999999999998 3.5999999999999823
  endloop
endfacet
facet normal 0.0 -1.0 0.0
  outer loop
    vertex 4.93494134445882e-15 48.09999999999998 3.5999999999999823
    vertex 1.5999999999999992 48.09999999999998 7.09999999999999
    vertex 3.1724622928663847e-15 48.09999999999998 7.09999999999999
  endloop
endfacet
facet normal 0.38268343236510316 -0.9238795325112812 2.8166452532098277e-17
  outer loop
    vertex 74.99999999999999 1.8679491924311225 27.799999999999983
    vertex 74.51763809020504 1.6681483474218575 3.5999999999999908
    vertex 74.99999999999999 1.8679491924311225 3.5999999999999908
  endloop
endfacet
facet normal 0.38268343236510316 -0.9238795325112812 2.8166452532098277e-17
  outer loop
    vertex 74.51763809020504 1.6681483474218575 3.5999999999999908
    vertex 74.99999999999999 1.8679491924311225 27.799999999999983
    vertex 74.51763809020504 1.6681483474218575 27.799999999999983
  endloop
endfacet
facet normal 0.13052619222006603 -0.9914448613738086 7.558624927974892e-18
  outer loop
    vertex 74.51763809020504 1.6681483474218575 27.799999999999983
    vertex 73.99999999999999 1.5999999999999859 3.5999999999999908
    vertex 74.51763809020504 1.6681483474218575 3.5999999999999908
  endloop
endfacet
facet normal 0.13052619222006603 -0.9914448613738086 7.558624927974892e-18
  outer loop
    vertex 73.99999999999999 1.5999999999999859 3.5999999999999908
    vertex 74.51763809020504 1.6681483474218575 27.799999999999983
    vertex 73.99999999999999 1.5999999999999859 27.799999999999983
  endloop
endfacet
facet normal 0.6087614290087368 0.7933533402912228 5.166052744231168e-17
  outer loop
    vertex 74.99999999999999 59.33205080756886 27.799999999999983
    vertex 75.41421356237308 59.01421356237307 3.5999999999999908
    vertex 74.99999999999999 59.33205080756886 3.5999999999999908
  endloop
endfacet
facet normal 0.6087614290087368 0.7933533402912228 5.166052744231168e-17
  outer loop
    vertex 75.41421356237308 59.01421356237307 3.5999999999999908
    vertex 74.99999999999999 59.33205080756886 27.799999999999983
    vertex 75.41421356237308 59.01421356237307 27.799999999999983
  endloop
endfacet
facet normal 0.7933533402912372 0.6087614290087179 0.0
  outer loop
    vertex 55.535898384862236 39.59999999999999 26.59999999999998
    vertex 56.171572875253794 38.7715728752538 27.799999999999983
    vertex 56.171572875253794 38.7715728752538 26.59999999999998
  endloop
endfacet
facet normal 0.7933533402912372 0.6087614290087179 0.0
  outer loop
    vertex 56.171572875253794 38.7715728752538 27.799999999999983
    vertex 55.535898384862236 39.59999999999999 26.59999999999998
    vertex 55.535898384862236 39.59999999999999 27.799999999999983
  endloop
endfacet
facet normal 0.7933533402912393 -0.6087614290087153 6.235003732834256e-17
  outer loop
    vertex 75.41421356237308 2.185786437626909 3.5999999999999908
    vertex 75.73205080756885 2.6000000000000063 27.799999999999983
    vertex 75.41421356237308 2.1857864376269087 27.799999999999983
  endloop
endfacet
facet normal 0.7933533402912393 -0.6087614290087153 6.235003732834256e-17
  outer loop
    vertex 75.73205080756885 2.6000000000000063 27.799999999999983
    vertex 75.41421356237308 2.185786437626909 3.5999999999999908
    vertex 75.73205080756885 2.6000000000000068 3.5999999999999908
  endloop
endfacet
facet normal -0.0 -1.0 -1.7250803262567197e-18
  outer loop
    vertex 74.39999999999999 57.999999999999986 26.59999999999998
    vertex 1.6000000000000016 57.999999999999986 3.599999999999979
    vertex 74.39999999999999 57.999999999999986 3.599999999999979
  endloop
endfacet
facet normal -0.0 -1.0 -1.7250803262567197e-18
  outer loop
    vertex 1.6000000000000016 57.999999999999986 3.599999999999979
    vertex 74.39999999999999 57.999999999999986 26.59999999999998
    vertex 1.6000000000000005 57.999999999999986 26.59999999999998
  endloop
endfacet
facet normal 1.0 1.3863578575079895e-17 -1.159722507013431e-17
  outer loop
    vertex 1.5999999999999992 35.09999999999998 3.599999999999985
    vertex 1.6000000000000012 17.099999999999987 7.09999999999999
    vertex 1.5999999999999992 17.099999999999987 3.5999999999999877
  endloop
endfacet
facet normal 1.0 1.3863578575079895e-17 -1.159722507013431e-17
  outer loop
    vertex 1.6000000000000012 17.099999999999987 7.09999999999999
    vertex 1.5999999999999992 35.09999999999998 3.599999999999985
    vertex 1.6000000000000012 17.099999999999987 18.599999999999987
  endloop
endfacet
facet normal 1.0 1.3863578575079895e-17 -1.159722507013431e-17
  outer loop
    vertex 1.6000000000000016 57.999999999999986 3.599999999999979
    vertex 1.5999999999999992 48.09999999999998 7.09999999999999
    vertex 1.6000000000000005 48.09999999999998 3.5999999999999823
  endloop
endfacet
facet normal 1.0 1.3863578575079895e-17 -1.159722507013431e-17
  outer loop
    vertex 1.5999999999999992 48.09999999999998 7.09999999999999
    vertex 1.6000000000000016 57.999999999999986 3.599999999999979
    vertex 1.5999999999999992 48.09999999999998 18.099999999999987
  endloop
endfacet
facet normal 1.0 1.3863578575079895e-17 -1.159722507013431e-17
  outer loop
    vertex 1.5999999999999992 7.099999999999985 3.5999999999999908
    vertex 1.6000000000000005 3.1999999999999855 26.59999999999998
    vertex 1.6000000000000016 3.1999999999999855 3.599999999999979
  endloop
endfacet
facet normal 1.0 1.3863578575079895e-17 -1.159722507013431e-17
  outer loop
    vertex 1.6000000000000005 3.1999999999999855 26.59999999999998
    vertex 1.5999999999999992 7.099999999999985 3.5999999999999908
    vertex 1.6000000000000012 7.099999999999985 18.59999999999999
  endloop
endfacet
facet normal 1.0 1.3863578575079895e-17 -1.159722507013431e-17
  outer loop
    vertex 1.6000000000000005 3.1999999999999855 26.59999999999998
    vertex 1.6000000000000012 7.099999999999985 18.59999999999999
    vertex 1.6000000000000005 57.999999999999986 26.59999999999998
  endloop
endfacet
facet normal 1.0 1.3863578575079895e-17 -1.159722507013431e-17
  outer loop
    vertex 1.6000000000000012 7.099999999999985 18.59999999999999
    vertex 1.5999999999999992 7.099999999999985 3.5999999999999908
    vertex 1.6000000000000012 7.099999999999985 7.09999999999999
  endloop
endfacet
facet normal 1.0 1.3863578575079895e-17 -1.159722507013431e-17
  outer loop
    vertex 1.6000000000000005 57.999999999999986 26.59999999999998
    vertex 1.6000000000000012 7.099999999999985 18.59999999999999
    vertex 1.6000000000000012 17.099999999999987 18.599999999999987
  endloop
endfacet
facet normal 1.0 1.3863578575079895e-17 -1.159722507013431e-17
  outer loop
    vertex 1.6000000000000005 57.999999999999986 26.59999999999998
    vertex 1.6000000000000012 17.099999999999987 18.599999999999987
    vertex 1.5999999999999992 35.09999999999998 18.09999999999999
  endloop
endfacet
facet normal 1.0 1.3863578575079895e-17 -1.159722507013431e-17
  outer loop
    vertex 1.5999999999999992 35.09999999999998 18.09999999999999
    vertex 1.6000000000000012 17.099999999999987 18.599999999999987
    vertex 1.5999999999999992 35.09999999999998 3.599999999999985
  endloop
endfacet
facet normal 1.0 1.3863578575079895e-17 -1.159722507013431e-17
  outer loop
    vertex 1.5999999999999992 35.09999999999998 18.09999999999999
    vertex 1.5999999999999992 35.09999999999998 3.599999999999985
    vertex 1.5999999999999992 35.09999999999998 7.09999999999999
  endloop
endfacet
facet normal 1.0 1.3863578575079895e-17 -1.159722507013431e-17
  outer loop
    vertex 1.6000000000000005 57.999999999999986 26.59999999999998
    vertex 1.5999999999999992 35.09999999999998 18.09999999999999
    vertex 1.5999999999999992 48.09999999999998 18.099999999999987
  endloop
endfacet
facet normal 1.0 1.3863578575079895e-17 -1.159722507013431e-17
  outer loop
    vertex 1.6000000000000005 57.999999999999986 26.59999999999998
    vertex 1.5999999999999992 48.09999999999998 18.099999999999987
    vertex 1.6000000000000016 57.999999999999986 3.599999999999979
  endloop
endfacet
facet normal 0.9914448613738106 0.13052619222005077 8.061764347623658e-17
  outer loop
    vertex 75.93185165257812 58.11763809020503 3.5999999999999908
    vertex 75.99999999999999 57.59999999999999 27.799999999999983
    vertex 75.99999999999999 57.59999999999999 3.5999999999999908
  endloop
endfacet
facet normal 0.9914448613738106 0.13052619222005077 8.061764347623658e-17
  outer loop
    vertex 75.99999999999999 57.59999999999999 27.799999999999983
    vertex 75.93185165257812 58.11763809020503 3.5999999999999908
    vertex 75.93185165257812 58.11763809020503 27.799999999999983
  endloop
endfacet
facet normal 0.0 1.0 1.7250803262567197e-18
  outer loop
    vertex 1.6000000000000005 3.1999999999999855 26.59999999999998
    vertex 74.39999999999999 3.1999999999999855 3.599999999999979
    vertex 1.6000000000000016 3.1999999999999855 3.599999999999979
  endloop
endfacet
facet normal 0.0 1.0 1.7250803262567197e-18
  outer loop
    vertex 74.39999999999999 3.1999999999999855 3.599999999999979
    vertex 1.6000000000000005 3.1999999999999855 26.59999999999998
    vertex 74.39999999999999 3.1999999999999855 26.59999999999998
  endloop
endfacet
facet normal -0.13052619222005216 0.9914448613738104 0.0
  outer loop
    vertex 58.99999999999999 37.59999999999999 27.799999999999983
    vertex 60.03527618041007 37.736296694843716 26.59999999999998
    vertex 58.99999999999999 37.59999999999999 26.59999999999998
  endloop
endfacet
facet normal -0.13052619222005216 0.9914448613738104 0.0
  outer loop
    vertex 60.03527618041007 37.736296694843716 26.59999999999998
    vertex 58.99999999999999 37.59999999999999 27.799999999999983
    vertex 60.03527618041007 37.736296694843716 27.799999999999983
  endloop
endfacet
facet normal 6.369280418882167e-17 -1.676925389593461e-17 -1.0
  outer loop
    vertex 2.0000000000000018 59.59999999999998 3.5999999999999908
    vertex 7.402412016688231e-15 57.59999999999999 3.599999999999979
    vertex 7.402412016688231e-15 59.59999999999998 3.599999999999985
  endloop
endfacet
facet normal 6.369280418882167e-17 -1.676925389593461e-17 -1.0
  outer loop
    vertex 7.402412016688231e-15 57.59999999999999 3.599999999999979
    vertex 2.0000000000000018 59.59999999999998 3.5999999999999908
    vertex 1.6000000000000016 57.999999999999986 3.599999999999979
  endloop
endfacet
facet normal 6.369280418882167e-17 -1.676925389593461e-17 -1.0
  outer loop
    vertex 7.402412016688231e-15 57.59999999999999 3.599999999999979
    vertex 1.6000000000000016 57.999999999999986 3.599999999999979
    vertex 1.6000000000000005 48.09999999999998 3.5999999999999823
  endloop
endfacet
facet normal 6.369280418882167e-17 -1.676925389593461e-17 -1.0
  outer loop
    vertex 1.6000000000000016 57.999999999999986 3.599999999999979
    vertex 2.0000000000000018 59.59999999999998 3.5999999999999908
    vertex 74.39999999999999 57.999999999999986 3.599999999999979
  endloop
endfacet
facet normal 6.369280418882167e-17 -1.676925389593461e-17 -1.0
  outer loop
    vertex 74.39999999999999 57.999999999999986 3.599999999999979
    vertex 2.0000000000000018 59.59999999999998 3.5999999999999908
    vertex 73.99999999999999 59.59999999999998 3.5999999999999908
  endloop
endfacet
facet normal 6.369280418882167e-17 -1.676925389593461e-17 -1.0
  outer loop
    vertex 74.39999999999999 57.999999999999986 3.599999999999979
    vertex 73.99999999999999 59.59999999999998 3.5999999999999908
    vertex 74.51763809020504 59.53185165257812 3.5999999999999908
  endloop
endfacet
facet normal 6.369280418882167e-17 -1.676925389593461e-17 -1.0
  outer loop
    vertex 74.39999999999999 57.999999999999986 3.599999999999979
    vertex 74.51763809020504 59.53185165257812 3.5999999999999908
    vertex 74.39999999999999 3.1999999999999855 3.599999999999979
  endloop
endfacet
facet normal 6.369280418882167e-17 -1.676925389593461e-17 -1.0
  outer loop
    vertex 1.5999999999999992 7.099999999999985 3.5999999999999908
    vertex 2.8199664825478975e-15 3.5999999999999854 3.5999999999999908
    vertex 2.8199664825478975e-15 7.099999999999985 3.5999999999999908
  endloop
endfacet
facet normal 6.369280418882167e-17 -1.676925389593461e-17 -1.0
  outer loop
    vertex 2.8199664825478975e-15 3.5999999999999854 3.5999999999999908
    vertex 1.5999999999999992 7.099999999999985 3.5999999999999908
    vertex 2.8199664825478975e-15 1.5999999999999892 3.599999999999985
  endloop
endfacet
facet normal 6.369280418882167e-17 -1.676925389593461e-17 -1.0
  outer loop
    vertex 2.8199664825478975e-15 1.5999999999999892 3.599999999999985
    vertex 1.5999999999999992 7.099999999999985 3.5999999999999908
    vertex 1.6000000000000016 3.1999999999999855 3.599999999999979
  endloop
endfacet
facet normal 6.369280418882167e-17 -1.676925389593461e-17 -1.0
  outer loop
    vertex 2.8199664825478975e-15 1.5999999999999892 3.599999999999985
    vertex 1.6000000000000016 3.1999999999999855 3.599999999999979
    vertex 1.9999999999999978 1.5999999999999892 3.599999999999979
  endloop
endfacet
facet normal 6.369280418882167e-17 -1.676925389593461e-17 -1.0
  outer loop
    vertex 1.9999999999999978 1.5999999999999892 3.599999999999979
    vertex 1.6000000000000016 3.1999999999999855 3.599999999999979
    vertex 74.39999999999999 3.1999999999999855 3.599999999999979
  endloop
endfacet
facet normal 6.369280418882167e-17 -1.676925389593461e-17 -1.0
  outer loop
    vertex 1.9999999999999978 1.5999999999999892 3.599999999999979
    vertex 74.39999999999999 3.1999999999999855 3.599999999999979
    vertex 73.99999999999999 1.5999999999999859 3.5999999999999908
  endloop
endfacet
facet normal 6.369280418882167e-17 -1.676925389593461e-17 -1.0
  outer loop
    vertex 73.99999999999999 1.5999999999999859 3.5999999999999908
    vertex 74.39999999999999 3.1999999999999855 3.599999999999979
    vertex 74.51763809020504 1.6681483474218575 3.5999999999999908
  endloop
endfacet
facet normal 6.369280418882167e-17 -1.676925389593461e-17 -1.0
  outer loop
    vertex 74.51763809020504 1.6681483474218575 3.5999999999999908
    vertex 74.39999999999999 3.1999999999999855 3.599999999999979
    vertex 74.51763809020504 59.53185165257812 3.5999999999999908
  endloop
endfacet
facet normal 6.369280418882167e-17 -1.676925389593461e-17 -1.0
  outer loop
    vertex 74.51763809020504 1.6681483474218575 3.5999999999999908
    vertex 74.51763809020504 59.53185165257812 3.5999999999999908
    vertex 74.99999999999999 59.33205080756886 3.5999999999999908
  endloop
endfacet
facet normal 6.369280418882167e-17 -1.676925389593461e-17 -1.0
  outer loop
    vertex 74.51763809020504 1.6681483474218575 3.5999999999999908
    vertex 74.99999999999999 59.33205080756886 3.5999999999999908
    vertex 74.99999999999999 1.8679491924311225 3.5999999999999908
  endloop
endfacet
facet normal 6.369280418882167e-17 -1.676925389593461e-17 -1.0
  outer loop
    vertex 74.99999999999999 1.8679491924311225 3.5999999999999908
    vertex 74.99999999999999 59.33205080756886 3.5999999999999908
    vertex 75.41421356237308 59.01421356237307 3.5999999999999908
  endloop
endfacet
facet normal 6.369280418882167e-17 -1.676925389593461e-17 -1.0
  outer loop
    vertex 74.99999999999999 1.8679491924311225 3.5999999999999908
    vertex 75.41421356237308 59.01421356237307 3.5999999999999908
    vertex 75.41421356237308 2.185786437626909 3.5999999999999908
  endloop
endfacet
facet normal 6.369280418882167e-17 -1.676925389593461e-17 -1.0
  outer loop
    vertex 75.41421356237308 2.185786437626909 3.5999999999999908
    vertex 75.41421356237308 59.01421356237307 3.5999999999999908
    vertex 75.73205080756887 58.59999999999998 3.5999999999999908
  endloop
endfacet
facet normal 6.369280418882167e-17 -1.676925389593461e-17 -1.0
  outer loop
    vertex 75.41421356237308 2.185786437626909 3.5999999999999908
    vertex 75.73205080756887 58.59999999999998 3.5999999999999908
    vertex 75.73205080756885 2.6000000000000068 3.5999999999999908
  endloop
endfacet
facet normal 6.369280418882167e-17 -1.676925389593461e-17 -1.0
  outer loop
    vertex 75.73205080756885 2.6000000000000068 3.5999999999999908
    vertex 75.73205080756887 58.59999999999998 3.5999999999999908
    vertex 75.93185165257812 3.082361909794966 3.5999999999999908
  endloop
endfacet
facet normal 6.369280418882167e-17 -1.676925389593461e-17 -1.0
  outer loop
    vertex 75.93185165257812 3.082361909794966 3.5999999999999908
    vertex 75.73205080756887 58.59999999999998 3.5999999999999908
    vertex 75.93185165257812 58.11763809020503 3.5999999999999908
  endloop
endfacet
facet normal 6.369280418882167e-17 -1.676925389593461e-17 -1.0
  outer loop
    vertex 75.93185165257812 3.082361909794966 3.5999999999999908
    vertex 75.93185165257812 58.11763809020503 3.5999999999999908
    vertex 75.99999999999999 57.59999999999999 3.5999999999999908
  endloop
endfacet
facet normal 6.369280418882167e-17 -1.676925389593461e-17 -1.0
  outer loop
    vertex 75.93185165257812 3.082361909794966 3.5999999999999908
    vertex 75.99999999999999 57.59999999999999 3.5999999999999908
    vertex 75.99999999999999 3.600000000000009 3.5999999999999908
  endloop
endfacet
facet normal 6.369280418882167e-17 -1.676925389593461e-17 -1.0
  outer loop
    vertex 1.6000000000000005 48.09999999999998 3.5999999999999823
    vertex 4.93494134445882e-15 48.09999999999998 3.5999999999999823
    vertex 7.402412016688231e-15 57.59999999999999 3.599999999999979
  endloop
endfacet
facet normal -4.591520275310732e-17 -1.0 -9.424113921644783e-18
  outer loop
    vertex 73.99999999999999 1.5999999999999859 3.5999999999999908
    vertex 2.8199664825478975e-15 1.5999999999999892 3.599999999999985
    vertex 1.9999999999999978 1.5999999999999892 3.599999999999979
  endloop
endfacet
facet normal -4.591520275310732e-17 -1.0 -9.424113921644783e-18
  outer loop
    vertex 2.8199664825478975e-15 1.5999999999999892 3.599999999999985
    vertex 73.99999999999999 1.5999999999999859 3.5999999999999908
    vertex 0.0 1.599999999999989 27.799999999999972
  endloop
endfacet
facet normal -4.591520275310732e-17 -1.0 -9.424113921644783e-18
  outer loop
    vertex 0.0 1.599999999999989 27.799999999999972
    vertex 73.99999999999999 1.5999999999999859 3.5999999999999908
    vertex 73.99999999999999 1.5999999999999859 27.799999999999983
  endloop
endfacet
facet normal 0.9238795325112863 -0.3826834323650914 0.0
  outer loop
    vertex 55.535898384862236 43.599999999999994 26.59999999999998
    vertex 55.136296694843715 42.635276180410074 27.799999999999983
    vertex 55.136296694843715 42.635276180410074 26.59999999999998
  endloop
endfacet
facet normal 0.9238795325112863 -0.3826834323650914 0.0
  outer loop
    vertex 55.136296694843715 42.635276180410074 27.799999999999983
    vertex 55.535898384862236 43.599999999999994 26.59999999999998
    vertex 55.535898384862236 43.599999999999994 27.799999999999983
  endloop
endfacet
facet normal 0.6087614290087314 -0.793353340291227 4.6854782943422747e-17
  outer loop
    vertex 75.41421356237308 2.1857864376269087 27.799999999999983
    vertex 74.99999999999999 1.8679491924311225 3.5999999999999908
    vertex 75.41421356237308 2.185786437626909 3.5999999999999908
  endloop
endfacet
facet normal 0.6087614290087314 -0.793353340291227 4.6854782943422747e-17
  outer loop
    vertex 74.99999999999999 1.8679491924311225 3.5999999999999908
    vertex 75.41421356237308 2.1857864376269087 27.799999999999983
    vertex 74.99999999999999 1.8679491924311225 27.799999999999983
  endloop
endfacet
facet normal 0.9914448613738104 -0.1305261922200516 7.98269799744076e-17
  outer loop
    vertex 75.93185165257812 3.082361909794966 3.5999999999999908
    vertex 75.99999999999999 3.600000000000009 27.799999999999983
    vertex 75.93185165257812 3.082361909794966 27.799999999999983
  endloop
endfacet
facet normal 0.9914448613738104 -0.1305261922200516 7.98269799744076e-17
  outer loop
    vertex 75.99999999999999 3.600000000000009 27.799999999999983
    vertex 75.93185165257812 3.082361909794966 3.5999999999999908
    vertex 75.99999999999999 3.600000000000009 3.5999999999999908
  endloop
endfacet
facet normal 0.7933533402912372 -0.6087614290087179 0.0
  outer loop
    vertex 56.171572875253794 44.428427124746186 26.59999999999998
    vertex 55.535898384862236 43.599999999999994 27.799999999999983
    vertex 55.535898384862236 43.599999999999994 26.59999999999998
  endloop
endfacet
facet normal 0.7933533402912372 -0.6087614290087179 0.0
  outer loop
    vertex 55.535898384862236 43.599999999999994 27.799999999999983
    vertex 56.171572875253794 44.428427124746186 26.59999999999998
    vertex 56.171572875253794 44.428427124746186 27.799999999999983
  endloop
endfacet
facet normal 0.7933533402912228 0.6087614290087368 6.603761477966989e-17
  outer loop
    vertex 75.41421356237308 59.01421356237307 3.5999999999999908
    vertex 75.73205080756887 58.59999999999998 27.799999999999983
    vertex 75.73205080756887 58.59999999999998 3.5999999999999908
  endloop
endfacet
facet normal 0.7933533402912228 0.6087614290087368 6.603761477966989e-17
  outer loop
    vertex 75.73205080756887 58.59999999999998 27.799999999999983
    vertex 75.41421356237308 59.01421356237307 3.5999999999999908
    vertex 75.41421356237308 59.01421356237307 27.799999999999983
  endloop
endfacet
facet normal -0.9914448613738105 -0.13052619222005143 -0.0
  outer loop
    vertex 62.86370330515627 42.635276180410074 27.799999999999983
    vertex 63.0 41.599999999999994 26.59999999999998
    vertex 63.0 41.599999999999994 27.799999999999983
  endloop
endfacet
facet normal -0.9914448613738105 -0.13052619222005143 -0.0
  outer loop
    vertex 63.0 41.599999999999994 26.59999999999998
    vertex 62.86370330515627 42.635276180410074 27.799999999999983
    vertex 62.86370330515627 42.635276180410074 26.59999999999998
  endloop
endfacet
facet normal 0.38268343236508595 0.9238795325112884 3.376286053281442e-17
  outer loop
    vertex 74.51763809020504 59.53185165257812 27.799999999999983
    vertex 74.99999999999999 59.33205080756886 3.5999999999999908
    vertex 74.51763809020504 59.53185165257812 3.5999999999999908
  endloop
endfacet
facet normal 0.38268343236508595 0.9238795325112884 3.376286053281442e-17
  outer loop
    vertex 74.99999999999999 59.33205080756886 3.5999999999999908
    vertex 74.51763809020504 59.53185165257812 27.799999999999983
    vertex 74.99999999999999 59.33205080756886 27.799999999999983
  endloop
endfacet
facet normal 0.13052619222005077 0.9914448613738106 1.3564310473772781e-17
  outer loop
    vertex 73.99999999999999 59.59999999999998 27.799999999999983
    vertex 74.51763809020504 59.53185165257812 3.5999999999999908
    vertex 73.99999999999999 59.59999999999998 3.5999999999999908
  endloop
endfacet
facet normal 0.13052619222005077 0.9914448613738106 1.3564310473772781e-17
  outer loop
    vertex 74.51763809020504 59.53185165257812 3.5999999999999908
    vertex 73.99999999999999 59.59999999999998 27.799999999999983
    vertex 74.51763809020504 59.53185165257812 27.799999999999983
  endloop
endfacet
facet normal 0.0 1.0 0.0
  outer loop
    vertex 7.4 12.599999999999985 27.799999999999983
    vertex 35.99999999999999 12.599999999999985 26.59999999999998
    vertex 7.4 12.599999999999985 26.59999999999998
  endloop
endfacet
facet normal 0.0 1.0 0.0
  outer loop
    vertex 35.99999999999999 12.599999999999985 26.59999999999998
    vertex 7.4 12.599999999999985 27.799999999999983
    vertex 35.99999999999999 12.599999999999985 27.799999999999983
  endloop
endfacet
facet normal 0.9238795325112884 0.38268343236508595 7.591434780211519e-17
  outer loop
    vertex 75.73205080756887 58.59999999999998 3.5999999999999908
    vertex 75.93185165257812 58.11763809020503 27.799999999999983
    vertex 75.93185165257812 58.11763809020503 3.5999999999999908
  endloop
endfacet
facet normal 0.9238795325112884 0.38268343236508595 7.591434780211519e-17
  outer loop
    vertex 75.93185165257812 58.11763809020503 27.799999999999983
    vertex 75.73205080756887 58.59999999999998 3.5999999999999908
    vertex 75.73205080756887 58.59999999999998 27.799999999999983
  endloop
endfacet
facet normal 0.6087614290087162 -0.7933533402912388 0.0
  outer loop
    vertex 57.0 45.06410161513775 27.799999999999983
    vertex 56.171572875253794 44.428427124746186 26.59999999999998
    vertex 57.0 45.06410161513775 26.59999999999998
  endloop
endfacet
facet normal 0.6087614290087162 -0.7933533402912388 0.0
  outer loop
    vertex 56.171572875253794 44.428427124746186 26.59999999999998
    vertex 57.0 45.06410161513775 27.799999999999983
    vertex 56.171572875253794 44.428427124746186 27.799999999999983
  endloop
endfacet
facet normal 0.0 0.0 -1.0
  outer loop
    vertex 1.6000000000000005 57.999999999999986 26.59999999999998
    vertex 7.4 41.59999999999999 26.59999999999998
    vertex 1.6000000000000005 3.1999999999999855 26.59999999999998
  endloop
endfacet
facet normal 0.0 0.0 -1.0
  outer loop
    vertex 7.4 41.59999999999999 26.59999999999998
    vertex 1.6000000000000005 57.999999999999986 26.59999999999998
    vertex 74.39999999999999 57.999999999999986 26.59999999999998
  endloop
endfacet
facet normal 0.0 0.0 -1.0
  outer loop
    vertex 7.4 41.59999999999999 26.59999999999998
    vertex 74.39999999999999 57.999999999999986 26.59999999999998
    vertex 35.99999999999999 41.59999999999999 26.59999999999998
  endloop
endfacet
facet normal 0.0 0.0 -1.0
  outer loop
    vertex 35.99999999999999 41.59999999999999 26.59999999999998
    vertex 74.39999999999999 57.999999999999986 26.59999999999998
    vertex 57.0 45.06410161513775 26.59999999999998
  endloop
endfacet
facet normal 0.0 0.0 -1.0
  outer loop
    vertex 35.99999999999999 41.59999999999999 26.59999999999998
    vertex 57.0 45.06410161513775 26.59999999999998
    vertex 56.171572875253794 44.428427124746186 26.59999999999998
  endloop
endfacet
facet normal 0.0 0.0 -1.0
  outer loop
    vertex 35.99999999999999 41.59999999999999 26.59999999999998
    vertex 56.171572875253794 44.428427124746186 26.59999999999998
    vertex 55.535898384862236 43.599999999999994 26.59999999999998
  endloop
endfacet
facet normal 0.0 0.0 -1.0
  outer loop
    vertex 35.99999999999999 41.59999999999999 26.59999999999998
    vertex 55.535898384862236 43.599999999999994 26.59999999999998
    vertex 35.99999999999999 12.599999999999985 26.59999999999998
  endloop
endfacet
facet normal 0.0 0.0 -1.0
  outer loop
    vertex 35.99999999999999 12.599999999999985 26.59999999999998
    vertex 55.535898384862236 43.599999999999994 26.59999999999998
    vertex 55.136296694843715 42.635276180410074 26.59999999999998
  endloop
endfacet
facet normal 0.0 0.0 -1.0
  outer loop
    vertex 35.99999999999999 12.599999999999985 26.59999999999998
    vertex 55.136296694843715 42.635276180410074 26.59999999999998
    vertex 54.99999999999999 41.599999999999994 26.59999999999998
  endloop
endfacet
facet normal 0.0 0.0 -1.0
  outer loop
    vertex 57.0 45.06410161513775 26.59999999999998
    vertex 74.39999999999999 57.999999999999986 26.59999999999998
    vertex 57.96472381958991 45.463703305156265 26.59999999999998
  endloop
endfacet
facet normal 0.0 0.0 -1.0
  outer loop
    vertex 57.96472381958991 45.463703305156265 26.59999999999998
    vertex 74.39999999999999 57.999999999999986 26.59999999999998
    vertex 58.99999999999999 45.599999999999994 26.59999999999998
  endloop
endfacet
facet normal 0.0 0.0 -1.0
  outer loop
    vertex 58.99999999999999 45.599999999999994 26.59999999999998
    vertex 74.39999999999999 57.999999999999986 26.59999999999998
    vertex 60.03527618041007 45.463703305156265 26.59999999999998
  endloop
endfacet
facet normal 0.0 0.0 -1.0
  outer loop
    vertex 60.03527618041007 45.463703305156265 26.59999999999998
    vertex 74.39999999999999 57.999999999999986 26.59999999999998
    vertex 61.0 45.06410161513775 26.59999999999998
  endloop
endfacet
facet normal 0.0 0.0 -1.0
  outer loop
    vertex 61.0 45.06410161513775 26.59999999999998
    vertex 74.39999999999999 57.999999999999986 26.59999999999998
    vertex 61.82842712474619 44.428427124746186 26.59999999999998
  endloop
endfacet
facet normal 0.0 0.0 -1.0
  outer loop
    vertex 61.82842712474619 44.428427124746186 26.59999999999998
    vertex 74.39999999999999 57.999999999999986 26.59999999999998
    vertex 62.46410161513775 43.599999999999994 26.59999999999998
  endloop
endfacet
facet normal 0.0 0.0 -1.0
  outer loop
    vertex 62.46410161513775 43.599999999999994 26.59999999999998
    vertex 74.39999999999999 57.999999999999986 26.59999999999998
    vertex 62.86370330515627 42.635276180410074 26.59999999999998
  endloop
endfacet
facet normal 0.0 0.0 -1.0
  outer loop
    vertex 62.86370330515627 42.635276180410074 26.59999999999998
    vertex 74.39999999999999 57.999999999999986 26.59999999999998
    vertex 63.0 41.599999999999994 26.59999999999998
  endloop
endfacet
facet normal 0.0 0.0 -1.0
  outer loop
    vertex 1.6000000000000005 3.1999999999999855 26.59999999999998
    vertex 7.4 12.599999999999985 26.59999999999998
    vertex 74.39999999999999 3.1999999999999855 26.59999999999998
  endloop
endfacet
facet normal 0.0 0.0 -1.0
  outer loop
    vertex 7.4 12.599999999999985 26.59999999999998
    vertex 1.6000000000000005 3.1999999999999855 26.59999999999998
    vertex 7.4 41.59999999999999 26.59999999999998
  endloop
endfacet
facet normal 0.0 0.0 -1.0
  outer loop
    vertex 74.39999999999999 3.1999999999999855 26.59999999999998
    vertex 7.4 12.599999999999985 26.59999999999998
    vertex 35.99999999999999 12.599999999999985 26.59999999999998
  endloop
endfacet
facet normal 0.0 0.0 -1.0
  outer loop
    vertex 74.39999999999999 3.1999999999999855 26.59999999999998
    vertex 35.99999999999999 12.599999999999985 26.59999999999998
    vertex 55.535898384862236 39.59999999999999 26.59999999999998
  endloop
endfacet
facet normal 0.0 0.0 -1.0
  outer loop
    vertex 55.535898384862236 39.59999999999999 26.59999999999998
    vertex 35.99999999999999 12.599999999999985 26.59999999999998
    vertex 55.136296694843715 40.564723819589915 26.59999999999998
  endloop
endfacet
facet normal 0.0 0.0 -1.0
  outer loop
    vertex 55.136296694843715 40.564723819589915 26.59999999999998
    vertex 35.99999999999999 12.599999999999985 26.59999999999998
    vertex 54.99999999999999 41.599999999999994 26.59999999999998
  endloop
endfacet
facet normal 0.0 0.0 -1.0
  outer loop
    vertex 74.39999999999999 3.1999999999999855 26.59999999999998
    vertex 55.535898384862236 39.59999999999999 26.59999999999998
    vertex 56.171572875253794 38.7715728752538 26.59999999999998
  endloop
endfacet
facet normal 0.0 0.0 -1.0
  outer loop
    vertex 74.39999999999999 3.1999999999999855 26.59999999999998
    vertex 56.171572875253794 38.7715728752538 26.59999999999998
    vertex 56.999999999999986 38.13589838486224 26.59999999999998
  endloop
endfacet
facet normal 0.0 0.0 -1.0
  outer loop
    vertex 74.39999999999999 3.1999999999999855 26.59999999999998
    vertex 56.999999999999986 38.13589838486224 26.59999999999998
    vertex 57.9647238195899 37.736296694843716 26.59999999999998
  endloop
endfacet
facet normal 0.0 0.0 -1.0
  outer loop
    vertex 74.39999999999999 3.1999999999999855 26.59999999999998
    vertex 57.9647238195899 37.736296694843716 26.59999999999998
    vertex 58.99999999999999 37.59999999999999 26.59999999999998
  endloop
endfacet
facet normal 0.0 0.0 -1.0
  outer loop
    vertex 74.39999999999999 3.1999999999999855 26.59999999999998
    vertex 58.99999999999999 37.59999999999999 26.59999999999998
    vertex 60.03527618041007 37.736296694843716 26.59999999999998
  endloop
endfacet
facet normal 0.0 0.0 -1.0
  outer loop
    vertex 74.39999999999999 3.1999999999999855 26.59999999999998
    vertex 60.03527618041007 37.736296694843716 26.59999999999998
    vertex 60.99999999999999 38.13589838486223 26.59999999999998
  endloop
endfacet
facet normal 0.0 0.0 -1.0
  outer loop
    vertex 74.39999999999999 3.1999999999999855 26.59999999999998
    vertex 60.99999999999999 38.13589838486223 26.59999999999998
    vertex 61.82842712474619 38.7715728752538 26.59999999999998
  endloop
endfacet
facet normal 0.0 0.0 -1.0
  outer loop
    vertex 74.39999999999999 3.1999999999999855 26.59999999999998
    vertex 61.82842712474619 38.7715728752538 26.59999999999998
    vertex 62.46410161513775 39.59999999999999 26.59999999999998
  endloop
endfacet
facet normal 0.0 0.0 -1.0
  outer loop
    vertex 74.39999999999999 3.1999999999999855 26.59999999999998
    vertex 62.46410161513775 39.59999999999999 26.59999999999998
    vertex 62.86370330515627 40.56472381958991 26.59999999999998
  endloop
endfacet
facet normal 0.0 0.0 -1.0
  outer loop
    vertex 74.39999999999999 3.1999999999999855 26.59999999999998
    vertex 62.86370330515627 40.56472381958991 26.59999999999998
    vertex 63.0 41.599999999999994 26.59999999999998
  endloop
endfacet
facet normal 0.0 0.0 -1.0
  outer loop
    vertex 74.39999999999999 3.1999999999999855 26.59999999999998
    vertex 63.0 41.599999999999994 26.59999999999998
    vertex 74.39999999999999 57.999999999999986 26.59999999999998
  endloop
endfacet
facet normal 0.6087614290087213 0.7933533402912347 0.0
  outer loop
    vertex 56.171572875253794 38.7715728752538 27.799999999999983
    vertex 56.999999999999986 38.13589838486224 26.59999999999998
    vertex 56.171572875253794 38.7715728752538 26.59999999999998
  endloop
endfacet
facet normal 0.6087614290087213 0.7933533402912347 0.0
  outer loop
    vertex 56.999999999999986 38.13589838486224 26.59999999999998
    vertex 56.171572875253794 38.7715728752538 27.799999999999983
    vertex 56.999999999999986 38.13589838486224 27.799999999999983
  endloop
endfacet
endsolid tft
