solid tft
facet normal 0.0 0.0 -1.0
  outer loop
    vertex 5.400000000000001 43.59999999999999 27.799999999999983
    vertex 7.400000000000002 41.599999999999994 27.799999999999983
    vertex 5.400000000000001 10.599999999999994 27.799999999999983
  endloop
endfacet
facet normal 0.0 0.0 -1.0
  outer loop
    vertex 7.400000000000002 41.599999999999994 27.799999999999983
    vertex 5.400000000000001 43.59999999999999 27.799999999999983
    vertex 38.0 43.59999999999999 27.799999999999983
  endloop
endfacet
facet normal 0.0 0.0 -1.0
  outer loop
    vertex 7.400000000000002 41.599999999999994 27.799999999999983
    vertex 38.0 43.59999999999999 27.799999999999983
    vertex 35.99999999999999 41.599999999999994 27.799999999999983
  endloop
endfacet
facet normal 0.0 0.0 -1.0
  outer loop
    vertex 35.99999999999999 41.599999999999994 27.799999999999983
    vertex 38.0 43.59999999999999 27.799999999999983
    vertex 35.99999999999999 12.59999999999999 27.799999999999983
  endloop
endfacet
facet normal 0.0 0.0 -1.0
  outer loop
    vertex 5.400000000000001 10.599999999999994 27.799999999999983
    vertex 7.400000000000002 12.59999999999999 27.799999999999983
    vertex 38.0 10.599999999999993 27.799999999999983
  endloop
endfacet
facet normal 0.0 0.0 -1.0
  outer loop
    vertex 7.400000000000002 12.59999999999999 27.799999999999983
    vertex 5.400000000000001 10.599999999999994 27.799999999999983
    vertex 7.400000000000002 41.599999999999994 27.799999999999983
  endloop
endfacet
facet normal 0.0 0.0 -1.0
  outer loop
    vertex 38.0 10.599999999999993 27.799999999999983
    vertex 7.400000000000002 12.59999999999999 27.799999999999983
    vertex 35.99999999999999 12.59999999999999 27.799999999999983
  endloop
endfacet
facet normal 0.0 0.0 -1.0
  outer loop
    vertex 38.0 10.599999999999993 27.799999999999983
    vertex 35.99999999999999 12.59999999999999 27.799999999999983
    vertex 38.0 43.59999999999999 27.799999999999983
  endloop
endfacet
facet normal 0.0 0.0 1.0
  outer loop
    vertex 5.400000000000001 10.599999999999994 29.799999999999986
    vertex 7.400000000000002 12.59999999999999 29.799999999999986
    vertex 5.400000000000001 43.59999999999999 29.799999999999986
  endloop
endfacet
facet normal 0.0 0.0 1.0
  outer loop
    vertex 7.400000000000002 12.59999999999999 29.799999999999986
    vertex 5.400000000000001 10.599999999999994 29.799999999999986
    vertex 38.0 10.599999999999993 29.799999999999986
  endloop
endfacet
facet normal 0.0 0.0 1.0
  outer loop
    vertex 7.400000000000002 12.59999999999999 29.799999999999986
    vertex 38.0 10.599999999999993 29.799999999999986
    vertex 35.99999999999999 12.59999999999999 29.799999999999986
  endloop
endfacet
facet normal 0.0 0.0 1.0
  outer loop
    vertex 35.99999999999999 12.59999999999999 29.799999999999986
    vertex 38.0 10.599999999999993 29.799999999999986
    vertex 35.99999999999999 41.599999999999994 29.799999999999986
  endloop
endfacet
facet normal 0.0 0.0 1.0
  outer loop
    vertex 5.400000000000001 43.59999999999999 29.799999999999986
    vertex 7.400000000000002 41.599999999999994 29.799999999999986
    vertex 38.0 43.59999999999999 29.799999999999986
  endloop
endfacet
facet normal 0.0 0.0 1.0
  outer loop
    vertex 7.400000000000002 41.599999999999994 29.799999999999986
    vertex 5.400000000000001 43.59999999999999 29.799999999999986
    vertex 7.400000000000002 12.59999999999999 29.799999999999986
  endloop
endfacet
facet normal 0.0 0.0 1.0
  outer loop
    vertex 38.0 43.59999999999999 29.799999999999986
    vertex 7.400000000000002 41.599999999999994 29.799999999999986
    vertex 35.99999999999999 41.599999999999994 29.799999999999986
  endloop
endfacet
facet normal 0.0 0.0 1.0
  outer loop
    vertex 38.0 43.59999999999999 29.799999999999986
    vertex 35.99999999999999 41.599999999999994 29.799999999999986
    vertex 38.0 10.599999999999993 29.799999999999986
  endloop
endfacet
facet normal 0.0 1.0 0.0
  outer loop
    vertex 5.400000000000001 43.59999999999999 29.799999999999986
    vertex 38.0 43.59999999999999 27.799999999999983
    vertex 5.400000000000001 43.59999999999999 27.799999999999983
  endloop
endfacet
facet normal 0.0 1.0 0.0
  outer loop
    vertex 38.0 43.59999999999999 27.799999999999983
    vertex 5.400000000000001 43.59999999999999 29.799999999999986
    vertex 38.0 43.59999999999999 29.799999999999986
  endloop
endfacet
facet normal -0.0 -1.0 -0.0
  outer loop
    vertex 35.99999999999999 41.599999999999994 29.799999999999986
    vertex 7.400000000000002 41.599999999999994 27.799999999999983
    vertex 35.99999999999999 41.599999999999994 27.799999999999983
  endloop
endfacet
facet normal -0.0 -1.0 -0.0
  outer loop
    vertex 7.400000000000002 41.599999999999994 27.799999999999983
    vertex 35.99999999999999 41.599999999999994 29.799999999999986
    vertex 7.400000000000002 41.599999999999994 29.799999999999986
  endloop
endfacet
facet normal 0.0 1.0 0.0
  outer loop
    vertex 7.400000000000002 12.59999999999999 29.799999999999986
    vertex 35.99999999999999 12.59999999999999 27.799999999999983
    vertex 7.400000000000002 12.59999999999999 27.799999999999983
  endloop
endfacet
facet normal 0.0 1.0 0.0
  outer loop
    vertex 35.99999999999999 12.59999999999999 27.799999999999983
    vertex 7.400000000000002 12.59999999999999 29.799999999999986
    vertex 35.99999999999999 12.59999999999999 29.799999999999986
  endloop
endfacet
facet normal -1.0 0.0 0.0
  outer loop
    vertex 35.99999999999999 41.599999999999994 29.799999999999986
    vertex 35.99999999999999 12.59999999999999 27.799999999999983
    vertex 35.99999999999999 12.59999999999999 29.799999999999986
  endloop
endfacet
facet normal -1.0 0.0 0.0
  outer loop
    vertex 35.99999999999999 12.59999999999999 27.799999999999983
    vertex 35.99999999999999 41.599999999999994 29.799999999999986
    vertex 35.99999999999999 41.599999999999994 27.799999999999983
  endloop
endfacet
facet normal -8.650203934196006e-17 -1.0 -0.0
  outer loop
    vertex 38.0 10.599999999999993 29.799999999999986
    vertex 5.400000000000001 10.599999999999994 27.799999999999983
    vertex 38.0 10.599999999999993 27.799999999999983
  endloop
endfacet
facet normal -8.650203934196006e-17 -1.0 -0.0
  outer loop
    vertex 5.400000000000001 10.599999999999994 27.799999999999983
    vertex 38.0 10.599999999999993 29.799999999999986
    vertex 5.400000000000001 10.599999999999994 29.799999999999986
  endloop
endfacet
facet normal 1.0 0.0 0.0
  outer loop
    vertex 38.0 43.59999999999999 27.799999999999983
    vertex 38.0 10.599999999999993 29.799999999999986
    vertex 38.0 10.599999999999993 27.799999999999983
  endloop
endfacet
facet normal 1.0 0.0 0.0
  outer loop
    vertex 38.0 10.599999999999993 29.799999999999986
    vertex 38.0 43.59999999999999 27.799999999999983
    vertex 38.0 43.59999999999999 29.799999999999986
  endloop
endfacet
facet normal 1.0 0.0 0.0
  outer loop
    vertex 7.400000000000002 41.599999999999994 27.799999999999983
    vertex 7.400000000000002 12.59999999999999 29.799999999999986
    vertex 7.400000000000002 12.59999999999999 27.799999999999983
  endloop
endfacet
facet normal 1.0 0.0 0.0
  outer loop
    vertex 7.400000000000002 12.59999999999999 29.799999999999986
    vertex 7.400000000000002 41.599999999999994 27.799999999999983
    vertex 7.400000000000002 41.599999999999994 29.799999999999986
  endloop
endfacet
facet normal -1.0 0.0 0.0
  outer loop
    vertex 5.400000000000001 43.59999999999999 29.799999999999986
    vertex 5.400000000000001 10.599999999999994 27.799999999999983
    vertex 5.400000000000001 10.599999999999994 29.799999999999986
  endloop
endfacet
facet normal -1.0 0.0 0.0
  outer loop
    vertex 5.400000000000001 10.599999999999994 27.799999999999983
    vertex 5.400000000000001 43.59999999999999 29.799999999999986
    vertex 5.400000000000001 43.59999999999999 27.799999999999983
  endloop
endfacet
endsolid tft
