solid 7segments
facet normal -0.9999999999999998 1.3977544002229882e-08 -1.3977541912000835e-08
  outer loop
    vertex 111.29350397979915 14.774046147748273 7.00000000000001
    vertex 111.29350397979915 4.774046147748272 -2.9999999999999925
    vertex 111.29350397979915 4.774046147748272 7.00000000000001
  endloop
endfacet
facet normal -0.9999999999999998 1.3977544002229882e-08 -1.3977541912000835e-08
  outer loop
    vertex 111.29350397979915 4.774046147748272 -2.9999999999999925
    vertex 111.29350397979915 14.774046147748273 7.00000000000001
    vertex 111.29350425935003 14.77404913858795 -2.999999999999978
  endloop
endfacet
facet normal -0.9999999999999998 1.3977544002229882e-08 -1.3977541912000835e-08
  outer loop
    vertex 111.29350425935003 14.77404913858795 -2.999999999999978
    vertex 111.29350397979915 14.774046147748273 7.00000000000001
    vertex 111.29350397979915 18.774046147748095 7.000001196335882
  endloop
endfacet
facet normal -0.9999999999999998 1.3977544002229882e-08 -1.3977541912000835e-08
  outer loop
    vertex 111.29350425935003 14.77404913858795 -2.999999999999978
    vertex 111.29350397979915 18.774046147748095 7.000001196335882
    vertex 111.29350425935003 18.774049138587774 -2.9999988036641057
  endloop
endfacet
facet normal -1.1209413112577588e-15 7.836082219096217e-17 1.0
  outer loop
    vertex 0.001851197480125371 39.77404614997923 0.9999999999999974
    vertex 4.293503979799186 51.77404614609603 1.0000000000000018
    vertex 0.0010934584985655075 51.77404614609603 0.999999999999996
  endloop
endfacet
facet normal -1.1209413112577588e-15 7.836082219096217e-17 1.0
  outer loop
    vertex 4.293503979799186 51.77404614609603 1.0000000000000018
    vertex 0.001851197480125371 39.77404614997923 0.9999999999999974
    vertex 4.29350397979919 39.77404614997923 1.0000000000000024
  endloop
endfacet
facet normal -1.4964181342844072e-07 2.864705710798038e-08 -0.9999999999999885
  outer loop
    vertex 114.49350218812909 48.77404614774831 -3.0000000651813017
    vertex 111.29350401474302 44.77404614774829 -2.9999997009160007
    vertex 111.29350401474302 48.77404614774828 -2.9999997009159984
  endloop
endfacet
facet normal -1.4964181342844072e-07 2.864705710798038e-08 -0.9999999999999885
  outer loop
    vertex 111.29350401474302 44.77404614774829 -2.9999997009160007
    vertex 114.49350218812909 48.77404614774831 -3.0000000651813017
    vertex 114.49350218812909 44.774046147748344 -3.0000002943577564
  endloop
endfacet
facet normal -3.472818696534227e-12 -0.9999999999987567 1.5769043515689996e-06
  outer loop
    vertex 4.293499567892109 20.77406907418409 0.9999905362301997
    vertex 2.0125047762659904 20.77406276648716 -2.9999915996122897
    vertex 4.293503979799198 20.77406276656668 -3.0000094637623955
  endloop
endfacet
facet normal -3.472818696534227e-12 -0.9999999999987567 1.5769043515689996e-06
  outer loop
    vertex 2.0125047762659904 20.77406276648716 -2.9999915996122897
    vertex 4.293499567892109 20.77406907418409 0.9999905362301997
    vertex 2.0124483585353645 20.774058128460528 8.399853632024002e-06
  endloop
endfacet
facet normal -3.472818696534227e-12 -0.9999999999987567 1.5769043515689996e-06
  outer loop
    vertex 2.0124483585353645 20.774058128460528 8.399853632024002e-06
    vertex 4.293499567892109 20.77406907418409 0.9999905362301997
    vertex -0.0029032824595446303 20.774069074184084 0.9999810724677982
  endloop
endfacet
facet normal -3.472818696534227e-12 -0.9999999999987567 1.5769043515689996e-06
  outer loop
    vertex -0.0029032824595446303 20.774069074184084 0.9999810724677982
    vertex -0.002955288283080919 20.774058128540045 -1.8928058873846074e-05
    vertex 2.0124483585353645 20.774058128460528 8.399853632024002e-06
  endloop
endfacet
facet normal -0.8075270566181947 0.5898305289059999 1.5431687541241586e-07
  outer loop
    vertex 0.4935038884143814 65.46349902492797 -2.662168490097372e-07
    vertex 0.17249350909515732 65.0240105734251 -4.200008150994089
    vertex 0.1724937432106665 65.02400943427938 -2.346756522109139e-07
  endloop
endfacet
facet normal -0.8075270566181947 0.5898305289059999 1.5431687541241586e-07
  outer loop
    vertex 0.17249350909515732 65.0240105734251 -4.200008150994089
    vertex 0.4935038884143814 65.46349902492797 -2.662168490097372e-07
    vertex 0.4935036542988726 65.4635001640737 -4.200008182535284
  endloop
endfacet
facet normal 1.3078966957552915e-07 3.429054414403163e-07 -0.9999999999999327
  outer loop
    vertex 0.17249350909515732 65.0240105734251 -4.200008150994089
    vertex 0.0003899222752822703 1.4298481137854773 -4.200033855367416
    vertex 0.0003892925250572081 64.50769792371472 -4.200008059360088
  endloop
endfacet
facet normal 1.3078966957552915e-07 3.429054414403163e-07 -0.9999999999999327
  outer loop
    vertex 0.0003899222752822703 1.4298481137854773 -4.200033855367416
    vertex 0.17249350909515732 65.0240105734251 -4.200008150994089
    vertex 0.1724941388453985 0.9135354640751169 -4.2000338201822345
  endloop
endfacet
facet normal 1.3078966957552915e-07 3.429054414403163e-07 -0.9999999999999327
  outer loop
    vertex 0.1724941388453985 0.9135354640751169 -4.2000338201822345
    vertex 0.17249350909515732 65.0240105734251 -4.200008150994089
    vertex 0.4935036542988726 65.4635001640737 -4.200008182535284
  endloop
endfacet
facet normal 1.3078966957552915e-07 3.429054414403163e-07 -0.9999999999999327
  outer loop
    vertex 0.1724941388453985 0.9135354640751169 -4.2000338201822345
    vertex 0.4935036542988726 65.4635001640737 -4.200008182535284
    vertex 0.49350428404909685 0.4740458734265511 -4.200033754554557
  endloop
endfacet
facet normal 1.3078966957552915e-07 3.429054414403163e-07 -0.9999999999999327
  outer loop
    vertex 0.49350428404909685 0.4740458734265511 -4.200033754554557
    vertex 0.4935036542988726 65.4635001640737 -4.200008182535284
    vertex 0.9329932449474649 65.78451030927741 -4.200008150994089
  endloop
endfacet
facet normal 1.3078966957552915e-07 3.429054414403163e-07 -0.9999999999999327
  outer loop
    vertex 0.49350428404909685 0.4740458734265511 -4.200033754554557
    vertex 0.9329932449474649 65.78451030927741 -4.200008150994089
    vertex 0.9329938746976522 0.15303572822284334 -4.200033664704807
  endloop
endfacet
facet normal 1.3078966957552915e-07 3.429054414403163e-07 -0.9999999999999327
  outer loop
    vertex 0.9329938746976522 0.15303572822284334 -4.200033664704807
    vertex 0.9329932449474649 65.78451030927741 -4.200008150994089
    vertex 1.449305894657853 65.9566145258475 -4.200008059360088
  endloop
endfacet
facet normal 1.3078966957552915e-07 3.429054414403163e-07 -0.9999999999999327
  outer loop
    vertex 0.9329938746976522 0.15303572822284334 -4.200033664704807
    vertex 1.449305894657853 65.9566145258475 -4.200008059360088
    vertex 1.4493065244080008 -0.019068488347279474 -4.200033559149264
  endloop
endfacet
facet normal 1.3078966957552915e-07 3.429054414403163e-07 -0.9999999999999327
  outer loop
    vertex 1.4493065244080008 -0.019068488347279474 -4.200033559149264
    vertex 1.449305894657853 65.9566145258475 -4.200008059360088
    vertex 155.98290871542858 65.96005720591387 -4.1999911065693185
  endloop
endfacet
facet normal 1.3078966957552915e-07 3.429054414403163e-07 -0.9999999999999327
  outer loop
    vertex 1.4493065244080008 -0.019068488347279474 -4.200033559149264
    vertex 155.98290871542858 65.96005720591387 -4.1999911065693185
    vertex 156.5271068641371 -0.019068519494122856 -4.200009993912558
  endloop
endfacet
facet normal 1.3078966957552915e-07 3.429054414403163e-07 -0.9999999999999327
  outer loop
    vertex 156.5271068641371 -0.019068519494122856 -4.200009993912558
    vertex 155.98290871542858 65.96005720591387 -4.1999911065693185
    vertex 156.52710620494094 65.95661419313444 -4.199991046869254
  endloop
endfacet
facet normal 1.3078966957552915e-07 3.429054414403163e-07 -0.9999999999999327
  outer loop
    vertex 156.5271068641371 -0.019068519494122856 -4.200009993912558
    vertex 156.52710620494094 65.95661419313444 -4.199991046869254
    vertex 157.04341885465126 65.7845099765643 -4.199990982821823
  endloop
endfacet
facet normal 1.3078966957552915e-07 3.429054414403163e-07 -0.9999999999999327
  outer loop
    vertex 156.5271068641371 -0.019068519494122856 -4.200009993912558
    vertex 157.04341885465126 65.7845099765643 -4.199990982821823
    vertex 157.04341951384743 0.1530356970760012 -4.2000099189244295
  endloop
endfacet
facet normal 1.3078966957552915e-07 3.429054414403163e-07 -0.9999999999999327
  outer loop
    vertex 157.04341951384743 0.1530356970760012 -4.2000099189244295
    vertex 157.04341885465126 65.7845099765643 -4.199990982821823
    vertex 157.4829084452998 65.4634998313606 -4.199990967799778
  endloop
endfacet
facet normal 1.3078966957552915e-07 3.429054414403163e-07 -0.9999999999999327
  outer loop
    vertex 157.04341951384743 0.1530356970760012 -4.2000099189244295
    vertex 157.4829084452998 65.4634998313606 -4.199990967799778
    vertex 157.482909104496 0.47404584227970487 -4.200009832572619
  endloop
endfacet
facet normal 1.3078966957552915e-07 3.429054414403163e-07 -0.9999999999999327
  outer loop
    vertex 157.482909104496 0.47404584227970487 -4.200009832572619
    vertex 157.4829084452998 65.4634998313606 -4.199990967799778
    vertex 157.8039185905035 65.02401024071204 -4.19999100322696
  endloop
endfacet
facet normal 1.3078966957552915e-07 3.429054414403163e-07 -0.9999999999999327
  outer loop
    vertex 157.482909104496 0.47404584227970487 -4.200009832572619
    vertex 157.8039185905035 65.02401024071204 -4.19999100322696
    vertex 157.8039192496997 0.9135354329282633 -4.200009743041862
  endloop
endfacet
facet normal 1.3078966957552915e-07 3.429054414403163e-07 -0.9999999999999327
  outer loop
    vertex 157.8039192496997 0.9135354329282633 -4.200009743041862
    vertex 157.8039185905035 65.02401024071204 -4.19999100322696
    vertex 157.97602280707366 64.5076975910017 -4.1999910857454585
  endloop
endfacet
facet normal 1.3078966957552915e-07 3.429054414403163e-07 -0.9999999999999327
  outer loop
    vertex 157.8039192496997 0.9135354329282633 -4.200009743041862
    vertex 157.97602280707366 64.5076975910017 -4.1999910857454585
    vertex 157.9760234662698 1.4298480826386142 -4.2000096588182005
  endloop
endfacet
facet normal 0.3162277660168956 0.9486832980504913 -7.92213685735047e-08
  outer loop
    vertex 156.52710647507703 65.95661457929954 -2.9999998929978293
    vertex 157.04341885465126 65.7845099765643 -4.199990982821823
    vertex 156.52710620494094 65.95661419313444 -4.199991046869254
  endloop
endfacet
facet normal 0.3162277660168956 0.9486832980504913 -7.92213685735047e-08
  outer loop
    vertex 157.04341885465126 65.7845099765643 -4.199990982821823
    vertex 156.52710647507703 65.95661457929954 -2.9999998929978293
    vertex 157.0434190334026 65.78450917013154 1.7104936321787888e-07
  endloop
endfacet
facet normal 0.3162277660168956 0.9486832980504913 -7.92213685735047e-08
  outer loop
    vertex 157.0434190334026 65.78450917013154 1.7104936321787888e-07
    vertex 156.52710647507703 65.95661457929954 -2.9999998929978293
    vertex 156.52710638369228 65.95661338670169 1.0700193197044072e-07
  endloop
endfacet
facet normal -0.0 -1.0 -0.0
  outer loop
    vertex 111.29350397979915 4.774046147748272 7.00000000000001
    vertex 107.29350397979915 4.774046147748272 -2.9999999999999925
    vertex 111.29350397979915 4.774046147748272 -2.9999999999999925
  endloop
endfacet
facet normal -0.0 -1.0 -0.0
  outer loop
    vertex 107.29350397979915 4.774046147748272 -2.9999999999999925
    vertex 111.29350397979915 4.774046147748272 7.00000000000001
    vertex 107.29350397979915 4.774046147748272 7.00000000000001
  endloop
endfacet
facet normal 2.6436689443928526e-08 2.864705710798068e-08 -0.9999999999999993
  outer loop
    vertex 121.29350397979915 48.77404614774828 -2.9999999999999925
    vertex 114.49350218812909 44.774046147748344 -3.0000002943577564
    vertex 114.49350218812909 48.77404614774831 -3.0000000651813017
  endloop
endfacet
facet normal 2.6436689443928526e-08 2.864705710798068e-08 -0.9999999999999993
  outer loop
    vertex 114.49350218812909 44.774046147748344 -3.0000002943577564
    vertex 121.29350397979915 48.77404614774828 -2.9999999999999925
    vertex 121.29350397979915 44.77404614774828 -2.9999999999999947
  endloop
endfacet
facet normal 0.7071067811865474 -7.97606995653654e-16 0.7071067811865477
  outer loop
    vertex 121.29350397979915 44.77404614774828 -2.9999999999999947
    vertex 111.29350397979915 48.77404614774828 7.00000000000001
    vertex 111.29350397979915 44.77404614774828 7.000000000000007
  endloop
endfacet
facet normal 0.7071067811865474 -7.97606995653654e-16 0.7071067811865477
  outer loop
    vertex 111.29350397979915 48.77404614774828 7.00000000000001
    vertex 121.29350397979915 44.77404614774828 -2.9999999999999947
    vertex 121.29350397979915 48.77404614774828 -2.9999999999999925
  endloop
endfacet
facet normal -0.5898305289060027 -0.8075270566181982 -1.2058562201966567e-07
  outer loop
    vertex 0.9329938746976522 0.15303572822284334 -4.200033664704807
    vertex 0.49350388841444415 0.4740449551503409 -3.3967890459618566e-05
    vertex 0.49350428404909685 0.4740458734265511 -4.200033754554557
  endloop
endfacet
facet normal -0.5898305289060027 -0.8075270566181982 -1.2058562201966567e-07
  outer loop
    vertex 0.49350388841444415 0.4740449551503409 -3.3967890459618566e-05
    vertex 0.9329938746976522 0.15303572822284334 -4.200033664704807
    vertex 0.932993479062999 0.15303480994663304 -3.3878040708701374e-05
  endloop
endfacet
facet normal -0.9999995076472298 1.1743928539075589e-05 -0.0009922536865784814
  outer loop
    vertex -0.0029032824595446303 20.774069074184084 0.9999810724677982
    vertex -0.002955288283080919 20.774058128540045 -1.8928058873846074e-05
    vertex 0.0034036971966140686 11.774052455365654 0.9999999999925929
  endloop
endfacet
facet normal -0.9999995076472298 1.1743928539075589e-05 -0.0009922536865784814
  outer loop
    vertex 0.0010934584985655075 51.77404614609603 0.999999999999996
    vertex 0.00109336711382185 51.77404495349819 -2.425171174991192e-13
    vertex 0.001851197480125371 39.77404614997923 0.9999999999999974
  endloop
endfacet
facet normal -0.9999995076472298 1.1743928539075589e-05 -0.0009922536865784814
  outer loop
    vertex 0.0034080177189554327 11.7740449551504 -2.396971510165713e-13
    vertex 0.0003899222752822703 1.4298481137854773 -4.200033855367416
    vertex 0.00038952664062905594 1.4298471955092673 -3.4068703318090866e-05
  endloop
endfacet
facet normal -0.9999995076472298 1.1743928539075589e-05 -0.0009922536865784814
  outer loop
    vertex 0.0003899222752822703 1.4298481137854773 -4.200033855367416
    vertex 0.0034080177189554327 11.7740449551504 -2.396971510165713e-13
    vertex 0.0003892925250572081 64.50769792371472 -4.200008059360088
  endloop
endfacet
facet normal -0.9999995076472298 1.1743928539075589e-05 -0.0009922536865784814
  outer loop
    vertex 0.0003892925250572081 64.50769792371472 -4.200008059360088
    vertex 0.0034080177189554327 11.7740449551504 -2.396971510165713e-13
    vertex -0.002955288283080919 20.774058128540045 -1.8928058873846074e-05
  endloop
endfacet
facet normal -0.9999995076472298 1.1743928539075589e-05 -0.0009922536865784814
  outer loop
    vertex -0.002955288283080919 20.774058128540045 -1.8928058873846074e-05
    vertex 0.0034080177189554327 11.7740449551504 -2.396971510165713e-13
    vertex 0.0034036971966140686 11.774052455365654 0.9999999999925929
  endloop
endfacet
facet normal -0.9999995076472298 1.1743928539075589e-05 -0.0009922536865784814
  outer loop
    vertex 0.0003892925250572081 64.50769792371472 -4.200008059360088
    vertex -0.002955288283080919 20.774058128540045 -1.8928058873846074e-05
    vertex 0.0017947797495040602 39.77404151195259 -5.340805020459527e-10
  endloop
endfacet
facet normal -0.9999995076472298 1.1743928539075589e-05 -0.0009922536865784814
  outer loop
    vertex 0.0003892925250572081 64.50769792371472 -4.200008059360088
    vertex 0.0017947797495040602 39.77404151195259 -5.340805020459527e-10
    vertex 0.001851197480125371 39.77404614997923 0.9999999999999974
  endloop
endfacet
facet normal -0.9999995076472298 1.1743928539075589e-05 -0.0009922536865784814
  outer loop
    vertex 0.0003892925250572081 64.50769792371472 -4.200008059360088
    vertex 0.001851197480125371 39.77404614997923 0.9999999999999974
    vertex 0.00109336711382185 51.77404495349819 -2.425171174991192e-13
  endloop
endfacet
facet normal -0.9999995076472298 1.1743928539075589e-05 -0.0009922536865784814
  outer loop
    vertex 0.0003892925250572081 64.50769792371472 -4.200008059360088
    vertex 0.00109336711382185 51.77404495349819 -2.425171174991192e-13
    vertex 0.0003895266405663117 64.50769678456899 -1.4304165069090047e-07
  endloop
endfacet
facet normal 0.0 1.0 0.0
  outer loop
    vertex 107.29350397979915 58.77404614774827 7.00000000000001
    vertex 111.29350397979915 58.77404614774827 -2.9999999999999925
    vertex 107.29350397979915 58.77404614774827 -2.9999999999999925
  endloop
endfacet
facet normal 0.0 1.0 0.0
  outer loop
    vertex 111.29350397979915 58.77404614774827 -2.9999999999999925
    vertex 107.29350397979915 58.77404614774827 7.00000000000001
    vertex 111.29350397979915 58.77404614774827 7.00000000000001
  endloop
endfacet
facet normal -3.286587060807182e-16 0.9999999999987567 -1.5769043515728305e-06
  outer loop
    vertex 0.0034036971966140686 11.774052455365654 0.9999999999925929
    vertex 2.003409039082473 11.774044955150401 -2.382871677752973e-13
    vertex 0.0034080177189554327 11.7740449551504 -2.396971510165713e-13
  endloop
endfacet
facet normal -3.286587060807182e-16 0.9999999999987567 -1.5769043515728305e-06
  outer loop
    vertex 2.003409039082473 11.774044955150401 -2.382871677752973e-13
    vertex 4.293503979799199 11.77404614774825 -2.9999999999999973
    vertex 2.003409130467221 11.77404614774825 -3.0
  endloop
endfacet
facet normal -3.286587060807182e-16 0.9999999999987567 -1.5769043515728305e-06
  outer loop
    vertex 4.293503979799199 11.77404614774825 -2.9999999999999973
    vertex 2.003409039082473 11.774044955150401 -2.382871677752973e-13
    vertex 4.293499567892111 11.774052455365656 0.9999999999925971
  endloop
endfacet
facet normal -3.286587060807182e-16 0.9999999999987567 -1.5769043515728305e-06
  outer loop
    vertex 4.293499567892111 11.774052455365656 0.9999999999925971
    vertex 2.003409039082473 11.774044955150401 -2.382871677752973e-13
    vertex 0.0034036971966140686 11.774052455365654 0.9999999999925929
  endloop
endfacet
facet normal 1.2542802775920633e-15 1.0 1.8678676904386798e-15
  outer loop
    vertex 111.29350401474302 48.77404614774828 -2.9999997009159984
    vertex 121.29350397979915 48.77404614774828 -2.9999999999999925
    vertex 114.49350218812909 48.77404614774831 -3.0000000651813017
  endloop
endfacet
facet normal 1.2542802775920633e-15 1.0 1.8678676904386798e-15
  outer loop
    vertex 121.29350397979915 48.77404614774828 -2.9999999999999925
    vertex 111.29350401474302 48.77404614774828 -2.9999997009159984
    vertex 111.29350397979915 48.77404614774828 7.00000000000001
  endloop
endfacet
facet normal -1.0 -4.076783981005355e-09 -1.5724738735197228e-08
  outer loop
    vertex 111.29350397979915 44.77404614774828 7.000000000000007
    vertex 111.29350425935003 18.774049138587774 -2.9999988036641057
    vertex 111.29350397979915 18.774046147748095 7.000001196335882
  endloop
endfacet
facet normal -1.0 -4.076783981005355e-09 -1.5724738735197228e-08
  outer loop
    vertex 111.29350425935003 18.774049138587774 -2.9999988036641057
    vertex 111.29350397979915 44.77404614774828 7.000000000000007
    vertex 111.29350401474302 44.77404614774829 -2.9999997009160007
  endloop
endfacet
facet normal -0.5898305289059913 0.8075270566182007 1.5431687541241607e-07
  outer loop
    vertex 0.4935038884143814 65.46349902492797 -2.662168490097372e-07
    vertex 0.9329932449474649 65.78451030927741 -4.200008150994089
    vertex 0.4935036542988726 65.4635001640737 -4.200008182535284
  endloop
endfacet
facet normal -0.5898305289059913 0.8075270566182007 1.5431687541241607e-07
  outer loop
    vertex 0.9329932449474649 65.78451030927741 -4.200008150994089
    vertex 0.4935038884143814 65.46349902492797 -2.662168490097372e-07
    vertex 0.9329934790629734 65.78450917013167 -2.346756522109139e-07
  endloop
endfacet
facet normal 0.8075270566181667 -0.5898305289060215 2.0851972065942008e-07
  outer loop
    vertex 157.482909104496 0.47404584227970487 -4.200009832572619
    vertex 157.80391876925495 0.9135345457980322 -1.8720727738674723e-06
    vertex 157.48290862405125 0.4740449551494734 -1.9616035315861423e-06
  endloop
endfacet
facet normal 0.8075270566181667 -0.5898305289060215 2.0851972065942008e-07
  outer loop
    vertex 157.80391876925495 0.9135345457980322 -1.8720727738674723e-06
    vertex 157.482909104496 0.47404584227970487 -4.200009832572619
    vertex 157.8039192496997 0.9135354329282633 -4.200009743041862
  endloop
endfacet
facet normal -0.9999999999993918 -1.1600450889077732e-12 -1.1029767723759917e-06
  outer loop
    vertex 4.293499567892111 11.774052455365656 0.9999999999925971
    vertex 4.293503979799198 20.77406276656668 -3.0000094637623955
    vertex 4.293503979799199 11.77404614774825 -2.9999999999999973
  endloop
endfacet
facet normal -0.9999999999993918 -1.1600450889077732e-12 -1.1029767723759917e-06
  outer loop
    vertex 4.293503979799198 20.77406276656668 -3.0000094637623955
    vertex 4.293499567892111 11.774052455365656 0.9999999999925971
    vertex 4.293499567892109 20.77406907418409 0.9999905362301997
  endloop
endfacet
facet normal 0.0 2.9908396782295333e-07 -0.9999999999999554
  outer loop
    vertex 121.29350425935003 18.774049138587774 -2.9999988036641057
    vertex 111.29350425935003 14.77404913858795 -2.999999999999978
    vertex 111.29350425935003 18.774049138587774 -2.9999988036641057
  endloop
endfacet
facet normal 0.0 2.9908396782295333e-07 -0.9999999999999554
  outer loop
    vertex 111.29350425935003 14.77404913858795 -2.999999999999978
    vertex 121.29350425935003 18.774049138587774 -2.9999988036641057
    vertex 121.29350425935003 14.77404913858795 -2.999999999999978
  endloop
endfacet
facet normal 0.0 0.0 1.0
  outer loop
    vertex 111.29350397979915 4.774046147748272 7.00000000000001
    vertex 107.29350397979915 58.77404614774827 7.00000000000001
    vertex 107.29350397979915 4.774046147748272 7.00000000000001
  endloop
endfacet
facet normal 0.0 0.0 1.0
  outer loop
    vertex 107.29350397979915 58.77404614774827 7.00000000000001
    vertex 111.29350397979915 4.774046147748272 7.00000000000001
    vertex 111.29350397979915 58.77404614774827 7.00000000000001
  endloop
endfacet
facet normal 0.0 0.0 1.0
  outer loop
    vertex 111.29350397979915 58.77404614774827 7.00000000000001
    vertex 111.29350397979915 4.774046147748272 7.00000000000001
    vertex 111.29350397979915 14.774046147748273 7.00000000000001
  endloop
endfacet
facet normal 0.0 0.0 1.0
  outer loop
    vertex 111.29350397979915 58.77404614774827 7.00000000000001
    vertex 111.29350397979915 14.774046147748273 7.00000000000001
    vertex 111.29350397979915 18.774046147748095 7.000001196335882
  endloop
endfacet
facet normal 0.0 0.0 1.0
  outer loop
    vertex 111.29350397979915 58.77404614774827 7.00000000000001
    vertex 111.29350397979915 18.774046147748095 7.000001196335882
    vertex 111.29350397979915 44.77404614774828 7.000000000000007
  endloop
endfacet
facet normal 0.0 0.0 1.0
  outer loop
    vertex 111.29350397979915 58.77404614774827 7.00000000000001
    vertex 111.29350397979915 44.77404614774828 7.000000000000007
    vertex 111.29350397979915 48.77404614774828 7.00000000000001
  endloop
endfacet
facet normal -1.0 -1.7471937313983175e-09 -1.7471937052704334e-09
  outer loop
    vertex 111.29350397979915 48.77404614774828 7.00000000000001
    vertex 111.29350401474302 44.77404614774829 -2.9999997009160007
    vertex 111.29350397979915 44.77404614774828 7.000000000000007
  endloop
endfacet
facet normal -1.0 -1.7471937313983175e-09 -1.7471937052704334e-09
  outer loop
    vertex 111.29350401474302 44.77404614774829 -2.9999997009160007
    vertex 111.29350397979915 48.77404614774828 7.00000000000001
    vertex 111.29350401474302 48.77404614774828 -2.9999997009159984
  endloop
endfacet
facet normal -1.0 -1.7471937313983175e-09 -1.7471937052704334e-09
  outer loop
    vertex 111.29350401474302 48.77404614774828 -2.9999997009159984
    vertex 111.29350397979915 48.77404614774828 7.00000000000001
    vertex 111.29350397979915 58.77404614774827 7.00000000000001
  endloop
endfacet
facet normal -1.0 -1.7471937313983175e-09 -1.7471937052704334e-09
  outer loop
    vertex 111.29350401474302 48.77404614774828 -2.9999997009159984
    vertex 111.29350397979915 58.77404614774827 7.00000000000001
    vertex 111.29350397979915 58.77404614774827 -2.9999999999999925
  endloop
endfacet
facet normal -1.8394034218900917e-05 -0.9999999786526954 -0.00020580638519993133
  outer loop
    vertex 156.5271068641371 -0.019068519494122856 -4.200009993912558
    vertex 1.4493061287733477 -0.019069406623489694 -3.3772485165739494e-05
    vertex 1.4493065244080008 -0.019068488347279474 -4.200033559149264
  endloop
endfacet
facet normal -1.8394034218900917e-05 -0.9999999786526954 -0.00020580638519993133
  outer loop
    vertex 1.4493061287733477 -0.019069406623489694 -3.3772485165739494e-05
    vertex 156.5271068641371 -0.019068519494122856 -4.200009993912558
    vertex 156.52710638369234 -0.019069406624354718 -2.1229434696179436e-06
  endloop
endfacet
facet normal 0.5898305289059886 -0.8075270566182019 1.5817253161439687e-07
  outer loop
    vertex 157.482909104496 0.47404584227970487 -4.200009832572619
    vertex 157.0434190334027 0.15303480994576923 -2.047955341089036e-06
    vertex 157.04341951384743 0.1530356970760012 -4.2000099189244295
  endloop
endfacet
facet normal 0.5898305289059886 -0.8075270566182019 1.5817253161439687e-07
  outer loop
    vertex 157.0434190334027 0.15303480994576923 -2.047955341089036e-06
    vertex 157.482909104496 0.47404584227970487 -4.200009832572619
    vertex 157.48290862405125 0.4740449551494734 -1.9616035315861423e-06
  endloop
endfacet
facet normal 1.0 2.349972069550364e-16 1.1209413112577588e-15
  outer loop
    vertex 4.293503979799191 51.77404614609603 -2.9999999999999987
    vertex 4.29350397979919 39.77404614997923 1.0000000000000024
    vertex 4.293503979799194 39.77404614997923 -2.9999999999999982
  endloop
endfacet
facet normal 1.0 2.349972069550364e-16 1.1209413112577588e-15
  outer loop
    vertex 4.29350397979919 39.77404614997923 1.0000000000000024
    vertex 4.293503979799191 51.77404614609603 -2.9999999999999987
    vertex 4.293503979799186 51.77404614609603 1.0000000000000018
  endloop
endfacet
facet normal -0.31622776601683616 -0.9486832980505121 -6.464996290622022e-08
  outer loop
    vertex 1.4493065244080008 -0.019068488347279474 -4.200033559149264
    vertex 0.932993479062999 0.15303480994663304 -3.3878040708701374e-05
    vertex 0.9329938746976522 0.15303572822284334 -4.200033664704807
  endloop
endfacet
facet normal -0.31622776601683616 -0.9486832980505121 -6.464996290622022e-08
  outer loop
    vertex 0.932993479062999 0.15303480994663304 -3.3878040708701374e-05
    vertex 1.4493065244080008 -0.019068488347279474 -4.200033559149264
    vertex 1.4493061287733477 -0.019069406623489694 -3.3772485165739494e-05
  endloop
endfacet
facet normal -2.5822392419370999e-23 -0.9999999999999554 -2.9908396782295333e-07
  outer loop
    vertex 111.29350397979915 14.774046147748273 7.00000000000001
    vertex 111.29350425935003 14.77404913858795 -2.999999999999978
    vertex 121.29350425935003 14.77404913858795 -2.999999999999978
  endloop
endfacet
facet normal -8.169106751965585e-32 -1.0 7.836082219096216e-17
  outer loop
    vertex 4.29350397979919 39.77404614997923 1.0000000000000024
    vertex 2.0317066427677064 39.77404614981002 -2.999951328413159
    vertex 4.293503979799194 39.77404614997923 -2.9999999999999982
  endloop
endfacet
facet normal -8.169106751965585e-32 -1.0 7.836082219096216e-17
  outer loop
    vertex 2.0317066427677064 39.77404614981002 -2.999951328413159
    vertex 4.29350397979919 39.77404614997923 1.0000000000000024
    vertex 2.0316502250370805 39.77404151178339 4.867105276257222e-05
  endloop
endfacet
facet normal -8.169106751965585e-32 -1.0 7.836082219096216e-17
  outer loop
    vertex 2.0316502250370805 39.77404151178339 4.867105276257222e-05
    vertex 4.29350397979919 39.77404614997923 1.0000000000000024
    vertex 0.001851197480125371 39.77404614997923 0.9999999999999974
  endloop
endfacet
facet normal -8.169106751965585e-32 -1.0 7.836082219096216e-17
  outer loop
    vertex 0.001851197480125371 39.77404614997923 0.9999999999999974
    vertex 0.0017947797495040602 39.77404151195259 -5.340805020459527e-10
    vertex 2.0316502250370805 39.77404151178339 4.867105276257222e-05
  endloop
endfacet
facet normal 0.3162277660168425 -0.9486832980505079 9.283318750515098e-08
  outer loop
    vertex 157.04341951384743 0.1530356970760012 -4.2000099189244295
    vertex 156.52710638369234 -0.019069406624354718 -2.1229434696179436e-06
    vertex 156.5271068641371 -0.019068519494122856 -4.200009993912558
  endloop
endfacet
facet normal 0.3162277660168425 -0.9486832980505079 9.283318750515098e-08
  outer loop
    vertex 156.52710638369234 -0.019069406624354718 -2.1229434696179436e-06
    vertex 157.04341951384743 0.1530356970760012 -4.2000099189244295
    vertex 157.0434190334027 0.15303480994576923 -2.047955341089036e-06
  endloop
endfacet
facet normal 1.1029767723764495e-06 -1.5769043515718708e-06 -0.9999999999981484
  outer loop
    vertex 4.293499567892109 20.77406907418409 0.9999905362301997
    vertex 0.0034036971966140686 11.774052455365654 0.9999999999925929
    vertex -0.0029032824595446303 20.774069074184084 0.9999810724677982
  endloop
endfacet
facet normal 1.1029767723764495e-06 -1.5769043515718708e-06 -0.9999999999981484
  outer loop
    vertex 0.0034036971966140686 11.774052455365654 0.9999999999925929
    vertex 4.293499567892109 20.77406907418409 0.9999905362301997
    vertex 4.293499567892111 11.774052455365656 0.9999999999925971
  endloop
endfacet
facet normal -0.9486832980504941 -0.3162277660168376 -1.939498889398562e-07
  outer loop
    vertex 0.00038952664062905594 1.4298471955092673 -3.4068703318090866e-05
    vertex 0.1724941388453985 0.9135354640751169 -4.2000338201822345
    vertex 0.17249374321074545 0.9135345457989069 -3.403351813663358e-05
  endloop
endfacet
facet normal -0.9486832980504941 -0.3162277660168376 -1.939498889398562e-07
  outer loop
    vertex 0.1724941388453985 0.9135354640751169 -4.2000338201822345
    vertex 0.00038952664062905594 1.4298471955092673 -3.4068703318090866e-05
    vertex 0.0003899222752822703 1.4298481137854773 -4.200033855367416
  endloop
endfacet
facet normal 0.8075270566181885 0.5898305289060197 -9.981022766988658e-08
  outer loop
    vertex 157.8039185905035 65.02401024071204 -4.19999100322696
    vertex 157.48290862405116 65.46349902492784 1.86071409269406e-07
    vertex 157.80391876925486 65.0240094342793 1.5064422533850317e-07
  endloop
endfacet
facet normal 0.8075270566181885 0.5898305289060197 -9.981022766988658e-08
  outer loop
    vertex 157.48290862405116 65.46349902492784 1.86071409269406e-07
    vertex 157.8039185905035 65.02401024071204 -4.19999100322696
    vertex 157.4829084452998 65.4634998313606 -4.199990967799778
  endloop
endfacet
facet normal -1.9030463005632407e-15 -1.0 -3.093313694184893e-15
  outer loop
    vertex 121.29350397979915 44.77404614774828 -2.9999999999999947
    vertex 111.29350401474302 44.77404614774829 -2.9999997009160007
    vertex 114.49350218812909 44.774046147748344 -3.0000002943577564
  endloop
endfacet
facet normal -1.9030463005632407e-15 -1.0 -3.093313694184893e-15
  outer loop
    vertex 111.29350401474302 44.77404614774829 -2.9999997009160007
    vertex 121.29350397979915 44.77404614774828 -2.9999999999999947
    vertex 111.29350397979915 44.77404614774828 7.000000000000007
  endloop
endfacet
facet normal 9.398252803395725e-32 1.0 -7.836082219096218e-17
  outer loop
    vertex 0.0010934584985655075 51.77404614609603 0.999999999999996
    vertex 2.0438340566497035 51.774044953256464 6.953083809687621e-05
    vertex 0.00109336711382185 51.77404495349819 -2.425171174991192e-13
  endloop
endfacet
facet normal 9.398252803395725e-32 1.0 -7.836082219096218e-17
  outer loop
    vertex 2.0438341480344517 51.77404614585431 -2.999930469161665
    vertex 4.293503979799186 51.77404614609603 1.0000000000000018
    vertex 4.293503979799191 51.77404614609603 -2.9999999999999987
  endloop
endfacet
facet normal 9.398252803395725e-32 1.0 -7.836082219096218e-17
  outer loop
    vertex 4.293503979799186 51.77404614609603 1.0000000000000018
    vertex 2.0438341480344517 51.77404614585431 -2.999930469161665
    vertex 2.0438340566497035 51.774044953256464 6.953083809687621e-05
  endloop
endfacet
facet normal 9.398252803395725e-32 1.0 -7.836082219096218e-17
  outer loop
    vertex 4.293503979799186 51.77404614609603 1.0000000000000018
    vertex 2.0438340566497035 51.774044953256464 6.953083809687621e-05
    vertex 0.0010934584985655075 51.77404614609603 0.999999999999996
  endloop
endfacet
facet normal -1.0 0.0 0.0
  outer loop
    vertex 107.29350397979915 58.77404614774827 7.00000000000001
    vertex 107.29350397979915 4.774046147748272 -2.9999999999999925
    vertex 107.29350397979915 4.774046147748272 7.00000000000001
  endloop
endfacet
facet normal -1.0 0.0 0.0
  outer loop
    vertex 107.29350397979915 4.774046147748272 -2.9999999999999925
    vertex 107.29350397979915 58.77404614774827 7.00000000000001
    vertex 107.29350397979915 58.77404614774827 -2.9999999999999925
  endloop
endfacet
facet normal 0.9486832980504856 -0.3162277660168327 2.391026872868774e-07
  outer loop
    vertex 157.8039192496997 0.9135354329282633 -4.200009743041862
    vertex 157.97602298582504 1.4298471955083831 -1.787849112699913e-06
    vertex 157.80391876925495 0.9135345457980322 -1.8720727738674723e-06
  endloop
endfacet
facet normal 0.9486832980504856 -0.3162277660168327 2.391026872868774e-07
  outer loop
    vertex 157.97602298582504 1.4298471955083831 -1.787849112699913e-06
    vertex 157.8039192496997 0.9135354329282633 -4.200009743041862
    vertex 157.9760234662698 1.4298480826386142 -4.2000096588182005
  endloop
endfacet
facet normal 0.999999976862242 -4.5606863836196297e-05 -0.00021022732786894692
  outer loop
    vertex 157.9760234662698 1.4298480826386142 -4.2000096588182005
    vertex 157.976022985825 64.50769678456895 6.812572740377832e-08
    vertex 157.97602298582504 1.4298471955083831 -1.787849112699913e-06
  endloop
endfacet
facet normal 0.999999976862242 -4.5606863836196297e-05 -0.00021022732786894692
  outer loop
    vertex 157.976022985825 64.50769678456895 6.812572740377832e-08
    vertex 157.9760234662698 1.4298480826386142 -4.2000096588182005
    vertex 157.97602280707366 64.5076975910017 -4.1999910857454585
  endloop
endfacet
facet normal 0.7071067713029466 -2.1148430474781604e-07 0.7071067910701168
  outer loop
    vertex 121.29350425935003 14.77404913858795 -2.999999999999978
    vertex 111.29350397979915 18.774046147748095 7.000001196335882
    vertex 111.29350397979915 14.774046147748273 7.00000000000001
  endloop
endfacet
facet normal 0.7071067713029466 -2.1148430474781604e-07 0.7071067910701168
  outer loop
    vertex 111.29350397979915 18.774046147748095 7.000001196335882
    vertex 121.29350425935003 14.77404913858795 -2.999999999999978
    vertex 121.29350425935003 18.774049138587774 -2.9999988036641057
  endloop
endfacet
facet normal 0.5898305289060205 0.8075270566181886 -9.396916355261944e-08
  outer loop
    vertex 157.0434190334026 65.78450917013154 1.7104936321787888e-07
    vertex 157.4829084452998 65.4634998313606 -4.199990967799778
    vertex 157.04341885465126 65.7845099765643 -4.199990982821823
  endloop
endfacet
facet normal 0.5898305289060205 0.8075270566181886 -9.396916355261944e-08
  outer loop
    vertex 157.4829084452998 65.4634998313606 -4.199990967799778
    vertex 157.0434190334026 65.78450917013154 1.7104936321787888e-07
    vertex 157.48290862405116 65.46349902492784 1.86071409269406e-07
  endloop
endfacet
facet normal -0.9486832980505125 0.3162277660168109 1.3969016921771625e-07
  outer loop
    vertex 0.1724937432106665 65.02400943427938 -2.346756522109139e-07
    vertex 0.0003892925250572081 64.50769792371472 -4.200008059360088
    vertex 0.0003895266405663117 64.50769678456899 -1.4304165069090047e-07
  endloop
endfacet
facet normal -0.9486832980505125 0.3162277660168109 1.3969016921771625e-07
  outer loop
    vertex 0.0003892925250572081 64.50769792371472 -4.200008059360088
    vertex 0.1724937432106665 65.02400943427938 -2.346756522109139e-07
    vertex 0.17249350909515732 65.0240105734251 -4.200008150994089
  endloop
endfacet
facet normal 0.0 0.0 -1.0
  outer loop
    vertex 111.29350397979915 58.77404614774827 -2.9999999999999925
    vertex 107.29350397979915 4.774046147748272 -2.9999999999999925
    vertex 107.29350397979915 58.77404614774827 -2.9999999999999925
  endloop
endfacet
facet normal 0.0 0.0 -1.0
  outer loop
    vertex 107.29350397979915 4.774046147748272 -2.9999999999999925
    vertex 111.29350397979915 58.77404614774827 -2.9999999999999925
    vertex 111.29350397979915 4.774046147748272 -2.9999999999999925
  endloop
endfacet
facet normal 0.0 0.0 -1.0
  outer loop
    vertex 111.29350397979915 4.774046147748272 -2.9999999999999925
    vertex 111.29350397979915 58.77404614774827 -2.9999999999999925
    vertex 111.29350401474302 48.77404614774828 -2.9999997009159984
  endloop
endfacet
facet normal 0.0 0.0 -1.0
  outer loop
    vertex 111.29350397979915 4.774046147748272 -2.9999999999999925
    vertex 111.29350401474302 48.77404614774828 -2.9999997009159984
    vertex 111.29350401474302 44.77404614774829 -2.9999997009160007
  endloop
endfacet
facet normal 0.0 0.0 -1.0
  outer loop
    vertex 111.29350397979915 4.774046147748272 -2.9999999999999925
    vertex 111.29350401474302 44.77404614774829 -2.9999997009160007
    vertex 111.29350425935003 14.77404913858795 -2.999999999999978
  endloop
endfacet
facet normal 0.0 0.0 -1.0
  outer loop
    vertex 111.29350425935003 14.77404913858795 -2.999999999999978
    vertex 111.29350401474302 44.77404614774829 -2.9999997009160007
    vertex 111.29350425935003 18.774049138587774 -2.9999988036641057
  endloop
endfacet
facet normal -0.8075270566181846 -0.5898305289060104 -1.650917469474226e-07
  outer loop
    vertex 0.17249374321074545 0.9135345457989069 -3.403351813663358e-05
    vertex 0.49350428404909685 0.4740458734265511 -4.200033754554557
    vertex 0.49350388841444415 0.4740449551503409 -3.3967890459618566e-05
  endloop
endfacet
facet normal -0.8075270566181846 -0.5898305289060104 -1.650917469474226e-07
  outer loop
    vertex 0.49350428404909685 0.4740458734265511 -4.200033754554557
    vertex 0.17249374321074545 0.9135345457989069 -3.403351813663358e-05
    vertex 0.1724941388453985 0.9135354640751169 -4.2000338201822345
  endloop
endfacet
facet normal -1.1231915378665791e-07 1.0404035301868058e-06 -0.9999999999994524
  outer loop
    vertex 114.49350218812909 59.97403905315332 -2.9999993941171335
    vertex 114.49350218812909 48.77404614774831 -3.0000000651813017
    vertex 111.29350401474302 48.77404614774828 -2.9999997009159984
  endloop
endfacet
facet normal -1.1231915378665791e-07 1.0404035301868058e-06 -0.9999999999994524
  outer loop
    vertex 114.49350218812909 48.77404614774831 -3.0000000651813017
    vertex 114.49350218812909 59.97403905315332 -2.9999993941171335
    vertex 114.49350218812909 56.97403905315331 -2.9999993941171335
  endloop
endfacet
facet normal -1.1231915378665791e-07 1.0404035301868058e-06 -0.9999999999994524
  outer loop
    vertex 114.49350218812909 48.77404614774831 -3.0000000651813017
    vertex 114.49350218812909 56.97403905315331 -2.9999993941171335
    vertex 145.49350069305297 56.97403905315287 -2.999997517705947
  endloop
endfacet
facet normal -1.1231915378665791e-07 1.0404035301868058e-06 -0.9999999999994524
  outer loop
    vertex 114.49350218812909 48.77404614774831 -3.0000000651813017
    vertex 145.49350069305297 56.97403905315287 -2.999997517705947
    vertex 121.29350397979915 48.77404614774828 -2.9999999999999925
  endloop
endfacet
facet normal -1.1231915378665791e-07 1.0404035301868058e-06 -0.9999999999994524
  outer loop
    vertex 121.29350397979915 48.77404614774828 -2.9999999999999925
    vertex 145.49350069305297 56.97403905315287 -2.999997517705947
    vertex 121.29350397979915 44.77404614774828 -2.9999999999999947
  endloop
endfacet
facet normal -1.1231915378665791e-07 1.0404035301868058e-06 -0.9999999999994524
  outer loop
    vertex 114.49350218812909 44.774046147748344 -3.0000002943577564
    vertex 111.29350425935003 18.774049138587774 -2.9999988036641057
    vertex 111.29350401474302 44.77404614774829 -2.9999997009160007
  endloop
endfacet
facet normal -1.1231915378665791e-07 1.0404035301868058e-06 -0.9999999999994524
  outer loop
    vertex 111.29350425935003 18.774049138587774 -2.9999988036641057
    vertex 114.49350218812909 44.774046147748344 -3.0000002943577564
    vertex 114.49350218812909 38.97403313300189 -3.0000011129412147
  endloop
endfacet
facet normal -1.1231915378665791e-07 1.0404035301868058e-06 -0.9999999999994524
  outer loop
    vertex 111.29350425935003 18.774049138587774 -2.9999988036641057
    vertex 114.49350218812909 38.97403313300189 -3.0000011129412147
    vertex 121.29350425935003 18.774049138587774 -2.9999988036641057
  endloop
endfacet
facet normal -1.1231915378665791e-07 1.0404035301868058e-06 -0.9999999999994524
  outer loop
    vertex 114.49350218812909 38.97403313300189 -3.0000011129412147
    vertex 114.49350218812909 44.774046147748344 -3.0000002943577564
    vertex 114.49350218812909 41.97403313300189 -3.0000011129412147
  endloop
endfacet
facet normal -1.1231915378665791e-07 1.0404035301868058e-06 -0.9999999999994524
  outer loop
    vertex 121.29350425935003 18.774049138587774 -2.9999988036641057
    vertex 114.49350218812909 38.97403313300189 -3.0000011129412147
    vertex 145.49350069305297 38.97403313300189 -3.0000011129412147
  endloop
endfacet
facet normal -1.1231915378665791e-07 1.0404035301868058e-06 -0.9999999999994524
  outer loop
    vertex 121.29350425935003 18.774049138587774 -2.9999988036641057
    vertex 145.49350069305297 38.97403313300189 -3.0000011129412147
    vertex 121.29350425935003 14.77404913858795 -2.999999999999978
  endloop
endfacet
facet normal -1.1231915378665791e-07 1.0404035301868058e-06 -0.9999999999994524
  outer loop
    vertex 2.056146188932781 63.95664161629821 -2.9999095943291114
    vertex 4.293503979799191 51.77404614609603 -2.9999999999999987
    vertex 2.0438341480344517 51.77404614585431 -2.999930469161665
  endloop
endfacet
facet normal -1.1231915378665791e-07 1.0404035301868058e-06 -0.9999999999994524
  outer loop
    vertex 4.293503979799191 51.77404614609603 -2.9999999999999987
    vertex 2.056146188932781 63.95664161629821 -2.9999095943291114
    vertex 155.98290871543333 63.9635002155385 -2.999993113871985
  endloop
endfacet
facet normal -1.1231915378665791e-07 1.0404035301868058e-06 -0.9999999999994524
  outer loop
    vertex 4.293503979799191 51.77404614609603 -2.9999999999999987
    vertex 155.98290871543333 63.9635002155385 -2.999993113871985
    vertex 114.49350218812909 59.97403905315332 -2.9999993941171335
  endloop
endfacet
facet normal -1.1231915378665791e-07 1.0404035301868058e-06 -0.9999999999994524
  outer loop
    vertex 4.293503979799191 51.77404614609603 -2.9999999999999987
    vertex 114.49350218812909 59.97403905315332 -2.9999993941171335
    vertex 107.29350397979915 58.77404614774827 -2.9999999999999925
  endloop
endfacet
facet normal -1.1231915378665791e-07 1.0404035301868058e-06 -0.9999999999994524
  outer loop
    vertex 4.293503979799191 51.77404614609603 -2.9999999999999987
    vertex 107.29350397979915 58.77404614774827 -2.9999999999999925
    vertex 4.293503979799194 39.77404614997923 -2.9999999999999982
  endloop
endfacet
facet normal -1.1231915378665791e-07 1.0404035301868058e-06 -0.9999999999994524
  outer loop
    vertex 4.293503979799194 39.77404614997923 -2.9999999999999982
    vertex 107.29350397979915 58.77404614774827 -2.9999999999999925
    vertex 4.293503979799198 20.77406276656668 -3.0000094637623955
  endloop
endfacet
facet normal -1.1231915378665791e-07 1.0404035301868058e-06 -0.9999999999994524
  outer loop
    vertex 4.293503979799198 20.77406276656668 -3.0000094637623955
    vertex 107.29350397979915 58.77404614774827 -2.9999999999999925
    vertex 4.293503979799199 11.77404614774825 -2.9999999999999973
  endloop
endfacet
facet normal -1.1231915378665791e-07 1.0404035301868058e-06 -0.9999999999994524
  outer loop
    vertex 107.29350397979915 58.77404614774827 -2.9999999999999925
    vertex 114.49350218812909 59.97403905315332 -2.9999993941171335
    vertex 111.29350397979915 58.77404614774827 -2.9999999999999925
  endloop
endfacet
facet normal -1.1231915378665791e-07 1.0404035301868058e-06 -0.9999999999994524
  outer loop
    vertex 111.29350397979915 58.77404614774827 -2.9999999999999925
    vertex 114.49350218812909 59.97403905315332 -2.9999993941171335
    vertex 111.29350401474302 48.77404614774828 -2.9999997009159984
  endloop
endfacet
facet normal -1.1231915378665791e-07 1.0404035301868058e-06 -0.9999999999994524
  outer loop
    vertex 114.49350218812909 59.97403905315332 -2.9999993941171335
    vertex 155.98290871543333 63.9635002155385 -2.999993113871985
    vertex 145.49350069305297 59.97403905315332 -2.9999993941171335
  endloop
endfacet
facet normal -1.1231915378665791e-07 1.0404035301868058e-06 -0.9999999999994524
  outer loop
    vertex 145.49350069305297 59.97403905315332 -2.9999993941171335
    vertex 155.98290871543333 63.9635002155385 -2.999993113871985
    vertex 145.49350069305297 56.97403905315287 -2.999997517705947
  endloop
endfacet
facet normal -1.1231915378665791e-07 1.0404035301868058e-06 -0.9999999999994524
  outer loop
    vertex 145.49350069305297 56.97403905315287 -2.999997517705947
    vertex 155.98290871543333 63.9635002155385 -2.999993113871985
    vertex 145.49350069305297 41.97403313300189 -3.0000011129412147
  endloop
endfacet
facet normal -1.1231915378665791e-07 1.0404035301868058e-06 -0.9999999999994524
  outer loop
    vertex 145.49350069305297 41.97403313300189 -3.0000011129412147
    vertex 155.98290871543333 63.9635002155385 -2.999993113871985
    vertex 145.49350069305297 38.97403313300189 -3.0000011129412147
  endloop
endfacet
facet normal -1.1231915378665791e-07 1.0404035301868058e-06 -0.9999999999994524
  outer loop
    vertex 1.993505001162674 1.9740461477488924 -3.0000338656695495
    vertex 107.29350397979915 4.774046147748272 -2.9999999999999925
    vertex 155.98290871543603 1.9740461477473012 -3.0000019481876814
  endloop
endfacet
facet normal -1.1231915378665791e-07 1.0404035301868058e-06 -0.9999999999994524
  outer loop
    vertex 107.29350397979915 4.774046147748272 -2.9999999999999925
    vertex 1.993505001162674 1.9740461477488924 -3.0000338656695495
    vertex 2.003409130467221 11.77404614774825 -3.0
  endloop
endfacet
facet normal -1.1231915378665791e-07 1.0404035301868058e-06 -0.9999999999994524
  outer loop
    vertex 107.29350397979915 4.774046147748272 -2.9999999999999925
    vertex 2.003409130467221 11.77404614774825 -3.0
    vertex 4.293503979799199 11.77404614774825 -2.9999999999999973
  endloop
endfacet
facet normal -1.1231915378665791e-07 1.0404035301868058e-06 -0.9999999999994524
  outer loop
    vertex 107.29350397979915 4.774046147748272 -2.9999999999999925
    vertex 4.293503979799199 11.77404614774825 -2.9999999999999973
    vertex 107.29350397979915 58.77404614774827 -2.9999999999999925
  endloop
endfacet
facet normal -1.1231915378665791e-07 1.0404035301868058e-06 -0.9999999999994524
  outer loop
    vertex 155.98290871543603 1.9740461477473012 -3.0000019481876814
    vertex 107.29350397979915 4.774046147748272 -2.9999999999999925
    vertex 111.29350397979915 4.774046147748272 -2.9999999999999925
  endloop
endfacet
facet normal -1.1231915378665791e-07 1.0404035301868058e-06 -0.9999999999994524
  outer loop
    vertex 155.98290871543603 1.9740461477473012 -3.0000019481876814
    vertex 111.29350397979915 4.774046147748272 -2.9999999999999925
    vertex 111.29350425935003 14.77404913858795 -2.999999999999978
  endloop
endfacet
facet normal -1.1231915378665791e-07 1.0404035301868058e-06 -0.9999999999994524
  outer loop
    vertex 155.98290871543603 1.9740461477473012 -3.0000019481876814
    vertex 111.29350425935003 14.77404913858795 -2.999999999999978
    vertex 121.29350425935003 14.77404913858795 -2.999999999999978
  endloop
endfacet
facet normal -1.1231915378665791e-07 1.0404035301868058e-06 -0.9999999999994524
  outer loop
    vertex 155.98290871543603 1.9740461477473012 -3.0000019481876814
    vertex 121.29350425935003 14.77404913858795 -2.999999999999978
    vertex 145.49350069305297 38.97403313300189 -3.0000011129412147
  endloop
endfacet
facet normal -1.1231915378665791e-07 1.0404035301868058e-06 -0.9999999999994524
  outer loop
    vertex 155.98290871543603 1.9740461477473012 -3.0000019481876814
    vertex 145.49350069305297 38.97403313300189 -3.0000011129412147
    vertex 155.98290871543333 63.9635002155385 -2.999993113871985
  endloop
endfacet
facet normal -1.1231915378665791e-07 1.0404035301868058e-06 -0.9999999999994524
  outer loop
    vertex 121.29350397979915 44.77404614774828 -2.9999999999999947
    vertex 114.49350218812909 41.97403313300189 -3.0000011129412147
    vertex 114.49350218812909 44.774046147748344 -3.0000002943577564
  endloop
endfacet
facet normal -1.1231915378665791e-07 1.0404035301868058e-06 -0.9999999999994524
  outer loop
    vertex 114.49350218812909 41.97403313300189 -3.0000011129412147
    vertex 121.29350397979915 44.77404614774828 -2.9999999999999947
    vertex 145.49350069305297 41.97403313300189 -3.0000011129412147
  endloop
endfacet
facet normal -1.1231915378665791e-07 1.0404035301868058e-06 -0.9999999999994524
  outer loop
    vertex 145.49350069305297 41.97403313300189 -3.0000011129412147
    vertex 121.29350397979915 44.77404614774828 -2.9999999999999947
    vertex 145.49350069305297 56.97403905315287 -2.999997517705947
  endloop
endfacet
facet normal -1.1231915378665791e-07 1.0404035301868058e-06 -0.9999999999994524
  outer loop
    vertex 2.0317066427677064 39.77404614981002 -2.999951328413159
    vertex 4.293503979799198 20.77406276656668 -3.0000094637623955
    vertex 2.0125047762659904 20.77406276648716 -2.9999915996122897
  endloop
endfacet
facet normal -1.1231915378665791e-07 1.0404035301868058e-06 -0.9999999999994524
  outer loop
    vertex 4.293503979799198 20.77406276656668 -3.0000094637623955
    vertex 2.0317066427677064 39.77404614981002 -2.999951328413159
    vertex 4.293503979799194 39.77404614997923 -2.9999999999999982
  endloop
endfacet
facet normal 0.9486832980504882 0.31622776601690006 -9.619092344791359e-08
  outer loop
    vertex 157.97602280707366 64.5076975910017 -4.1999910857454585
    vertex 157.80391876925486 65.0240094342793 1.5064422533850317e-07
    vertex 157.976022985825 64.50769678456895 6.812572740377832e-08
  endloop
endfacet
facet normal 0.9486832980504882 0.31622776601690006 -9.619092344791359e-08
  outer loop
    vertex 157.80391876925486 65.0240094342793 1.5064422533850317e-07
    vertex 157.97602280707366 64.5076975910017 -4.1999910857454585
    vertex 157.8039185905035 65.02401024071204 -4.19999100322696
  endloop
endfacet
facet normal -0.31622776601680547 0.9486832980505143 1.3969016127262394e-07
  outer loop
    vertex 0.9329934790629734 65.78450917013167 -2.346756522109139e-07
    vertex 1.449305894657853 65.9566145258475 -4.200008059360088
    vertex 0.9329932449474649 65.78451030927741 -4.200008150994089
  endloop
endfacet
facet normal -0.31622776601680547 0.9486832980505143 1.3969016127262394e-07
  outer loop
    vertex 1.449305894657853 65.9566145258475 -4.200008059360088
    vertex 0.9329934790629734 65.78450917013167 -2.346756522109139e-07
    vertex 1.4493062201581095 65.95661457929961 -3.0000001430414125
  endloop
endfacet
facet normal -0.31622776601680547 0.9486832980505143 1.3969016127262394e-07
  outer loop
    vertex 1.4493062201581095 65.95661457929961 -3.0000001430414125
    vertex 0.9329934790629734 65.78450917013167 -2.346756522109139e-07
    vertex 1.4493061287733613 65.95661338670178 -1.4304165069090047e-07
  endloop
endfacet
facet normal 2.5822392419370999e-23 0.9999999999999554 2.9908396782295333e-07
  outer loop
    vertex 111.29350397979915 18.774046147748095 7.000001196335882
    vertex 121.29350425935003 18.774049138587774 -2.9999988036641057
    vertex 111.29350425935003 18.774049138587774 -2.9999988036641057
  endloop
endfacet
facet normal 0.0 1.0 0.0
  outer loop
    vertex 114.49350218812909 38.97403313300189 14.999998887058787
    vertex 145.49350069305297 38.97403313300189 -3.0000011129412147
    vertex 114.49350218812909 38.97403313300189 -3.0000011129412147
  endloop
endfacet
facet normal 0.0 1.0 0.0
  outer loop
    vertex 145.49350069305297 38.97403313300189 -3.0000011129412147
    vertex 114.49350218812909 38.97403313300189 14.999998887058787
    vertex 145.49350069305297 38.97403313300189 14.999998887058787
  endloop
endfacet
facet normal -0.9999999999999996 -1.892967263954266e-14 -3.0264698018020874e-08
  outer loop
    vertex 145.49350014828838 56.974044682386435 15.000002482293167
    vertex 145.49350069305297 59.97403905315332 -2.9999993941171335
    vertex 145.49350069305297 56.97403905315287 -2.999997517705947
  endloop
endfacet
facet normal -0.9999999999999996 -1.892967263954266e-14 -3.0264698018020874e-08
  outer loop
    vertex 145.49350069305297 59.97403905315332 -2.9999993941171335
    vertex 145.49350014828838 56.974044682386435 15.000002482293167
    vertex 145.49350014828838 59.97404468238688 15.000000605881981
  endloop
endfacet
facet normal 3.3120472397413305e-14 0.9999999999999512 -3.127351977702739e-07
  outer loop
    vertex 114.49350164336451 56.974044682386875 15.000000605881981
    vertex 145.49350069305297 56.97403905315287 -2.999997517705947
    vertex 114.49350218812909 56.97403905315331 -2.9999993941171335
  endloop
endfacet
facet normal 3.3120472397413305e-14 0.9999999999999512 -3.127351977702739e-07
  outer loop
    vertex 145.49350069305297 56.97403905315287 -2.999997517705947
    vertex 114.49350164336451 56.974044682386875 15.000000605881981
    vertex 145.49350014828838 56.974044682386435 15.000002482293167
  endloop
endfacet
facet normal 0.9999999999999997 0.0 3.0264698018026796e-08
  outer loop
    vertex 114.49350218812909 59.97403905315332 -2.9999993941171335
    vertex 114.49350164336451 56.974044682386875 15.000000605881981
    vertex 114.49350218812909 56.97403905315331 -2.9999993941171335
  endloop
endfacet
facet normal 0.9999999999999997 0.0 3.0264698018026796e-08
  outer loop
    vertex 114.49350164336451 56.974044682386875 15.000000605881981
    vertex 114.49350218812909 59.97403905315332 -2.9999993941171335
    vertex 114.49350164336451 59.97404468238688 15.000000605881981
  endloop
endfacet
facet normal 1.8805910208598316e-05 1.546008877967287e-06 -0.999999999821974
  outer loop
    vertex 0.0017947797495040602 39.77404151195259 -5.340805020459527e-10
    vertex 2.0124483585353645 20.774058128460528 8.399853632024002e-06
    vertex -0.002955288283080919 20.774058128540045 -1.8928058873846074e-05
  endloop
endfacet
facet normal 1.8805910208598316e-05 1.546008877967287e-06 -0.999999999821974
  outer loop
    vertex 2.0124483585353645 20.774058128460528 8.399853632024002e-06
    vertex 0.0017947797495040602 39.77404151195259 -5.340805020459527e-10
    vertex 2.0316502250370805 39.77404151178339 4.867105276257222e-05
  endloop
endfacet
facet normal -0.9999994891416629 0.0010106249601465331 -1.8804338169629277e-05
  outer loop
    vertex 2.0316502250370805 39.77404151178339 4.867105276257222e-05
    vertex 2.0125047762659904 20.77406276648716 -2.9999915996122897
    vertex 2.0124483585353645 20.774058128460528 8.399853632024002e-06
  endloop
endfacet
facet normal -0.9999994891416629 0.0010106249601465331 -1.8804338169629277e-05
  outer loop
    vertex 2.0125047762659904 20.77406276648716 -2.9999915996122897
    vertex 2.0316502250370805 39.77404151178339 4.867105276257222e-05
    vertex 2.0317066427677064 39.77404614981002 -2.999951328413159
  endloop
endfacet
facet normal 0.0 0.0 -1.0
  outer loop
    vertex 145.49350069305297 41.97403313300189 14.999998887058787
    vertex 114.49350218812909 38.97403313300189 14.999998887058787
    vertex 114.49350218812909 41.97403313300189 14.999998887058787
  endloop
endfacet
facet normal 0.0 0.0 -1.0
  outer loop
    vertex 114.49350218812909 38.97403313300189 14.999998887058787
    vertex 145.49350069305297 41.97403313300189 14.999998887058787
    vertex 145.49350069305297 38.97403313300189 14.999998887058787
  endloop
endfacet
facet normal -1.0 -0.0 -0.0
  outer loop
    vertex 145.49350069305297 41.97403313300189 14.999998887058787
    vertex 145.49350069305297 38.97403313300189 -3.0000011129412147
    vertex 145.49350069305297 38.97403313300189 14.999998887058787
  endloop
endfacet
facet normal -1.0 -0.0 -0.0
  outer loop
    vertex 145.49350069305297 38.97403313300189 -3.0000011129412147
    vertex 145.49350069305297 41.97403313300189 14.999998887058787
    vertex 145.49350069305297 41.97403313300189 -3.0000011129412147
  endloop
endfacet
facet normal 3.0264698018025314e-08 -3.1273519777027474e-07 -0.9999999999999507
  outer loop
    vertex 145.49350014828838 59.97404468238688 15.000000605881981
    vertex 114.49350164336451 56.974044682386875 15.000000605881981
    vertex 114.49350164336451 59.97404468238688 15.000000605881981
  endloop
endfacet
facet normal 3.0264698018025314e-08 -3.1273519777027474e-07 -0.9999999999999507
  outer loop
    vertex 114.49350164336451 56.974044682386875 15.000000605881981
    vertex 145.49350014828838 59.97404468238688 15.000000605881981
    vertex 145.49350014828838 56.974044682386435 15.000002482293167
  endloop
endfacet
facet normal 0.0 -0.9999999999999513 3.127351977702749e-07
  outer loop
    vertex 145.49350014828838 59.97404468238688 15.000000605881981
    vertex 114.49350218812909 59.97403905315332 -2.9999993941171335
    vertex 145.49350069305297 59.97403905315332 -2.9999993941171335
  endloop
endfacet
facet normal 0.0 -0.9999999999999513 3.127351977702749e-07
  outer loop
    vertex 114.49350218812909 59.97403905315332 -2.9999993941171335
    vertex 145.49350014828838 59.97404468238688 15.000000605881981
    vertex 114.49350164336451 59.97404468238688 15.000000605881981
  endloop
endfacet
facet normal 1.0 0.0 0.0
  outer loop
    vertex 114.49350218812909 41.97403313300189 -3.0000011129412147
    vertex 114.49350218812909 38.97403313300189 14.999998887058787
    vertex 114.49350218812909 38.97403313300189 -3.0000011129412147
  endloop
endfacet
facet normal 1.0 0.0 0.0
  outer loop
    vertex 114.49350218812909 38.97403313300189 14.999998887058787
    vertex 114.49350218812909 41.97403313300189 -3.0000011129412147
    vertex 114.49350218812909 41.97403313300189 14.999998887058787
  endloop
endfacet
facet normal 0.0 -1.0 0.0
  outer loop
    vertex 145.49350069305297 41.97403313300189 14.999998887058787
    vertex 114.49350218812909 41.97403313300189 -3.0000011129412147
    vertex 145.49350069305297 41.97403313300189 -3.0000011129412147
  endloop
endfacet
facet normal 0.0 -1.0 0.0
  outer loop
    vertex 114.49350218812909 41.97403313300189 -3.0000011129412147
    vertex 145.49350069305297 41.97403313300189 14.999998887058787
    vertex 114.49350218812909 41.97403313300189 14.999998887058787
  endloop
endfacet
facet normal -3.3417596404761e-05 0.9999989704032424 -0.0014345994979378582
  outer loop
    vertex 1.4493062201581095 65.95661457929961 -3.0000001430414125
    vertex 155.98290871542858 65.96005720591387 -4.1999911065693185
    vertex 1.449305894657853 65.9566145258475 -4.200008059360088
  endloop
endfacet
facet normal -3.3417596404761e-05 0.9999989704032424 -0.0014345994979378582
  outer loop
    vertex 155.98290871542858 65.96005720591387 -4.1999911065693185
    vertex 1.4493062201581095 65.95661457929961 -3.0000001430414125
    vertex 155.982908715436 65.96350021752575 -3.000000000000002
  endloop
endfacet
facet normal 0.009489361910718905 0.9999539457704101 -0.0014346946418408633
  outer loop
    vertex 155.982908715436 65.96350021752575 -3.000000000000002
    vertex 156.52710620494094 65.95661419313444 -4.199991046869254
    vertex 155.98290871542858 65.96005720591387 -4.1999911065693185
  endloop
endfacet
facet normal 0.009489361910718905 0.9999539457704101 -0.0014346946418408633
  outer loop
    vertex 156.52710620494094 65.95661419313444 -4.199991046869254
    vertex 155.982908715436 65.96350021752575 -3.000000000000002
    vertex 156.52710647507703 65.95661457929954 -2.9999998929978293
  endloop
endfacet
facet normal 0.009489361910718907 0.9999539457704101 -0.0014346946418408635
  outer loop
    vertex 155.982908715436 65.96350021752575 -3.000000000000002
    vertex 156.52710620494094 65.95661419313444 -4.199991046869254
    vertex 155.98290871542858 65.96005720591387 -4.1999911065693185
  endloop
endfacet
facet normal 0.009489361910718907 0.9999539457704101 -0.0014346946418408635
  outer loop
    vertex 156.52710620494094 65.95661419313444 -4.199991046869254
    vertex 155.982908715436 65.96350021752575 -3.000000000000002
    vertex 156.52710647507703 65.95661457929954 -2.9999998929978293
  endloop
endfacet
facet normal 3.046158271380707e-08 3.975326162754297e-07 -0.9999999999999205
  outer loop
    vertex 0.0034080177189554327 11.7740449551504 -2.396971510165713e-13
    vertex 0.17249374321074545 0.9135345457989069 -3.403351813663358e-05
    vertex 0.00038952664062905594 1.4298471955092673 -3.4068703318090866e-05
  endloop
endfacet
facet normal 3.046158271380707e-08 3.975326162754297e-07 -0.9999999999999205
  outer loop
    vertex 0.17249374321074545 0.9135345457989069 -3.403351813663358e-05
    vertex 0.0034080177189554327 11.7740449551504 -2.396971510165713e-13
    vertex 2.003409039082473 11.774044955150401 -2.382871677752973e-13
  endloop
endfacet
facet normal 3.046158271380707e-08 3.975326162754297e-07 -0.9999999999999205
  outer loop
    vertex 0.17249374321074545 0.9135345457989069 -3.403351813663358e-05
    vertex 2.003409039082473 11.774044955150401 -2.382871677752973e-13
    vertex 0.49350388841444415 0.4740449551503409 -3.3967890459618566e-05
  endloop
endfacet
facet normal 3.046158271380707e-08 3.975326162754297e-07 -0.9999999999999205
  outer loop
    vertex 0.49350388841444415 0.4740449551503409 -3.3967890459618566e-05
    vertex 2.003409039082473 11.774044955150401 -2.382871677752973e-13
    vertex 0.932993479062999 0.15303480994663304 -3.3878040708701374e-05
  endloop
endfacet
facet normal 3.046158271380707e-08 3.975326162754297e-07 -0.9999999999999205
  outer loop
    vertex 0.932993479062999 0.15303480994663304 -3.3878040708701374e-05
    vertex 2.003409039082473 11.774044955150401 -2.382871677752973e-13
    vertex 1.4493061287733477 -0.019069406623489694 -3.3772485165739494e-05
  endloop
endfacet
facet normal 3.046158271380707e-08 3.975326162754297e-07 -0.9999999999999205
  outer loop
    vertex 1.4493061287733477 -0.019069406623489694 -3.3772485165739494e-05
    vertex 2.003409039082473 11.774044955150401 -2.382871677752973e-13
    vertex 1.9935049097779258 1.9740449551510435 -3.38656697878692e-05
  endloop
endfacet
facet normal 3.046158271380707e-08 3.975326162754297e-07 -0.9999999999999205
  outer loop
    vertex 0.1724937432106665 65.02400943427938 -2.346756522109139e-07
    vertex 0.00109336711382185 51.77404495349819 -2.425171174991192e-13
    vertex 0.0003895266405663117 64.50769678456899 -1.4304165069090047e-07
  endloop
endfacet
facet normal 3.046158271380707e-08 3.975326162754297e-07 -0.9999999999999205
  outer loop
    vertex 0.00109336711382185 51.77404495349819 -2.425171174991192e-13
    vertex 0.1724937432106665 65.02400943427938 -2.346756522109139e-07
    vertex 2.0438340566497035 51.774044953256464 6.953083809687621e-05
  endloop
endfacet
facet normal 3.046158271380707e-08 3.975326162754297e-07 -0.9999999999999205
  outer loop
    vertex 2.0438340566497035 51.774044953256464 6.953083809687621e-05
    vertex 0.1724937432106665 65.02400943427938 -2.346756522109139e-07
    vertex 0.4935038884143814 65.46349902492797 -2.662168490097372e-07
  endloop
endfacet
facet normal 3.046158271380707e-08 3.975326162754297e-07 -0.9999999999999205
  outer loop
    vertex 2.0438340566497035 51.774044953256464 6.953083809687621e-05
    vertex 0.4935038884143814 65.46349902492797 -2.662168490097372e-07
    vertex 0.9329934790629734 65.78450917013167 -2.346756522109139e-07
  endloop
endfacet
facet normal 3.046158271380707e-08 3.975326162754297e-07 -0.9999999999999205
  outer loop
    vertex 2.0438340566497035 51.774044953256464 6.953083809687621e-05
    vertex 0.9329934790629734 65.78450917013167 -2.346756522109139e-07
    vertex 1.4493061287733613 65.95661338670178 -1.4304165069090047e-07
  endloop
endfacet
facet normal 3.046158271380707e-08 3.975326162754297e-07 -0.9999999999999205
  outer loop
    vertex 2.0438340566497035 51.774044953256464 6.953083809687621e-05
    vertex 1.4493061287733613 65.95661338670178 -1.4304165069090047e-07
    vertex 2.056146097548033 63.956640423700364 9.040567064966254e-05
  endloop
endfacet
facet normal 3.046158271380707e-08 3.975326162754297e-07 -0.9999999999999205
  outer loop
    vertex 2.056146097548033 63.956640423700364 9.040567064966254e-05
    vertex 1.4493061287733613 65.95661338670178 -1.4304165069090047e-07
    vertex 155.98290862405122 65.9634990249279 -2.4110713425784523e-13
  endloop
endfacet
facet normal 3.046158271380707e-08 3.975326162754297e-07 -0.9999999999999205
  outer loop
    vertex 2.056146097548033 63.956640423700364 9.040567064966254e-05
    vertex 155.98290862405122 65.9634990249279 -2.4110713425784523e-13
    vertex 155.98290862404858 63.96349902294066 6.88612777604014e-06
  endloop
endfacet
facet normal 3.046158271380707e-08 3.975326162754297e-07 -0.9999999999999205
  outer loop
    vertex 155.98290862404858 63.96349902294066 6.88612777604014e-06
    vertex 155.98290862405122 65.9634990249279 -2.4110713425784523e-13
    vertex 155.98290862405128 1.9740449551494523 -1.9481879203309125e-06
  endloop
endfacet
facet normal 3.046158271380707e-08 3.975326162754297e-07 -0.9999999999999205
  outer loop
    vertex 155.98290862405128 1.9740449551494523 -1.9481879203309125e-06
    vertex 155.98290862405122 65.9634990249279 -2.4110713425784523e-13
    vertex 156.52710638369228 65.95661338670169 1.0700193197044072e-07
  endloop
endfacet
facet normal 3.046158271380707e-08 3.975326162754297e-07 -0.9999999999999205
  outer loop
    vertex 1.9935049097779258 1.9740449551510435 -3.38656697878692e-05
    vertex 156.52710638369234 -0.019069406624354718 -2.1229434696179436e-06
    vertex 1.4493061287733477 -0.019069406623489694 -3.3772485165739494e-05
  endloop
endfacet
facet normal 3.046158271380707e-08 3.975326162754297e-07 -0.9999999999999205
  outer loop
    vertex 156.52710638369234 -0.019069406624354718 -2.1229434696179436e-06
    vertex 1.9935049097779258 1.9740449551510435 -3.38656697878692e-05
    vertex 155.98290862405128 1.9740449551494523 -1.9481879203309125e-06
  endloop
endfacet
facet normal 3.046158271380707e-08 3.975326162754297e-07 -0.9999999999999205
  outer loop
    vertex 156.52710638369234 -0.019069406624354718 -2.1229434696179436e-06
    vertex 155.98290862405128 1.9740449551494523 -1.9481879203309125e-06
    vertex 156.52710638369228 65.95661338670169 1.0700193197044072e-07
  endloop
endfacet
facet normal 3.046158271380707e-08 3.975326162754297e-07 -0.9999999999999205
  outer loop
    vertex 156.52710638369234 -0.019069406624354718 -2.1229434696179436e-06
    vertex 156.52710638369228 65.95661338670169 1.0700193197044072e-07
    vertex 157.0434190334026 65.78450917013154 1.7104936321787888e-07
  endloop
endfacet
facet normal 3.046158271380707e-08 3.975326162754297e-07 -0.9999999999999205
  outer loop
    vertex 156.52710638369234 -0.019069406624354718 -2.1229434696179436e-06
    vertex 157.0434190334026 65.78450917013154 1.7104936321787888e-07
    vertex 157.0434190334027 0.15303480994576923 -2.047955341089036e-06
  endloop
endfacet
facet normal 3.046158271380707e-08 3.975326162754297e-07 -0.9999999999999205
  outer loop
    vertex 157.0434190334027 0.15303480994576923 -2.047955341089036e-06
    vertex 157.0434190334026 65.78450917013154 1.7104936321787888e-07
    vertex 157.48290862405116 65.46349902492784 1.86071409269406e-07
  endloop
endfacet
facet normal 3.046158271380707e-08 3.975326162754297e-07 -0.9999999999999205
  outer loop
    vertex 157.0434190334027 0.15303480994576923 -2.047955341089036e-06
    vertex 157.48290862405116 65.46349902492784 1.86071409269406e-07
    vertex 157.48290862405125 0.4740449551494734 -1.9616035315861423e-06
  endloop
endfacet
facet normal 3.046158271380707e-08 3.975326162754297e-07 -0.9999999999999205
  outer loop
    vertex 157.48290862405125 0.4740449551494734 -1.9616035315861423e-06
    vertex 157.48290862405116 65.46349902492784 1.86071409269406e-07
    vertex 157.80391876925486 65.0240094342793 1.5064422533850317e-07
  endloop
endfacet
facet normal 3.046158271380707e-08 3.975326162754297e-07 -0.9999999999999205
  outer loop
    vertex 157.48290862405125 0.4740449551494734 -1.9616035315861423e-06
    vertex 157.80391876925486 65.0240094342793 1.5064422533850317e-07
    vertex 157.80391876925495 0.9135345457980322 -1.8720727738674723e-06
  endloop
endfacet
facet normal 3.046158271380707e-08 3.975326162754297e-07 -0.9999999999999205
  outer loop
    vertex 157.80391876925495 0.9135345457980322 -1.8720727738674723e-06
    vertex 157.80391876925486 65.0240094342793 1.5064422533850317e-07
    vertex 157.976022985825 64.50769678456895 6.812572740377832e-08
  endloop
endfacet
facet normal 3.046158271380707e-08 3.975326162754297e-07 -0.9999999999999205
  outer loop
    vertex 157.80391876925495 0.9135345457980322 -1.8720727738674723e-06
    vertex 157.976022985825 64.50769678456895 6.812572740377832e-08
    vertex 157.97602298582504 1.4298471955083831 -1.787849112699913e-06
  endloop
endfacet
facet normal 7.206388047855113e-14 -0.9999999999999211 -3.975326162754278e-07
  outer loop
    vertex 155.98290871543603 1.9740461477473012 -3.0000019481876814
    vertex 1.9935049097779258 1.9740449551510435 -3.38656697878692e-05
    vertex 1.993505001162674 1.9740461477488924 -3.0000338656695495
  endloop
endfacet
facet normal 7.206388047855113e-14 -0.9999999999999211 -3.975326162754278e-07
  outer loop
    vertex 1.9935049097779258 1.9740449551510435 -3.38656697878692e-05
    vertex 155.98290871543603 1.9740461477473012 -3.0000019481876814
    vertex 155.98290862405128 1.9740449551494523 -1.9481879203309125e-06
  endloop
endfacet
facet normal -0.9999994893185015 0.0010106249231779524 -3.005981078785867e-08
  outer loop
    vertex 2.056146097548033 63.956640423700364 9.040567064966254e-05
    vertex 2.0438341480344517 51.77404614585431 -2.999930469161665
    vertex 2.0438340566497035 51.774044953256464 6.953083809687621e-05
  endloop
endfacet
facet normal -0.9999994893185015 0.0010106249231779524 -3.005981078785867e-08
  outer loop
    vertex 2.0438341480344517 51.77404614585431 -2.999930469161665
    vertex 2.056146097548033 63.956640423700364 9.040567064966254e-05
    vertex 2.056146188932781 63.95664161629821 -2.9999095943291114
  endloop
endfacet
facet normal -0.9999994893185015 0.0010106249232357347 -3.00598107878357e-08
  outer loop
    vertex 2.003409039082473 11.774044955150401 -2.382871677752973e-13
    vertex 1.993505001162674 1.9740461477488924 -3.0000338656695495
    vertex 1.9935049097779258 1.9740449551510435 -3.38656697878692e-05
  endloop
endfacet
facet normal -0.9999994893185015 0.0010106249232357347 -3.00598107878357e-08
  outer loop
    vertex 1.993505001162674 1.9740461477488924 -3.0000338656695495
    vertex 2.003409039082473 11.774044955150401 -2.382871677752973e-13
    vertex 2.003409130467221 11.77404614774825 -3.0
  endloop
endfacet
facet normal -0.012651810846086759 -0.9999199626380887 -3.978861929961485e-07
  outer loop
    vertex 156.52710647507703 65.95661457929954 -2.9999998929978293
    vertex 155.98290862405122 65.9634990249279 -2.4110713425784523e-13
    vertex 155.982908715436 65.96350021752575 -3.000000000000002
  endloop
endfacet
facet normal -0.012651810846086759 -0.9999199626380887 -3.978861929961485e-07
  outer loop
    vertex 155.98290862405122 65.9634990249279 -2.4110713425784523e-13
    vertex 156.52710647507703 65.95661457929954 -2.9999998929978293
    vertex 156.52710638369228 65.95661338670169 1.0700193197044072e-07
  endloop
endfacet
facet normal -4.4557548588101073e-05 0.9999999990072336 3.975312585873524e-07
  outer loop
    vertex 2.056146188932781 63.95664161629821 -2.9999095943291114
    vertex 155.98290862404858 63.96349902294066 6.88612777604014e-06
    vertex 155.98290871543333 63.9635002155385 -2.999993113871985
  endloop
endfacet
facet normal -4.4557548588101073e-05 0.9999999990072336 3.975312585873524e-07
  outer loop
    vertex 155.98290862404858 63.96349902294066 6.88612777604014e-06
    vertex 2.056146188932781 63.95664161629821 -2.9999095943291114
    vertex 2.056146097548033 63.956640423700364 9.040567064966254e-05
  endloop
endfacet
facet normal 4.4557546761110244e-05 -0.9999999990072335 -3.975312585874081e-07
  outer loop
    vertex 155.982908715436 65.96350021752575 -3.000000000000002
    vertex 1.4493061287733613 65.95661338670178 -1.4304165069090047e-07
    vertex 1.4493062201581095 65.95661457929961 -3.0000001430414125
  endloop
endfacet
facet normal 4.4557546761110244e-05 -0.9999999990072335 -3.975312585874081e-07
  outer loop
    vertex 1.4493061287733613 65.95661338670178 -1.4304165069090047e-07
    vertex 155.982908715436 65.96350021752575 -3.000000000000002
    vertex 155.98290862405122 65.9634990249279 -2.4110713425784523e-13
  endloop
endfacet
facet normal 0.9999999999999997 3.933024772689053e-14 3.0461582713825116e-08
  outer loop
    vertex 155.98290871543603 1.9740461477473012 -3.0000019481876814
    vertex 155.98290862404858 63.96349902294066 6.88612777604014e-06
    vertex 155.98290862405128 1.9740449551494523 -1.9481879203309125e-06
  endloop
endfacet
facet normal 0.9999999999999997 3.933024772689053e-14 3.0461582713825116e-08
  outer loop
    vertex 155.98290862404858 63.96349902294066 6.88612777604014e-06
    vertex 155.98290871543603 1.9740461477473012 -3.0000019481876814
    vertex 155.98290871543333 63.9635002155385 -2.999993113871985
  endloop
endfacet
endsolid 7segments
