solid 7segments
facet normal -4.3960869292521795e-17 -1.0 0.0
  outer loop
    vertex 155.73770173944033 -1.6154417498688562 25.200000000000124
    vertex 2.2507580342643783 -1.6154417498688562 20.802151955475832
    vertex 155.73770173944033 -1.6154417498688562 20.802151955475832
  endloop
endfacet
facet normal -4.3960869292521795e-17 -1.0 0.0
  outer loop
    vertex 2.2507580342643783 -1.6154417498688562 20.802151955475832
    vertex 155.73770173944033 -1.6154417498688562 25.200000000000124
    vertex 2.2507580342643783 -1.6154417498688562 25.200000000000124
  endloop
endfacet
facet normal -1.0 4.396086929252179e-17 -2.6131178706094696e-16
  outer loop
    vertex 2.25075803426439 3.984558250131145 27.200000000000014
    vertex 2.250758034264401 -0.015441749868859189 25.200000000000003
    vertex 2.2507580342643783 -0.015441749868859189 27.200000000000014
  endloop
endfacet
facet normal -1.0 4.396086929252179e-17 -2.6131178706094696e-16
  outer loop
    vertex 2.250758034264401 -0.015441749868859189 25.200000000000003
    vertex 2.25075803426439 3.984558250131145 27.200000000000014
    vertex 2.25075803426439 3.984558250131145 25.200000000000003
  endloop
endfacet
facet normal -1.0 4.396086929252179e-17 -2.6131178706094696e-16
  outer loop
    vertex 2.25075803426439 -1.566297869019446 25.53669651983423
    vertex 2.2507580342643783 -1.6154417498688562 20.802151955475832
    vertex 2.2507580342643783 -1.6154417498688562 25.200000000000124
  endloop
endfacet
facet normal -1.0 4.396086929252179e-17 -2.6131178706094696e-16
  outer loop
    vertex 2.2507580342643783 -1.6154417498688562 20.802151955475832
    vertex 2.25075803426439 -1.566297869019446 25.53669651983423
    vertex 2.250758034264401 -1.6154417498688556 -7.3978480445242685
  endloop
endfacet
facet normal -1.0 4.396086929252179e-17 -2.6131178706094696e-16
  outer loop
    vertex 2.250758034264401 -1.6154417498688556 -7.3978480445242685
    vertex 2.25075803426439 -1.566297869019446 25.53669651983423
    vertex 2.250758034264401 -0.015441749868858483 -5.397848044524269
  endloop
endfacet
facet normal -1.0 4.396086929252179e-17 -2.6131178706094696e-16
  outer loop
    vertex 2.250758034264401 -1.6154417498688556 -7.3978480445242685
    vertex 2.250758034264401 -0.015441749868858483 -5.397848044524269
    vertex 2.250758034264401 3.9845582501311454 -7.3978480445242685
  endloop
endfacet
facet normal -1.0 4.396086929252179e-17 -2.6131178706094696e-16
  outer loop
    vertex 2.250758034264401 -0.015441749868858483 -5.397848044524269
    vertex 2.25075803426439 -1.566297869019446 25.53669651983423
    vertex 2.25075803426439 -1.4669436129858366 25.862132226697103
  endloop
endfacet
facet normal -1.0 4.396086929252179e-17 -2.6131178706094696e-16
  outer loop
    vertex 2.250758034264401 -0.015441749868858483 -5.397848044524269
    vertex 2.25075803426439 -1.4669436129858366 25.862132226697103
    vertex 2.250758034264401 -1.3196512193438301 26.168864387170288
  endloop
endfacet
facet normal -1.0 4.396086929252179e-17 -2.6131178706094696e-16
  outer loop
    vertex 2.250758034264401 -0.015441749868858483 -5.397848044524269
    vertex 2.250758034264401 -1.3196512193438301 26.168864387170288
    vertex 2.250758034264401 -1.127789273646064 26.449878019021845
  endloop
endfacet
facet normal -1.0 4.396086929252179e-17 -2.6131178706094696e-16
  outer loop
    vertex 2.250758034264401 -0.015441749868858483 -5.397848044524269
    vertex 2.250758034264401 -1.127789273646064 26.449878019021845
    vertex 2.250758034264401 -0.8957456696757421 26.698746324255367
  endloop
endfacet
facet normal -1.0 4.396086929252179e-17 -2.6131178706094696e-16
  outer loop
    vertex 2.250758034264401 -0.015441749868858483 -5.397848044524269
    vertex 2.250758034264401 -0.8957456696757421 26.698746324255367
    vertex 2.250758034264401 -0.6288272580623346 26.909777670351424
  endloop
endfacet
facet normal -1.0 4.396086929252179e-17 -2.6131178706094696e-16
  outer loop
    vertex 2.250758034264401 -0.015441749868858483 -5.397848044524269
    vertex 2.250758034264401 -0.6288272580623346 26.909777670351424
    vertex 2.25075803426439 -0.33313847830104415 27.07814575823215
  endloop
endfacet
facet normal -1.0 4.396086929252179e-17 -2.6131178706094696e-16
  outer loop
    vertex 2.250758034264401 -0.015441749868858483 -5.397848044524269
    vertex 2.25075803426439 -0.33313847830104415 27.07814575823215
    vertex 2.250758034264401 -0.015441749868859189 20.802151955475715
  endloop
endfacet
facet normal -1.0 4.396086929252179e-17 -2.6131178706094696e-16
  outer loop
    vertex 2.250758034264401 -0.015441749868859189 20.802151955475715
    vertex 2.25075803426439 -0.33313847830104415 27.07814575823215
    vertex 2.2507580342643783 -0.015441749868859189 27.200000000000014
  endloop
endfacet
facet normal -1.0 4.396086929252179e-17 -2.6131178706094696e-16
  outer loop
    vertex 2.250758034264401 -0.015441749868859189 20.802151955475715
    vertex 2.2507580342643783 -0.015441749868859189 27.200000000000014
    vertex 2.250758034264401 -0.015441749868859189 25.200000000000003
  endloop
endfacet
facet normal -1.0 4.396086929252179e-17 -2.6131178706094696e-16
  outer loop
    vertex 2.250758034264401 3.9845582501311454 -7.3978480445242685
    vertex 2.250758034264401 -0.015441749868858483 -5.397848044524269
    vertex 2.250758034264401 3.9845582501311454 -5.397848044524269
  endloop
endfacet
facet normal 1.0 -4.396086929252179e-17 2.6131178706094696e-16
  outer loop
    vertex 155.73770173944035 -1.6154417498688556 -7.397848044524266
    vertex 155.73770173944033 -1.6154417498688562 25.200000000000124
    vertex 155.73770173944033 -1.6154417498688562 20.802151955475832
  endloop
endfacet
facet normal 1.0 -4.396086929252179e-17 2.6131178706094696e-16
  outer loop
    vertex 155.73770173944033 -1.6154417498688562 25.200000000000124
    vertex 155.73770173944035 -1.6154417498688556 -7.397848044524266
    vertex 155.73770173944033 -1.566297869019446 25.53669651983423
  endloop
endfacet
facet normal 1.0 -4.396086929252179e-17 2.6131178706094696e-16
  outer loop
    vertex 155.73770173944033 -1.566297869019446 25.53669651983423
    vertex 155.73770173944035 -1.6154417498688556 -7.397848044524266
    vertex 155.73770173944035 -0.015441749868858483 -5.397848044524258
  endloop
endfacet
facet normal 1.0 -4.396086929252179e-17 2.6131178706094696e-16
  outer loop
    vertex 155.73770173944035 -0.015441749868858483 -5.397848044524258
    vertex 155.73770173944035 -1.6154417498688556 -7.397848044524266
    vertex 155.73770173944035 3.9845582501311383 -7.397848044524266
  endloop
endfacet
facet normal 1.0 -4.396086929252179e-17 2.6131178706094696e-16
  outer loop
    vertex 155.73770173944033 -1.566297869019446 25.53669651983423
    vertex 155.73770173944035 -0.015441749868858483 -5.397848044524258
    vertex 155.73770173944033 -1.4669436129858366 25.862132226697103
  endloop
endfacet
facet normal 1.0 -4.396086929252179e-17 2.6131178706094696e-16
  outer loop
    vertex 155.73770173944033 -1.4669436129858366 25.862132226697103
    vertex 155.73770173944035 -0.015441749868858483 -5.397848044524258
    vertex 155.73770173944035 -1.3196512193438301 26.168864387170288
  endloop
endfacet
facet normal 1.0 -4.396086929252179e-17 2.6131178706094696e-16
  outer loop
    vertex 155.73770173944035 -1.3196512193438301 26.168864387170288
    vertex 155.73770173944035 -0.015441749868858483 -5.397848044524258
    vertex 155.73770173944035 -1.127789273646064 26.449878019021845
  endloop
endfacet
facet normal 1.0 -4.396086929252179e-17 2.6131178706094696e-16
  outer loop
    vertex 155.73770173944035 -1.127789273646064 26.449878019021845
    vertex 155.73770173944035 -0.015441749868858483 -5.397848044524258
    vertex 155.73770173944035 -0.8957456696757421 26.698746324255367
  endloop
endfacet
facet normal 1.0 -4.396086929252179e-17 2.6131178706094696e-16
  outer loop
    vertex 155.73770173944035 -0.8957456696757421 26.698746324255367
    vertex 155.73770173944035 -0.015441749868858483 -5.397848044524258
    vertex 155.73770173944035 -0.6288272580623346 26.909777670351424
  endloop
endfacet
facet normal 1.0 -4.396086929252179e-17 2.6131178706094696e-16
  outer loop
    vertex 155.73770173944035 -0.6288272580623346 26.909777670351424
    vertex 155.73770173944035 -0.015441749868858483 -5.397848044524258
    vertex 155.73770173944033 -0.33313847830104415 27.07814575823215
  endloop
endfacet
facet normal 1.0 -4.396086929252179e-17 2.6131178706094696e-16
  outer loop
    vertex 155.73770173944033 -0.33313847830104415 27.07814575823215
    vertex 155.73770173944035 -0.015441749868858483 -5.397848044524258
    vertex 155.73770173944035 -0.015441749868859189 20.802151955475715
  endloop
endfacet
facet normal 1.0 -4.396086929252179e-17 2.6131178706094696e-16
  outer loop
    vertex 155.73770173944035 -0.015441749868858483 -5.397848044524258
    vertex 155.73770173944035 3.9845582501311383 -7.397848044524266
    vertex 155.73770173944035 3.9845582501311383 -5.397848044524258
  endloop
endfacet
facet normal 1.0 -4.396086929252179e-17 2.6131178706094696e-16
  outer loop
    vertex 155.73770173944035 -0.015441749868859189 20.802151955475715
    vertex 155.73770173944033 -0.015441749868859189 27.200000000000014
    vertex 155.73770173944033 -0.33313847830104415 27.07814575823215
  endloop
endfacet
facet normal 1.0 -4.396086929252179e-17 2.6131178706094696e-16
  outer loop
    vertex 155.73770173944033 -0.015441749868859189 27.200000000000014
    vertex 155.73770173944035 -0.015441749868859189 20.802151955475715
    vertex 155.73770173944035 -0.015441749868859189 25.200000000000003
  endloop
endfacet
facet normal 1.0 -4.396086929252179e-17 2.6131178706094696e-16
  outer loop
    vertex 155.73770173944033 -0.015441749868859189 27.200000000000014
    vertex 155.73770173944035 -0.015441749868859189 25.200000000000003
    vertex 155.73770173944033 3.984558250131138 25.200000000000003
  endloop
endfacet
facet normal 1.0 -4.396086929252179e-17 2.6131178706094696e-16
  outer loop
    vertex 155.73770173944033 -0.015441749868859189 27.200000000000014
    vertex 155.73770173944033 3.984558250131138 25.200000000000003
    vertex 155.73770173944033 3.984558250131138 27.200000000000014
  endloop
endfacet
facet normal -4.396086929252178e-17 -1.0 -2.499970285946712e-17
  outer loop
    vertex 155.73770173944035 -1.6154417498688556 -7.397848044524266
    vertex 2.2507580342643783 -1.6154417498688562 20.802151955475832
    vertex 2.250758034264401 -1.6154417498688556 -7.3978480445242685
  endloop
endfacet
facet normal -4.396086929252178e-17 -1.0 -2.499970285946712e-17
  outer loop
    vertex 2.2507580342643783 -1.6154417498688562 20.802151955475832
    vertex 155.73770173944035 -1.6154417498688556 -7.397848044524266
    vertex 155.73770173944033 -1.6154417498688562 20.802151955475832
  endloop
endfacet
facet normal 2.6131178706094696e-16 0.0 -1.0
  outer loop
    vertex 155.73770173944035 3.9845582501311383 -7.397848044524266
    vertex 2.250758034264401 -1.6154417498688556 -7.3978480445242685
    vertex 2.250758034264401 3.9845582501311454 -7.3978480445242685
  endloop
endfacet
facet normal 2.6131178706094696e-16 0.0 -1.0
  outer loop
    vertex 2.250758034264401 -1.6154417498688556 -7.3978480445242685
    vertex 155.73770173944035 3.9845582501311383 -7.397848044524266
    vertex 155.73770173944035 -1.6154417498688556 -7.397848044524266
  endloop
endfacet
facet normal 4.3960869292521795e-17 1.0 0.0
  outer loop
    vertex 2.250758034264401 -0.015441749868859189 25.200000000000003
    vertex 155.73770173944035 -0.015441749868859189 20.802151955475715
    vertex 2.250758034264401 -0.015441749868859189 20.802151955475715
  endloop
endfacet
facet normal 4.3960869292521795e-17 1.0 0.0
  outer loop
    vertex 155.73770173944035 -0.015441749868859189 20.802151955475715
    vertex 2.250758034264401 -0.015441749868859189 25.200000000000003
    vertex 155.73770173944035 -0.015441749868859189 25.200000000000003
  endloop
endfacet
facet normal 4.396086929252178e-17 1.0 2.6908077123548655e-17
  outer loop
    vertex 2.250758034264401 -0.015441749868859189 20.802151955475715
    vertex 155.73770173944035 -0.015441749868858483 -5.397848044524258
    vertex 2.250758034264401 -0.015441749868858483 -5.397848044524269
  endloop
endfacet
facet normal 4.396086929252178e-17 1.0 2.6908077123548655e-17
  outer loop
    vertex 155.73770173944035 -0.015441749868858483 -5.397848044524258
    vertex 2.250758034264401 -0.015441749868859189 20.802151955475715
    vertex 155.73770173944035 -0.015441749868859189 20.802151955475715
  endloop
endfacet
facet normal 4.396086929252179e-17 1.0 0.0
  outer loop
    vertex 2.250758034264401 3.9845582501311454 -5.397848044524269
    vertex 155.73770173944035 3.9845582501311383 -7.397848044524266
    vertex 2.250758034264401 3.9845582501311454 -7.3978480445242685
  endloop
endfacet
facet normal 4.396086929252179e-17 1.0 0.0
  outer loop
    vertex 155.73770173944035 3.9845582501311383 -7.397848044524266
    vertex 2.250758034264401 3.9845582501311454 -5.397848044524269
    vertex 155.73770173944035 3.9845582501311383 -5.397848044524258
  endloop
endfacet
facet normal -2.6131178706094696e-16 0.0 1.0
  outer loop
    vertex 155.73770173944035 -0.015441749868858483 -5.397848044524258
    vertex 2.250758034264401 3.9845582501311454 -5.397848044524269
    vertex 2.250758034264401 -0.015441749868858483 -5.397848044524269
  endloop
endfacet
facet normal -2.6131178706094696e-16 0.0 1.0
  outer loop
    vertex 2.250758034264401 3.9845582501311454 -5.397848044524269
    vertex 155.73770173944035 -0.015441749868858483 -5.397848044524258
    vertex 155.73770173944035 3.9845582501311383 -5.397848044524258
  endloop
endfacet
facet normal -8.124085339667182e-17 -0.9895152196930873 0.1444286328805388
  outer loop
    vertex 155.73770173944033 -1.566297869019446 25.53669651983423
    vertex 2.2507580342643783 -1.6154417498688562 25.200000000000124
    vertex 155.73770173944033 -1.6154417498688562 25.200000000000124
  endloop
endfacet
facet normal -8.124085339667182e-17 -0.9895152196930873 0.1444286328805388
  outer loop
    vertex 2.2507580342643783 -1.6154417498688562 25.200000000000124
    vertex 155.73770173944033 -1.566297869019446 25.53669651983423
    vertex 2.25075803426439 -1.566297869019446 25.53669651983423
  endloop
endfacet
facet normal 4.396086929252179e-17 1.0 0.0
  outer loop
    vertex 2.25075803426439 3.984558250131145 27.200000000000014
    vertex 155.73770173944033 3.984558250131138 25.200000000000003
    vertex 2.25075803426439 3.984558250131145 25.200000000000003
  endloop
endfacet
facet normal 4.396086929252179e-17 1.0 0.0
  outer loop
    vertex 155.73770173944033 3.984558250131138 25.200000000000003
    vertex 2.25075803426439 3.984558250131145 27.200000000000014
    vertex 155.73770173944033 3.984558250131138 27.200000000000014
  endloop
endfacet
facet normal 2.6131178706094696e-16 7.368904810065631e-31 -1.0
  outer loop
    vertex 155.73770173944033 3.984558250131138 25.200000000000003
    vertex 2.250758034264401 -0.015441749868859189 25.200000000000003
    vertex 2.25075803426439 3.984558250131145 25.200000000000003
  endloop
endfacet
facet normal 2.6131178706094696e-16 7.368904810065631e-31 -1.0
  outer loop
    vertex 2.250758034264401 -0.015441749868859189 25.200000000000003
    vertex 155.73770173944033 3.984558250131138 25.200000000000003
    vertex 155.73770173944035 -0.015441749868859189 25.200000000000003
  endloop
endfacet
facet normal -2.1035481808067406e-16 -0.7313974491008346 0.6819514436151537
  outer loop
    vertex 155.73770173944035 -0.8957456696757421 26.698746324255367
    vertex 2.250758034264401 -1.127789273646064 26.449878019021845
    vertex 155.73770173944035 -1.127789273646064 26.449878019021845
  endloop
endfacet
facet normal -2.1035481808067406e-16 -0.7313974491008346 0.6819514436151537
  outer loop
    vertex 2.250758034264401 -1.127789273646064 26.449878019021845
    vertex 155.73770173944035 -0.8957456696757421 26.698746324255367
    vertex 2.250758034264401 -0.8957456696757421 26.698746324255367
  endloop
endfacet
facet normal -2.597238866107976e-16 -0.35811664127943404 0.9336768558975517
  outer loop
    vertex 2.25075803426439 -0.33313847830104415 27.07814575823215
    vertex 155.73770173944033 -0.015441749868859189 27.200000000000014
    vertex 2.2507580342643783 -0.015441749868859189 27.200000000000014
  endloop
endfacet
facet normal -2.597238866107976e-16 -0.35811664127943404 0.9336768558975517
  outer loop
    vertex 155.73770173944033 -0.015441749868859189 27.200000000000014
    vertex 2.25075803426439 -0.33313847830104415 27.07814575823215
    vertex 155.73770173944033 -0.33313847830104415 27.07814575823215
  endloop
endfacet
facet normal -1.8364966744604e-16 -0.8258691411344485 0.5638618285731428
  outer loop
    vertex 155.73770173944035 -1.127789273646064 26.449878019021845
    vertex 2.250758034264401 -1.3196512193438301 26.168864387170288
    vertex 155.73770173944035 -1.3196512193438301 26.168864387170288
  endloop
endfacet
facet normal -1.8364966744604e-16 -0.8258691411344485 0.5638618285731428
  outer loop
    vertex 2.250758034264401 -1.3196512193438301 26.168864387170288
    vertex 155.73770173944035 -1.127789273646064 26.449878019021845
    vertex 2.250758034264401 -1.127789273646064 26.449878019021845
  endloop
endfacet
facet normal -1.5274443830628508e-16 -0.9014531581945219 0.4328766609337152
  outer loop
    vertex 155.73770173944035 -1.3196512193438301 26.168864387170288
    vertex 2.25075803426439 -1.4669436129858366 25.862132226697103
    vertex 155.73770173944033 -1.4669436129858366 25.862132226697103
  endloop
endfacet
facet normal -1.5274443830628508e-16 -0.9014531581945219 0.4328766609337152
  outer loop
    vertex 2.25075803426439 -1.4669436129858366 25.862132226697103
    vertex 155.73770173944035 -1.3196512193438301 26.168864387170288
    vertex 2.250758034264401 -1.3196512193438301 26.168864387170288
  endloop
endfacet
facet normal -2.3224914187224494e-16 -0.6201986551487291 0.7844447897409402
  outer loop
    vertex 155.73770173944035 -0.8957456696757421 26.698746324255367
    vertex 2.250758034264401 -0.6288272580623346 26.909777670351424
    vertex 2.250758034264401 -0.8957456696757421 26.698746324255367
  endloop
endfacet
facet normal -2.3224914187224494e-16 -0.6201986551487291 0.7844447897409402
  outer loop
    vertex 2.250758034264401 -0.6288272580623346 26.909777670351424
    vertex 155.73770173944035 -0.8957456696757421 26.698746324255367
    vertex 155.73770173944035 -0.6288272580623346 26.909777670351424
  endloop
endfacet
facet normal -2.6131178706094696e-16 7.368904810065631e-31 1.0
  outer loop
    vertex 155.73770173944033 -0.015441749868859189 27.200000000000014
    vertex 2.25075803426439 3.984558250131145 27.200000000000014
    vertex 2.2507580342643783 -0.015441749868859189 27.200000000000014
  endloop
endfacet
facet normal -2.6131178706094696e-16 7.368904810065631e-31 1.0
  outer loop
    vertex 2.25075803426439 3.984558250131145 27.200000000000014
    vertex 155.73770173944033 -0.015441749868859189 27.200000000000014
    vertex 155.73770173944033 3.984558250131138 27.200000000000014
  endloop
endfacet
facet normal -2.488319143706658e-16 -0.4948158821204665 0.8689978382029179
  outer loop
    vertex 2.250758034264401 -0.6288272580623346 26.909777670351424
    vertex 155.73770173944033 -0.33313847830104415 27.07814575823215
    vertex 2.25075803426439 -0.33313847830104415 27.07814575823215
  endloop
endfacet
facet normal -2.488319143706658e-16 -0.4948158821204665 0.8689978382029179
  outer loop
    vertex 155.73770173944033 -0.33313847830104415 27.07814575823215
    vertex 2.250758034264401 -0.6288272580623346 26.909777670351424
    vertex 155.73770173944035 -0.6288272580623346 26.909777670351424
  endloop
endfacet
facet normal -1.183459350374305e-16 -0.9564208894439092 0.2919915790486457
  outer loop
    vertex 155.73770173944033 -1.4669436129858366 25.862132226697103
    vertex 2.25075803426439 -1.566297869019446 25.53669651983423
    vertex 155.73770173944033 -1.566297869019446 25.53669651983423
  endloop
endfacet
facet normal -1.183459350374305e-16 -0.9564208894439092 0.2919915790486457
  outer loop
    vertex 2.25075803426439 -1.566297869019446 25.53669651983423
    vertex 155.73770173944033 -1.4669436129858366 25.862132226697103
    vertex 2.25075803426439 -1.4669436129858366 25.862132226697103
  endloop
endfacet
endsolid 7segments
