solid 7segments
facet normal 1.4366261426897767e-17 5.864475952677291e-18 -1.0
  outer loop
    vertex 147.49350397979916 58.9740461477482 25.200000000000003
    vertex 145.49350397979916 56.97404614774819 25.200000000000003
    vertex 112.49350397979917 58.97404614774818 25.200000000000003
  endloop
endfacet
facet normal 1.4366261426897767e-17 5.864475952677291e-18 -1.0
  outer loop
    vertex 145.49350397979916 56.97404614774819 25.200000000000003
    vertex 147.49350397979916 58.9740461477482 25.200000000000003
    vertex 147.49350397979916 39.9740461477482 25.200000000000003
  endloop
endfacet
facet normal 1.4366261426897767e-17 5.864475952677291e-18 -1.0
  outer loop
    vertex 145.49350397979916 56.97404614774819 25.200000000000003
    vertex 147.49350397979916 39.9740461477482 25.200000000000003
    vertex 145.49350397979916 41.9740461477482 25.200000000000003
  endloop
endfacet
facet normal 1.4366261426897767e-17 5.864475952677291e-18 -1.0
  outer loop
    vertex 145.49350397979916 41.9740461477482 25.200000000000003
    vertex 147.49350397979916 39.9740461477482 25.200000000000003
    vertex 114.49350397979917 41.97404614774819 25.200000000000003
  endloop
endfacet
facet normal 1.4366261426897767e-17 5.864475952677291e-18 -1.0
  outer loop
    vertex 112.49350397979917 58.97404614774818 25.200000000000003
    vertex 114.49350397979917 56.97404614774819 25.200000000000003
    vertex 112.49350397979917 39.97404614774818 25.200000000000003
  endloop
endfacet
facet normal 1.4366261426897767e-17 5.864475952677291e-18 -1.0
  outer loop
    vertex 114.49350397979917 56.97404614774819 25.200000000000003
    vertex 112.49350397979917 58.97404614774818 25.200000000000003
    vertex 145.49350397979916 56.97404614774819 25.200000000000003
  endloop
endfacet
facet normal 1.4366261426897767e-17 5.864475952677291e-18 -1.0
  outer loop
    vertex 112.49350397979917 39.97404614774818 25.200000000000003
    vertex 114.49350397979917 56.97404614774819 25.200000000000003
    vertex 114.49350397979917 41.97404614774819 25.200000000000003
  endloop
endfacet
facet normal 1.4366261426897767e-17 5.864475952677291e-18 -1.0
  outer loop
    vertex 112.49350397979917 39.97404614774818 25.200000000000003
    vertex 114.49350397979917 41.97404614774819 25.200000000000003
    vertex 147.49350397979916 39.9740461477482 25.200000000000003
  endloop
endfacet
facet normal 2.0816681711721685e-16 -1.0 -5.864475952677288e-18
  outer loop
    vertex 147.49350397979916 39.9740461477482 25.200000000000003
    vertex 112.49350397979917 39.97404614774818 27.200000000000006
    vertex 112.49350397979917 39.97404614774818 25.200000000000003
  endloop
endfacet
facet normal 2.0816681711721685e-16 -1.0 -5.864475952677288e-18
  outer loop
    vertex 112.49350397979917 39.97404614774818 27.200000000000006
    vertex 147.49350397979916 39.9740461477482 25.200000000000003
    vertex 147.49350397979916 39.9740461477482 27.200000000000006
  endloop
endfacet
facet normal -1.0 -2.0816681711721685e-16 -1.4366261426897767e-17
  outer loop
    vertex 112.49350397979917 39.97404614774818 27.200000000000006
    vertex 112.49350397979917 58.97404614774818 25.200000000000003
    vertex 112.49350397979917 39.97404614774818 25.200000000000003
  endloop
endfacet
facet normal -1.0 -2.0816681711721685e-16 -1.4366261426897767e-17
  outer loop
    vertex 112.49350397979917 58.97404614774818 25.200000000000003
    vertex 112.49350397979917 39.97404614774818 27.200000000000006
    vertex 112.49350397979917 58.97404614774818 27.200000000000006
  endloop
endfacet
facet normal 2.0816681711721685e-16 -1.0 -5.864475952677288e-18
  outer loop
    vertex 145.49350397979916 56.97404614774819 25.200000000000003
    vertex 114.49350397979917 56.97404614774819 27.200000000000006
    vertex 114.49350397979917 56.97404614774819 25.200000000000003
  endloop
endfacet
facet normal 2.0816681711721685e-16 -1.0 -5.864475952677288e-18
  outer loop
    vertex 114.49350397979917 56.97404614774819 27.200000000000006
    vertex 145.49350397979916 56.97404614774819 25.200000000000003
    vertex 145.49350397979916 56.97404614774819 27.200000000000006
  endloop
endfacet
facet normal 1.0 2.0816681711721685e-16 1.4366261426897767e-17
  outer loop
    vertex 147.49350397979916 58.9740461477482 27.200000000000006
    vertex 147.49350397979916 39.9740461477482 25.200000000000003
    vertex 147.49350397979916 58.9740461477482 25.200000000000003
  endloop
endfacet
facet normal 1.0 2.0816681711721685e-16 1.4366261426897767e-17
  outer loop
    vertex 147.49350397979916 39.9740461477482 25.200000000000003
    vertex 147.49350397979916 58.9740461477482 27.200000000000006
    vertex 147.49350397979916 39.9740461477482 27.200000000000006
  endloop
endfacet
facet normal -2.0816681711721685e-16 1.0 5.864475952677288e-18
  outer loop
    vertex 147.49350397979916 58.9740461477482 27.200000000000006
    vertex 112.49350397979917 58.97404614774818 25.200000000000003
    vertex 112.49350397979917 58.97404614774818 27.200000000000006
  endloop
endfacet
facet normal -2.0816681711721685e-16 1.0 5.864475952677288e-18
  outer loop
    vertex 112.49350397979917 58.97404614774818 25.200000000000003
    vertex 147.49350397979916 58.9740461477482 27.200000000000006
    vertex 147.49350397979916 58.9740461477482 25.200000000000003
  endloop
endfacet
facet normal -1.0 -2.0816681711721685e-16 -1.4366261426897767e-17
  outer loop
    vertex 145.49350397979916 41.9740461477482 27.200000000000006
    vertex 145.49350397979916 56.97404614774819 25.200000000000003
    vertex 145.49350397979916 41.9740461477482 25.200000000000003
  endloop
endfacet
facet normal -1.0 -2.0816681711721685e-16 -1.4366261426897767e-17
  outer loop
    vertex 145.49350397979916 56.97404614774819 25.200000000000003
    vertex 145.49350397979916 41.9740461477482 27.200000000000006
    vertex 145.49350397979916 56.97404614774819 27.200000000000006
  endloop
endfacet
facet normal 1.0 2.0816681711721685e-16 1.4366261426897767e-17
  outer loop
    vertex 114.49350397979917 56.97404614774819 27.200000000000006
    vertex 114.49350397979917 41.97404614774819 25.200000000000003
    vertex 114.49350397979917 56.97404614774819 25.200000000000003
  endloop
endfacet
facet normal 1.0 2.0816681711721685e-16 1.4366261426897767e-17
  outer loop
    vertex 114.49350397979917 41.97404614774819 25.200000000000003
    vertex 114.49350397979917 56.97404614774819 27.200000000000006
    vertex 114.49350397979917 41.97404614774819 27.200000000000006
  endloop
endfacet
facet normal -1.4366261426897767e-17 -5.864475952677291e-18 1.0
  outer loop
    vertex 112.49350397979917 58.97404614774818 27.200000000000006
    vertex 114.49350397979917 56.97404614774819 27.200000000000006
    vertex 147.49350397979916 58.9740461477482 27.200000000000006
  endloop
endfacet
facet normal -1.4366261426897767e-17 -5.864475952677291e-18 1.0
  outer loop
    vertex 114.49350397979917 56.97404614774819 27.200000000000006
    vertex 112.49350397979917 58.97404614774818 27.200000000000006
    vertex 112.49350397979917 39.97404614774818 27.200000000000006
  endloop
endfacet
facet normal -1.4366261426897767e-17 -5.864475952677291e-18 1.0
  outer loop
    vertex 114.49350397979917 56.97404614774819 27.200000000000006
    vertex 112.49350397979917 39.97404614774818 27.200000000000006
    vertex 114.49350397979917 41.97404614774819 27.200000000000006
  endloop
endfacet
facet normal -1.4366261426897767e-17 -5.864475952677291e-18 1.0
  outer loop
    vertex 114.49350397979917 41.97404614774819 27.200000000000006
    vertex 112.49350397979917 39.97404614774818 27.200000000000006
    vertex 145.49350397979916 41.9740461477482 27.200000000000006
  endloop
endfacet
facet normal -1.4366261426897767e-17 -5.864475952677291e-18 1.0
  outer loop
    vertex 147.49350397979916 58.9740461477482 27.200000000000006
    vertex 145.49350397979916 56.97404614774819 27.200000000000006
    vertex 147.49350397979916 39.9740461477482 27.200000000000006
  endloop
endfacet
facet normal -1.4366261426897767e-17 -5.864475952677291e-18 1.0
  outer loop
    vertex 145.49350397979916 56.97404614774819 27.200000000000006
    vertex 147.49350397979916 58.9740461477482 27.200000000000006
    vertex 114.49350397979917 56.97404614774819 27.200000000000006
  endloop
endfacet
facet normal -1.4366261426897767e-17 -5.864475952677291e-18 1.0
  outer loop
    vertex 147.49350397979916 39.9740461477482 27.200000000000006
    vertex 145.49350397979916 56.97404614774819 27.200000000000006
    vertex 145.49350397979916 41.9740461477482 27.200000000000006
  endloop
endfacet
facet normal -1.4366261426897767e-17 -5.864475952677291e-18 1.0
  outer loop
    vertex 147.49350397979916 39.9740461477482 27.200000000000006
    vertex 145.49350397979916 41.9740461477482 27.200000000000006
    vertex 112.49350397979917 39.97404614774818 27.200000000000006
  endloop
endfacet
facet normal -2.0816681711721685e-16 1.0 5.864475952677288e-18
  outer loop
    vertex 145.49350397979916 41.9740461477482 27.200000000000006
    vertex 114.49350397979917 41.97404614774819 25.200000000000003
    vertex 114.49350397979917 41.97404614774819 27.200000000000006
  endloop
endfacet
facet normal -2.0816681711721685e-16 1.0 5.864475952677288e-18
  outer loop
    vertex 114.49350397979917 41.97404614774819 25.200000000000003
    vertex 145.49350397979916 41.9740461477482 27.200000000000006
    vertex 145.49350397979916 41.9740461477482 25.200000000000003
  endloop
endfacet
endsolid 7segments
